/* XPM */
static char *c4effecaeee242e193658fbf8dd9f186[] = {
/* columns rows colors chars-per-pixel */
"53 48 169 2 ",
"   c #040403",
".  c #060802",
"X  c #0A0C06",
"o  c #0D0D0B",
"O  c #100F0E",
"+  c #0D1106",
"@  c #0E120A",
"#  c #111507",
"$  c #11120D",
"%  c #15190C",
"&  c #181D0D",
"*  c #151412",
"=  c #181714",
"-  c #171C11",
";  c #1B1B15",
":  c #1D1C1A",
">  c #201D14",
",  c #201F1C",
"<  c #18200E",
"1  c #1D2213",
"2  c #1F221A",
"3  c #222416",
"4  c #252916",
"5  c #292F17",
"6  c #24221D",
"7  c #29261D",
"8  c #26291B",
"9  c #2B2B1E",
"0  c #302C1E",
"q  c #2E321D",
"w  c #252422",
"e  c #292723",
"r  c #272820",
"t  c #2B2A25",
"y  c #2D2C29",
"u  c #312D26",
"i  c #312E2B",
"p  c #2E3224",
"a  c #323324",
"s  c #383327",
"d  c #333926",
"f  c #34322C",
"g  c #39352D",
"h  c #35392C",
"j  c #3B3A2D",
"k  c #363431",
"l  c #393633",
"z  c #3C3A34",
"x  c #3E3C39",
"c  c #413D35",
"v  c #413E3A",
"b  c #3A4429",
"n  c #3F4530",
"m  c #42412C",
"M  c #444135",
"N  c #494735",
"B  c #444B32",
"V  c #4B4A37",
"C  c #44423C",
"Z  c #49453D",
"A  c #474839",
"S  c #4C4A3D",
"D  c #504B3E",
"F  c #50503F",
"G  c #464441",
"H  c #494642",
"J  c #4E4A42",
"K  c #4E4D40",
"L  c #4E4A45",
"P  c #4C4946",
"I  c #4C4A46",
"U  c #4D4A46",
"Y  c #4D4A47",
"T  c #4E4B46",
"R  c #4D4944",
"E  c #4E4B48",
"W  c #4E4C48",
"Q  c #4E4C49",
"!  c #504C42",
"~  c #514D45",
"^  c #524D44",
"/  c #504C48",
"(  c #504D4A",
")  c #524F4B",
"_  c #544F49",
"`  c #514E4C",
"'  c #514E4A",
"]  c #565543",
"[  c #555145",
"{  c #555246",
"}  c #555246",
"|  c #575A43",
" . c #5D5947",
".. c #53504A",
"X. c #565548",
"o. c #54514D",
"O. c #55524C",
"+. c #56534F",
"@. c #55524C",
"#. c #5A574D",
"$. c #59554E",
"%. c #59554D",
"&. c #5F594B",
"*. c #5C584D",
"=. c #5D5A4D",
"-. c #5D584F",
";. c #5D5A4C",
":. c #575552",
">. c #575450",
",. c #585550",
"<. c #595651",
"1. c #595650",
"2. c #5A5751",
"3. c #595652",
"4. c #5D5A52",
"5. c #5A5854",
"6. c #5D5954",
"7. c #5D5A54",
"8. c #5D5A55",
"9. c #5F5C58",
"0. c #615B4E",
"q. c #615E52",
"w. c #625D55",
"e. c #605D5A",
"r. c #635F5A",
"t. c #615E59",
"y. c #666455",
"u. c #666254",
"i. c #696453",
"p. c #676951",
"a. c #65615B",
"s. c #63605C",
"d. c #65625C",
"f. c #66635E",
"g. c #65615B",
"h. c #68645F",
"j. c #69645C",
"k. c #6E695B",
"l. c #706A5E",
"z. c #73715F",
"x. c #6A6661",
"c. c #6E6A60",
"v. c #6B6865",
"b. c #6D6A66",
"n. c #6D6964",
"m. c #726D65",
"M. c #716D68",
"N. c #726E68",
"B. c #757067",
"V. c #767067",
"C. c #787364",
"Z. c #72706B",
"A. c #75726D",
"S. c #76726B",
"D. c #7C7569",
"F. c #79756E",
"G. c #7E786C",
"H. c #7B7771",
"J. c #7A7770",
"K. c #7D7972",
"L. c #817B6D",
"P. c #827D75",
"I. c #887F72",
"U. c #85817A",
"Y. c #88847C",
"T. c #8C8781",
"R. c #8E8A81",
"E. c #928D85",
"W. c #9A948D",
/* pixels */
"x w w z o.o.k f f %.D.&.i 6 r t 6 ; 6 j S K X.%.f t v t y ) W U v v ) v c w e e w 6 ! *.v C l 2.2.H z f z ",
"6 * o , v G k w i z %.*.] Z l f r 6 j J ~ U U x i w = $ y U C G x C U H s 6 u f l g c C C k e y k x J f : ",
", = O * y y w , w t v H *.y.*.S j s m Z U E C y t y : * i H x z f y y g u 4 s M ! S ~ H U k f l C G U x = ",
"= : = * = = * = 6 w x ) 8.B.c.q.{ N V Z x G H l i y : ; l z y f e 6 w 7 9 4 g Z ) 4.2.G G U C C 2.H v z : ",
"= w t t : , 6 t l l ` A.H.a.o._ *.{ S z k x H v l y : e x v C z l z v z 0 9 f v H 5.v.s.t.s...C C f w w = ",
"* : t l r 3 t y H o.Z.b.j.t.2.G C z a 6 , : : w y v i w i l k z G G f J Z c c z G >.s.N.H.8.H f : * = * * ",
"= 6 t i t 8 7 r C U W v I 8.9.2.U j 1 < ; = = : y C z t k C x x G l e z X.r.2.U ` 2.2.t.b.o.v w * = t 6 ; ",
"; r y t g a u f l k v k v o.o.s.o.M 1 1 1 2 2 , f x i k y y y , e e w g w.S.F.B.t.E I o.U G k w w f Z C t ",
"9 z J %.S c j v 2.x.8.E I 9.o.G C J [ p 8 1 8 r t i r i * o o * : w f C H.E.W.T.t.y t w = k y 6 6 l C ) M ",
"i.! z Z S M z c H U W ) G U G y y C X.5 1 @ 8 j t , 6 f = $ $ : w t y ) s.8.a.>.x , $ o o t f r 6 z c z { ",
"q.j.t.s.8.~ Z c y H k i y w : y C U U d & * 1 3 ; $ o $ $ X @ o = , x 2.U x v H G w o o o : y 6 * t t C q.",
"z z Z C k k x C %.C l y : = O = t f w 6 $ - 1 & & % + X + # # & 1 r i i i w : : y l k w : = : ; ; i c c v ",
"r 6 w 6 * : y v Z z f l e , : = = : 6 1 ; 1 4 1 % @ X o ; 3 4 3 1 1 6 6 w 6 : 6 t y z k e ; ; 9 g Z ^ Z z ",
"3 ; : = = = , f y t t w e f t t w w g 3 3 9 a 9 ; ; 6 t g a a 3 ; 1 1 : 6 f t w : $ : y 6 ; 6 l Z _ a.r.v ",
"u g f w = % $ : t y l e f C l i y c 9 3 1 3 9 7 ; 6 j f a a a 3 ; 6 1 8 8 r : = $ o . * ; ; u C E U t.s.C ",
"C H C f ; + % 6 : w l t l o.H k t Z j j a 9 r t , = 6 u t 9 9 1 ; 1 $ $ 1 6 * o @ X X . @ 3 g l C o.s.t.H ",
"t.U C l 8 % ; f w : y i l x l t w c X.%.S j g z u ; t c a r 8 ; * % o . ; 1 @ X @ $ $ $ : C ! Z v G H I 2.",
"v.o.H Z A g a z e w y k x t t f f j v Z S z j M c 6 f j t 9 8 3 ; > * = 6 ; @ X ; p j g M %.a.X.C y y C x.",
"b.>.x k H 8.2.C : e w e : w k z x z r t f j j z t * 6 c 8 3 8 9 9 s j j h p r 6 A k.I.m.{ c z f e e C t.t.",
"G 9.9.W >.b.9.U Z c r : y x C f y l C J S C z c r O = 6 $ * ; s c M B z B b a y g C w.Z k l g f l x I U f ",
"x i k I >.8.8.o.~ J i t t l x t y l Z %.4.X.A c i 6 c M M c z M M j n u.z.=.A j A C f f v a.M.t.G y i z v ",
"H l t t w x 8.a.4.X.y : : : w : t z i l v v { D M C *.k.k.X.A B V A X.y.j.&.%.{ %.%.%.4.j.c.N.M.8.y k W ) ",
"y f y i k H 2.b.x.%.l y w = $ * w f y 6 : w C ! S  . .C.L.y.F | p.u.~ C H U 4.s.+.%.F.P.B.b.N.M.s.) 8.o.l ",
"w : , k o.t.j.c.8.H i r e t t w f C C i 6 : f C S i.u.V.t.o.X.*.k.u.J Z ) t.B.N.U v 4.t.8.j.a.8.c.F.b.2.v ",
"w = : l >.2.o.U f t y y x G o.o...I H Z j 9 M S %.4.%.j.U v C C C v z W 2...) I e t z z z v C ) t.t.t.) z ",
"w t t l G l k l w 6 f k C 2.t.5.I v x C A j S { %.U 8.+.E G o.) C k l H C y w 6 = 6 y f e y z C v v U ) t ",
"y G G x y : = : , y f l G 8.x.s.o.y t z c g c J z i I C o.s.v.>.C l G s.W l f t : i l t = t i y y t l I y ",
"x +.` l : * * : t k f k E v.Z.x.2.k i z c l f f r w e y H 8.s.b.8.G o.s.8.s.c.8.f y e = o e t w , * , k f ",
"9.W l w * : e k 2.o.l t l 8.s.s.2.W %.J c i 6 6 , w w : t C U >.2.f x G 5.r.j.8.l = o * : k i w : * : t o.",
"j.B.8.k l v W o.M.F.8.l : y k l x ) C c x c 4 3 ; r k x o.b.x.U C i G 5.W C I C i 6 = : = * O o * w f H %.",
"U 8.W l k x l v U G +.U z W 9.s.) v U C C ~ z 3 ; z l k ) I f l C i w k y t i f j f 6 r : ; 6 w 6 k Z ) l ",
"k x l e 6 6 w y f y y y l E >.9.2.C f w t k z r 9 Z l G I C y l C f * t y w : 6 l c j j u f z l t i v C l ",
"k f f t : * * , 6 = $ = , f k C >.8.t : : t y f S q.l C I v x o.w.H 3 i y t 6 r z S ! Z Z ^ J z t f l i l ",
"k w y l e = = * $ = t t t k k x ) >.l r 6 y t Z m.P.+.z v x C v X.J f C J z r u C { u.0.0.w.~ j r l H H C ",
"H t = 6 y f f i r t v x k y i y f G v y r t f U N.Y.P.c.C H H i c C X.w.w.J j g { l.G.0.S X.~ C C w.N.s.H ",
"x w * * , y i i i w e y f e : = : t y w t y g Z ) o.a.w.+.x.c.4.4.+.%.j.a.X.C f ~ a.m.%.Z q.j.X.%.b.x.8.x ",
": 6 : * = : w t f t r f k e = : w : w = : w i f x C Z C a.H.A.j.x.m.j.2.~ J c u c J X.Z z 4.a.q.2.+.G G l ",
"y f t 6 + + : y e t t y e = $ * : : 6 X X $ 3 w y t f z E x G x.8.o.5.2.%.%.c 6 , i l z j 2.B.x.o.t : e l ",
"2.x z p % $ ; 6 6 , e 6 , = % + X o % + + # 3 2 : l 8.o.C t e x W G l f 6 t u 9 t l c w.^ _ w.o.f : : t H ",
"l i l j 1 X @ * O $ = * * % % # X X .       6 r w e ) >.v e : e t w = , * 6 c Z Z v Z 4.4.z t l C k 6 w k ",
"= = 6 8 % * , 7 3 6 f l f 9 4 3 -         X 8 f z v s.t.U C f w y f C f r i C C C Z Z Z U U H X.w.8.k : * ",
"$ 3 u r 3 r f c c C Z C J c a q 8 o       . 1 f x C 2.2.2.>.U U w.s.x.^ f f u r r t u j f X.a.j.w.H i 6 ; ",
"r l C C j c A J J H C k c g 6 3 1 o o o     = p f x 9.I l H W t.M.m.S.j.Z Z c i r r t 6 : l C C C f w r f ",
"Z Z C ~ J v x c H v w w a q 3 : * o * * o o w g C H l f w w e k z C %.j.m.u.! J M j f 6 ; y t 6 6 6 t r z ",
"w.w.4.w.~ z r 3 i t = ; 0 5 3 8 6 o * * o o : t l k t t = = w f i i H j.D.j.^ J ! Z j , , l C Z J C C C U ",
"R.P.P.H.%.~ j 9 u t > > 9 4 1 8 r : = * o o : 8 f t 6 , = : w C C z f l C Z c f Z ^ c > 7 Z ~ X.a.B.c.j.K.",
"H.H.A.F.2.J Z M z u > ; 3 ; $ % 6 y i : o o : w 6 = $ = , w i J ) X.l 6 ; , 6 6 c &.Z 4 u Z C z C a.P.P.U.",
"x.9.2.>.2.C Z X.7 4 9 g j r , : y b h y = o * = : 2 p f y w w r l C ~ C u t 1 3 c { 0.N Z z t 6 r x %.s.w."
};
