/* XPM */
static char *_4e5f8f4818549a38c154bb4e1b26ced[] = {
/* columns rows colors chars-per-pixel */
"48 48 196 2 ",
"   c #2B1F1E",
".  c #381C1D",
"X  c #2E211E",
"o  c #32221F",
"O  c #3C241F",
"+  c #331F20",
"@  c #2D2322",
"#  c #2E2827",
"$  c #2F2A28",
"%  c #342522",
"&  c #3C2421",
"*  c #352A26",
"=  c #3C2925",
"-  c #342C2A",
";  c #3C2E2B",
":  c #37302E",
">  c #3C312E",
",  c #363432",
"<  c #3D3432",
"1  c #3D3937",
"2  c #3B3C3A",
"3  c #401F1E",
"4  c #43251E",
"5  c #4C271E",
"6  c #47281F",
"7  c #4C281F",
"8  c #542A1F",
"9  c #5A2B1F",
"0  c #451E22",
"q  c #491F23",
"w  c #432521",
"e  c #4C2523",
"r  c #442A24",
"t  c #4C2A23",
"y  c #4B242A",
"u  c #442D2B",
"i  c #4C2C2C",
"p  c #46262C",
"a  c #532524",
"s  c #592625",
"d  c #542A23",
"f  c #5B2B23",
"g  c #532529",
"h  c #5D2628",
"j  c #542D2A",
"k  c #5A2C28",
"l  c #45332D",
"z  c #4B352E",
"x  c #563025",
"c  c #593126",
"v  c #54322D",
"b  c #5A322C",
"n  c #53382E",
"m  c #59382D",
"M  c #442E30",
"N  c #443533",
"B  c #4A3532",
"V  c #443936",
"C  c #4C3A35",
"Z  c #47373A",
"A  c #443B39",
"S  c #4B3E3A",
"D  c #4E373A",
"F  c #533533",
"G  c #533C36",
"H  c #5A3D34",
"J  c #553E39",
"K  c #593F38",
"L  c #632D24",
"P  c #692E26",
"I  c #632A29",
"U  c #6C2D2A",
"Y  c #65272C",
"T  c #712F29",
"R  c #663023",
"E  c #6C3125",
"W  c #60332D",
"Q  c #69322A",
"!  c #733425",
"~  c #7A3726",
"^  c #7E3827",
"/  c #733229",
"(  c #793529",
")  c #7E3828",
"_  c #44423E",
"`  c #4D413C",
"'  c #574037",
"]  c #54433C",
"[  c #5B423B",
"{  c #5E483F",
"}  c #674033",
"|  c #6A4335",
" . c #65463B",
".. c #6B463A",
"X. c #684A3F",
"o. c #66493E",
"O. c #734637",
"+. c #754738",
"@. c #734C3E",
"#. c #794939",
"$. c #4D3E41",
"%. c #3E4644",
"&. c #3E524F",
"*. c #3F5653",
"=. c #424442",
"-. c #4B4542",
";. c #454946",
":. c #494945",
">. c #434E4C",
",. c #4B4D49",
"<. c #534642",
"1. c #5A4742",
"2. c #554943",
"3. c #5A4B45",
"4. c #534A49",
"5. c #5B4F49",
"6. c #44514D",
"7. c #48504C",
"8. c #5E5047",
"9. c #56524E",
"0. c #5D524B",
"q. c #4B5552",
"w. c #435A57",
"e. c #4D5955",
"r. c #445D5A",
"t. c #4F5E5A",
"y. c #545351",
"u. c #545B57",
"i. c #5C5955",
"p. c #525C59",
"a. c #5D5C59",
"s. c #644C42",
"d. c #6D4E41",
"f. c #6D5246",
"g. c #63554D",
"h. c #6B554B",
"j. c #6B584F",
"k. c #635046",
"l. c #745244",
"z. c #7B5546",
"x. c #735649",
"c. c #735A4D",
"v. c #7B5C4E",
"b. c #635751",
"n. c #665A52",
"m. c #6B5C53",
"M. c #625E5B",
"N. c #745D51",
"B. c #7C5E51",
"V. c #4F605C",
"C. c #46615D",
"Z. c #5B625D",
"A. c #56635E",
"S. c #6E6057",
"D. c #6E6258",
"F. c #726157",
"G. c #7B6154",
"H. c #766559",
"J. c #746459",
"K. c #7C665A",
"L. c #77695D",
"P. c #7A685D",
"I. c #7D6A5D",
"U. c #466561",
"Y. c #4F6360",
"T. c #4E6C68",
"R. c #536562",
"E. c #5B6562",
"W. c #5A6E6A",
"Q. c #57736F",
"!. c #547672",
"~. c #577874",
"^. c #616963",
"/. c #666864",
"(. c #766A60",
"). c #7D6D62",
"_. c #7F7367",
"`. c #617671",
"'. c #637874",
"]. c #843B27",
"[. c #833B28",
"{. c #815E4F",
"}. c #816456",
"|. c #816658",
" X c #866758",
".X c #85695A",
"XX c #816A5D",
"oX c #826A5C",
"OX c #8A6C5D",
"+X c #826F62",
"@X c #867265",
"#X c #8C7263",
"$X c #87786A",
"%X c #917B6C",
"&X c #67807B",
"*X c #9A8473",
/* pixels */
"} } } } | @.l.v.v.B.G.}..XOXc.{ z z l l l l l l l l l l ; l l z [ h.K.G.B.v.v.v.{.z.@.| O.+.#.#.",
"} } } } | @.l.v.v.B.G.}..XOXc.{ z z l l l l l l l l l l ; l l z [ h.|.G.B.v.v.v.{.z.@.| O.+.#.#.",
"} } }  . .l.v..X|.K.K.I.XXXXj.1.N N l l l l l l l N l l ; l N C [ h.G.G.G.G.K..XOXB.l. ...O.#.#.",
"} } |  .X.c.|.#X@X+X).I.P.P.j.2.V N N N N > > N N V N < : N V C 1.g.F.F.H.H.XX@X%X.Xx. . .O.+.+.",
"} }  .o.s.N.@X*X%X$X_.).(.J.g.<.V V V V < < : < V A V < < < V S 2.0.m.D.J.L.@X%X*X@XN.{  ...O.O.",
"....d.f.j.G.XX$X+XL.D.m.n.b.2.S < < < < : - - : < < < : - : < V ` 2.0.g.n.m.H.).$XP.N.k.d.d.@.@.",
"d.d.x.N.H.H.P.P.F.n.0.5.3.2.` N - - - - - * $ - - : - - * - : < V S <.2.3.5.g.m.J.m.n.j.h.l.l.l.",
"x.x.N.K.).P.J.m.g.2.` S S V < - $ * * * # # # # * * * # # # * - : < V S S ] <.3.0.g.n.m.N.c.x.x.",
"B.B.G.K.L.S.b.5.<.S N N N l u = * = = r = % @ % = r = = % % = = ; l l N N V S ` <.3.g.n.j.c.v.v.",
" X XK.H.D.b.3.` V < - ; ; r r = O r t d t & + & r t t r O w r r r r r u u ; N V A -.3.g.j.c.v.v.",
"#X#XXXH.n.5.` < - * @ % O 4 4 4 4 7 9 L d 4 . 4 a f 9 8 5 5 5 5 5 7 6 w & % = - : S <.0.j.c.G.G.",
"}.}.N.j.0.<.S < ; = % & e d t 7 5 9 L E f e 3 5 f R f f 8 8 d d d d d t r w = ; - 1 ` <.1.s.f.f.",
"x.x.f.3.<.` V N u r 4 t d L f f 8 L E ~ R f e d L E R f 9 f f s f f f f d t r = - < V S ` ] [ [ ",
"s.s.[ ] S V N l u r 5 d L / P L f R ! ].! L a f E ( / R f f h h L L E L f d t = * - : < N l z z ",
"[ [ ] S A N l l i t 8 f L U P L f R ! [.! L d f E ( E L f f h s h L L L f d t r = ; > < N B C C ",
"J J C V N N l i d d 9 f L U L f d L / ) / L d L P / E L f f s s s h I h f d t t r u > < N C F F ",
"C C B N < l i d d f 9 L L U I h d L / ) / R 9 L P / P L f s s g s s h h s d d t t u l < N C J J ",
"G G C V < N z v x f f L L U I s a L E ( / L 9 L P / P L f s s g s s s s s a d j j i l N C G K K ",
"G G C V 1 N z v b c f f L U I s a f P ( E L f L P / P L f s s s s s s a a e a s s j l N C G K K ",
"] ] ` S A C F m m c c f L P h s a f P / P L f L L U P L f s s s s a a e e e a s f j B N C G ' ' ",
"J J ` -.=.:.2.8.3.[ ' H b I k s a s L T L f a f L / P L f s s j v B S B B N z j k v l N C G J J ",
"G G ` :.6.e.Z.^.Z.i.9.1.H b k s a s I U I d e s L / E L f f v v G -.>.;.=.=.S B j z l N N C J J ",
"C C -.7.w.R.Q.&X`.W.A.9.[ b j j a s I Y h a 0 s L / E L f c v F ` 6.r.w.*.&.=.S i l l < N C J J ",
"C C ` ;.>.q.t.A.p.q.,.` G b k s a s I Y h a 0 s L ( E L f b F ] ,.e.U.U.C.r.7.` B B N N B C J J ",
"G G S _ %.%.;.;.=.2 < N v k f d a s h Y h a 0 s P ~ E L d v J 2.y.V.T.T.T.T.e.:.B N N N C G K K ",
"G G S A 2 , , - * % @ & t f s d a s h Y h e 0 s P ^ E L d F <.9.p.R.!.!.!.~.R.,.Z Z N N C J ' ' ",
"G G C V 1 < > u r = & t s L L f a s I Y h s e f E ) E I a v G 2.y.A.W.W.W.W.p.-.N N N N C G K K ",
"J J C V < N l j t e w d L E L f d h L U I s e f E ) E h e i F J 5.a.^.^.E.E.y.$.M M N N B G K K ",
"K J C N < l v L f s a h P / E L d L P / P f a L / ) E s 0 y i F 1.b././.M.i.4.D p p M < N C J J ",
"J J C V < B v b f s a h L / E L f L E ( E L d L E ( P s q e j b K 1.0.5.2.2.J B y p M N N C J J ",
"G G C V < N v b j j e s L / E L 9 L / ) / L d L E / L s q a s k b F G C C B i p y p M N B C J J ",
"C C C V 1 N B v j j e s L / E L f R ! [.! R f L P / I s q a s L f t 6 6 4 4 w y y p M N C C J J ",
"G G S _ =.-.<.3.<.J C F W Q R f f R ! [.! R f L P T I s e d f L L f d d t e e e g i M N C G J J ",
"G G ` ;.>.q.u.Z.i.9.4.] H W k f f R ! ].! R 9 L P U I s e s L E R R R f f d s s g i B N C G ] ] ",
"G G -.7.w.Y.W.'.W.E.p.4.J b k f f R ! ].! R 9 L L U I s a f L E ! ! ! E L f h s s j B N C G ] ] ",
"G G ` ;.6.q.p.A.u.q.,.` F j j s d L / ) / L 9 L L U I s a f L E E E ! R L f s s s j l N C G J J ",
"G G S =.%.;.,.,.:._ 1 N z j s d a f E ( E L 9 f P T L h a f L E E E E R L f s s s j i N N C J J ",
"G G S A 2 2 A V < : * = t s a a e s L / P f 9 f P / L h a f L E E E R L f f s s s i u > N C J J ",
"G G C A 1 < < > ; * % % w e w w w e s f s t 6 t d f s e w e d f f f d d t e e e e u u N B G K K ",
"J J C V < < ; * * % @ % % & & O o & w e w O O O w t w w O O w r 6 6 4 4 & O & & & = ; N C G ' ' ",
"J J C N < ; * % X X X X X o X X   X % % o X X X o % o o X X o o o o X X X X X @ @ * ; N C J [ [ ",
"K K G C N N > ; ; > > > > ; ; ; ; ; l l > ; * ; l l l ; * ; > l l ; ; ; ; > > ; ; < N N C J [ [ ",
"K K J S A V C V S ` ] ` S C C C V S ] ] S V < V ` ] ` V N V S ] ` C V C S S S S S A V V S J [ [ ",
"[ [ ' J S ` ] <.3.5.g.k.3.2.2.2.2.3.0.g.3.<.S <.3.g.3.<.S <.3.g.5.2.] <.3.3.3.3.3.<.S A C J K K ",
"H H J G C S J ] ] 1.3.1.] ] ] ] ] ] 1.3.] ` C ` ] 3.] ` V S ] 1.] ] S ] ] [ ] ] ] J C N C J K K ",
"H H F F C C G G G G ] G G C C C C G G ] G C N C C J C C N C C G C C C C G G G C C C C z F F H H ",
"H H F v z z z z z z z z z z z z z z z z z z l l z z l l l l l l z z z z z z z z l z z z n F H H ",
"H H H v z z z z z z z z z z z z z z z z z z l l l z l l l l l l z z z z z z z z l z z z n F H H "
};
