/* XPM */
static char *a7c2db9bbd654c55839da459f588477b[] = {
/* columns rows colors chars-per-pixel */
"48 48 200 2 ",
"   c None",
".  c #1E1B1B",
"X  c #1E1515",
"o  c #221815",
"O  c #2D1B17",
"+  c #291719",
"@  c #251D1C",
"#  c #2B1C1B",
"$  c #231719",
"%  c #361F17",
"&  c #341D1A",
"*  c #3A1E1B",
"=  c #2C211E",
"-  c #24201F",
";  c #32211D",
":  c #3B221B",
">  c #3E1C21",
",  c #361F20",
"<  c #252423",
"1  c #2A2524",
"2  c #2C2827",
"3  c #2D2A29",
"4  c #272B2A",
"5  c #342522",
"6  c #3D2422",
"7  c #342A26",
"8  c #3C2A25",
"9  c #352729",
"0  c #332C2B",
"q  c #3B2D2C",
"w  c #382729",
"e  c #2C302F",
"r  c #36312F",
"t  c #39312F",
"y  c #2E3634",
"u  c #363332",
"i  c #3C3332",
"p  c #343937",
"a  c #3C3937",
"s  c #363D3C",
"d  c #3A3D3B",
"f  c #411F1F",
"g  c #43231C",
"h  c #4C251E",
"j  c #4D291E",
"k  c #47281F",
"l  c #51271F",
"z  c #552A1E",
"x  c #5B2C1F",
"c  c #431E22",
"v  c #4D1F27",
"b  c #501F28",
"n  c #452121",
"m  c #4C2321",
"M  c #442C25",
"N  c #4A2B24",
"B  c #442429",
"V  c #4B242A",
"C  c #422D2D",
"Z  c #4C2A29",
"A  c #532524",
"S  c #5B2626",
"D  c #542A22",
"F  c #5C2B23",
"G  c #512229",
"H  c #5B232C",
"J  c #532D2B",
"K  c #5A2D2A",
"L  c #43322D",
"P  c #4B332D",
"I  c #51332F",
"U  c #5C322A",
"Y  c #5A3529",
"T  c #462B30",
"R  c #423635",
"E  c #4A3333",
"W  c #443936",
"Q  c #4B3C36",
"!  c #443B39",
"~  c #4A3D3B",
"^  c #463338",
"/  c #5A3331",
"(  c #5C3C31",
")  c #542B32",
"_  c #632D24",
"`  c #692F25",
"'  c #64272C",
"]  c #652B2A",
"[  c #6B2B2B",
"{  c #712E2B",
"}  c #663122",
"|  c #6C3224",
" . c #6B322A",
".. c #6A382C",
"X. c #733525",
"o. c #793726",
"O. c #7C3926",
"+. c #75322A",
"@. c #7B352A",
"#. c #7E3929",
"$. c #633630",
"%. c #34403F",
"&. c #43413E",
"*. c #4D413D",
"=. c #51423E",
"-. c #3A4341",
";. c #3C4D4B",
":. c #3A4745",
">. c #3B514E",
",. c #3E5351",
"<. c #3D5956",
"1. c #414241",
"2. c #4C4541",
"3. c #494B48",
"4. c #544441",
"5. c #594743",
"6. c #554944",
"7. c #5B4A45",
"8. c #544C4C",
"9. c #5C4F48",
"0. c #45524E",
"q. c #52504E",
"w. c #5D524B",
"e. c #465D5A",
"r. c #485251",
"t. c #5A5854",
"y. c #555855",
"u. c #604D47",
"i. c #63534C",
"p. c #69594F",
"a. c #68514C",
"s. c #645A52",
"d. c #6D5C53",
"f. c #615A57",
"g. c #41615E",
"h. c #6D6056",
"j. c #62665F",
"k. c #6B6259",
"l. c #746256",
"z. c #76655A",
"x. c #786558",
"c. c #76695D",
"v. c #7E6B5F",
"b. c #496E6A",
"n. c #466763",
"m. c #536562",
"M. c #5B6B67",
"N. c #5B6561",
"B. c #4B726E",
"V. c #5B716E",
"C. c #4A7B77",
"Z. c #527671",
"A. c #5C7875",
"S. c #636765",
"D. c #766B61",
"F. c #7C6E62",
"G. c #716F6B",
"H. c #62726E",
"J. c #7C7166",
"K. c #75726F",
"L. c #667974",
"P. c #797874",
"I. c #833C27",
"U. c #81372A",
"Y. c #843A29",
"T. c #8B3D29",
"R. c #827165",
"E. c #897466",
"W. c #8C7668",
"Q. c #8D796B",
"!. c #947C6C",
"~. c #8E7F72",
"^. c #4D827D",
"/. c #54827D",
"(. c #5F817D",
"). c #67837F",
"_. c #68807B",
"`. c #8E8173",
"'. c #82807C",
"]. c #9D8776",
"[. c #9C8C7C",
"{. c #968474",
"}. c #A48B79",
"|. c #AB907D",
" X c #518B86",
".X c #528E89",
"XX c #5C8883",
"oX c #56958F",
"OX c #6B8C87",
"+X c #6D938D",
"@X c #A49383",
"#X c #AA9382",
"$X c #A89988",
"%X c #A69886",
"&X c #B59F8B",
"*X c #B19A86",
"=X c #B1A28F",
"-X c #B6A592",
";X c #C5B39F",
":X c #C8B6A0",
/* pixels */
"                                                                                                ",
"              E.W.c.`.=X:X$XD.! 2 < < < < < < < < < < < < < < 3 ! D.[.$XF.F.Q.}.!.              ",
"          *.z.E.W.c.`.=X:X$XD.! 2 < < < < < < < < < < < < < < 3 ! D.[.$XF.F.Q.}.!.z.*.          ",
"          *.z.E.W.c.`.=X;X%XD.! 3 < < < < < < < < < < < < < < 3 ! D.[.%XF.F.Q.}.!.z.*.          ",
"        7.d.!.].[.Q.J.J.J.z.i.4.W 0 i W ~ ~ t 2 W ~ ~ W t 0 ! *.4.i.d.k.w.c.{.#X}.Q.s.4.        ",
"      *.d.E.}.#X@X~.d.*.i W =.u.=.R =.7.a.a.! 0 7.a.a.5.~ R u.a.7.~ i t *.h.`.@X#X}.v.9.t       ",
"    *.i.R.].[.R.s.6.6.5.7.5.4.~ i 0 i R ! ! 0 1 R ! ! R 0 0 W ! W R ! =.5.6.6.s.F.Q.c.w.! !     ",
"  z.z.z.R.Q.F.s.6.*.~ ~ *.~ R 0 1 < 1 2 3 3 < < 2 0 3 1 1 1 3 0 0 i ! =.=.=.=.6.9.i.s.h.z.z.    ",
"  |.}.Q.F.k.w.6.4.=.R 0 0 0 1 - @ @ @ @ @ . . @ @ @ @ . @ @ @ @ < q R R i ~ 6.=.R i 6.F.}.|.    ",
"  &X*X[.D.6.! W ! i 0 < - = ; # # & : : : o $ & : : % o O : : % O ; 5 5 1 0 i i i i 2.c.[.#X    ",
"  -X&X~.s.! i i t 2 < @ ; g h : g j _ } F O & m _ _ l O h } _ l g g k N : 5 1 0 0 i ! w.F.~.    ",
"  =X%XD.6.i R i 0 < # & k F } j z } I.T.O.% c ' Y.I.| : F T.I.` m l F } l : = 1 0 W i ! 2.s.    ",
"  J.D.w.4.~ ~ i 7 ; : k _ X.X.z z } I.T.O.% c [ Y.#.` * F T.@._ m z | I.X.l ; 1 t ! ~ i t 0     ",
"  2.2.~ ~ ~ W L 8 k h l ` @.+.z z } I.T.O.% m { T.@._ * F T.@.S m l | Y.X.D ; = 0 i W i 3 <     ",
"  2 3 u R W R L N F z z ` +.+.A z } #.T.O.% l @.T.@.S * F Y.+.S n l ` @.X.D ; O 1 0 i i 0 1     ",
"  0 0 i i i q N F } x z ` { { A z } @.Y.o.% z T.T.@.S % F U.[ A c h ] +.[ D g g 6 0 0 0 0 0     ",
"  i i i i q 8 D } } x z ` [ [ m A } +.I.o.% z T.T.+.A % F @.' G c m S { ` D h D Z M q i W W     ",
"  W W W i 0 8 F X.X.x z ` [ ' c m _ +.I.o.% z T.T.{ G % D @.' b c c S [ ` D h S S Z L W 6.6.    ",
"  6.6.=.W q N } O.X.x z ` [ ' c m _ { @.X.% z T.T.{ G % F @.[ G c c S { ] A n S _ K L W =.=.    ",
"  4.=.~ ! a L Y | } D j ` [ ] c m _ [ @.X.% l Y.T.{ G % F U.[ S c > A ] S m c S ] K C R ~ ~     ",
"  ~ ! i -.;.3.=.( ( P M U ] ] c m _ [ @.X.& h @.T.+.G % F Y.+.S n , B J Z 6 * S _ K q i ! !     ",
"  i i u ,.Z.L.H.j.j.y.3.E K ' c m _ [ { ` & c [ Y.@.S * F I.+.D 6 1 u d u 0 ; D K J q 0 i i     ",
"  R i u e.XX+XOXL.L.M.r.Q U ] c m _ [ [ ' + c [ Y.@.S * F I. .I d ;.g.b.n.>.d E J Z q i R R     ",
"  ~ ~ a e./.OX).V.H.m.0.Q U ] c m _ [ [ H + > ' Y.@._ * F I...*.<.C..XoX.XC.g.&.P Z q R ~ ~     ",
"  5.6.! :.<.,.%.3 3 2 2 M K ] n m _ [ [ H + > ' Y.@._ * F #.$.q.B.oX.X^. X.X/.0.^ B C ~ 5.5.    ",
"  =.~ W p p e 2 ; # # O j _ ` n m _ ` [ H + > ' Y.I.` * A +./ q.Z.XXB.<.n.A.(.r.^ B q W =.=.    ",
"  W R i 0 1 = : h f * : F | [ n m _ [ [ H + c [ T.I.| % m ' ) 8.M.L.y.1.q.H.L.8.^ B q i R W     ",
"  i i i 0 7 M K ` S m h | @.+.n m _ +.{ H + m @.T.I.| & c H G ~ t.P.'.'.'.P.S.~ C B 9 0 i i     ",
"  ! ! ! i q D  .+.S m h | @.+.m A } #.@.' + h I.T.Y.| & c H H I *.f.G.P.K.f.2.T B B q i ! !     ",
"  6.6.=.W C J  .+.S m h | @.+.A z } I.@.] + z T.Y.I.| & c ' ' D M W 3.t.8.! w n V B q W 4.6.    ",
"  6.4.=.W q Z ] +.S m h | @.@.z z } I.Y.X.& z Y.@.@.| & c ' [ S j = 1 7 5 1 & v V V q W 4.6.    ",
"  ~ ! W a u C J ] A m m ` +.@.z z } I.T.o.% z Y.{ +.| & c ' [ ` l : g j k : * v G V q R ! ~     ",
"  i i u s -.1.Q / J C M K  .+.l z } I.T.O.% z I.[ { | & c [ +.` z h _ X.} l f G G V q q i i     ",
"  R i u ;.b.V.N.t.t.3.&.E K [ l z } I.T.O.% z I.[ { | % m { @.| x z X.I.o.F n G G Z q i R R     ",
"  ~ ~ a e./.OX_.H.H.m.0.R K ` l z _ I.T.O.% z I.[ { | % m { I.X.x z X.T.O.F n A S J C W ~ ~     ",
"  6.4.! e./.+X).V.H.m.0.i J ` l A F @.T.O.% z I.[ { | % m +.Y.X.x z X.T.O.F n S ] U L ! 6.6.    ",
"  ~ ~ i ;.g.e.;.s s p e 9 J ` l m A @.I.X.& z I.[ { | & m +.Y.X.x z X.T.O.F m S _ U L W ~ *.    ",
"  ~ ! i d -.&.R q 8 5 1 6 S ` l m A +.@.` + z Y.{ +.| % A @.Y.X.x z | Y.X.F n A S K q i R R     ",
"  ! R i u 0 M N j g : % n S ] h g m ` [ S + h o.+.X.} % h +.O.} l h F +.` m * m A Z 0 0 i i     ",
"  0 0 0 3 1 5 : g * O O % * g & + & g g * X & j h h g o % h h g % + * g * & + & & 5 0 R *.=.    ",
"  ! ! W i 0 1 = = # @ @ # # # @ @ @ # # # . @ ; ; ; # . @ ; ; O @ @ # # # @ @ @ @ < 0 W 4.6.    ",
"  5.5.5.~ i 1 1 2 0 0 0 0 2 1 1 2 3 0 0 3 < 1 0 0 0 0 2 1 < 7 0 0 3 1 1 1 2 0 0 3 3 0 W =.4.    ",
"  4.4.4.=.*.W *.i.l.x.z.x.i.*.=.i.l.z.x.p.0 *.l.x.z.l.i.*.R d.x.l.d.7.*.6.p.z.z.p.6.W W ~ ~     ",
"  ~ ~ ~ *.=.=.6.9.p.d.d.d.9.*.*.7.s.d.d.i.0 ~ d.d.d.d.i.~ R i.d.d.i.6.*.6.i.d.s.w.*.W W ! !     ",
"  R R R ! ~ *.~ W ! ~ *.*.W i i W ~ *.*.! 3 i ~ *.*.~ ! i 0 ~ ~ ~ R i i ! ~ ~ ! i i i R R R     ",
"  1 1 1 1 2 3 3 2 2 2 3 3 2 1 1 2 3 3 3 2 < < 3 3 3 2 2 < < 2 3 2 1 1 1 2 3 3 2 1 1 1 1 1 1     ",
"                                                                                                ",
"                                                                                                "
};
