/* XPM */
static char *_d24d07a47324f58a0cce0e48c2da5fe[] = {
/* columns rows colors chars-per-pixel */
"53 48 215 2 ",
"   c #0D0D0C",
".  c #110D0D",
"X  c #0E1008",
"o  c #12130C",
"O  c #15180C",
"+  c #161412",
"@  c #191414",
"#  c #1B1A15",
"$  c #1D1B1A",
"%  c #161B17",
"&  c #160F12",
"*  c #231D16",
"=  c #211E1B",
"-  c #281F1D",
";  c #3B1719",
":  c #23221D",
">  c #29251E",
",  c #272719",
"<  c #32261C",
"1  c #251E20",
"2  c #2B1E22",
"3  c #172B2F",
"4  c #1D2E2E",
"5  c #1C2524",
"6  c #192E31",
"7  c #1B3234",
"8  c #1D3739",
"9  c #1E393A",
"0  c #252322",
"q  c #2A2524",
"w  c #2C2925",
"e  c #2D2C2A",
"r  c #252A27",
"t  c #322C25",
"y  c #322D2C",
"u  c #352A2A",
"i  c #3D3225",
"p  c #34322D",
"a  c #3C352D",
"s  c #36382B",
"d  c #392E31",
"f  c #2B3C35",
"g  c #233B3A",
"h  c #253536",
"j  c #353331",
"k  c #3A3533",
"l  c #3C3A34",
"z  c #3C3B3B",
"x  c #333B3D",
"c  c #2F3129",
"v  c #4D251C",
"b  c #4C2623",
"n  c #542526",
"m  c #41352C",
"M  c #423436",
"N  c #433C34",
"B  c #4D3C35",
"V  c #413439",
"C  c #433D3A",
"Z  c #4B3C3F",
"A  c #49373A",
"S  c #54393B",
"D  c #6A2829",
"F  c #793326",
"G  c #762126",
"H  c #29443E",
"J  c #30423B",
"K  c #45413C",
"L  c #49443D",
"P  c #4C493D",
"I  c #474437",
"U  c #54433B",
"Y  c #5A463B",
"T  c #5F4A3E",
"R  c #614C3F",
"E  c #4C3D41",
"W  c #503F41",
"Q  c #264341",
"!  c #284744",
"~  c #2B4D46",
"^  c #394B45",
"/  c #2E524A",
"(  c #2E5044",
")  c #315A4F",
"_  c #355446",
"`  c #345D50",
"'  c #366354",
"]  c #3E6E5B",
"[  c #464441",
"{  c #4A4541",
"}  c #4D4A44",
"|  c #4E4C49",
" . c #434746",
".. c #514245",
"X. c #5A4443",
"o. c #524C44",
"O. c #5C4943",
"+. c #554449",
"@. c #59464A",
"#. c #524E4B",
"$. c #5D4B4C",
"%. c #5B5044",
"&. c #55524D",
"*. c #5A554D",
"=. c #58564C",
"-. c #5D4D51",
";. c #5A5651",
":. c #5E5A54",
">. c #595955",
",. c #4C5852",
"<. c #664C46",
"1. c #734344",
"2. c #66564D",
"3. c #644F54",
"4. c #6C4E51",
"5. c #655352",
"6. c #6A5455",
"7. c #645D53",
"8. c #6C5559",
"9. c #615E59",
"0. c #6E595B",
"q. c #6B5A53",
"w. c #735C5E",
"e. c #725354",
"r. c #59645C",
"t. c #44725C",
"y. c #6D6456",
"u. c #65625B",
"i. c #6A655C",
"p. c #62695B",
"a. c #70685C",
"s. c #76655B",
"d. c #767C5F",
"f. c #775E61",
"g. c #477B63",
"h. c #457761",
"j. c #5B7768",
"k. c #6D6964",
"l. c #6A6661",
"z. c #7A6263",
"x. c #746D64",
"c. c #796B66",
"v. c #677269",
"b. c #7A7264",
"n. c #76726A",
"m. c #79756B",
"M. c #7B7770",
"N. c #7D7972",
"B. c #85352B",
"V. c #97342D",
"C. c #873D32",
"Z. c #A43A2F",
"A. c #8F4B37",
"S. c #BA4C36",
"D. c #B24F36",
"F. c #C25238",
"G. c #CA5A3B",
"H. c #82504B",
"J. c #816769",
"K. c #846A6B",
"L. c #896C6D",
"P. c #816867",
"I. c #837A6C",
"U. c #80726A",
"Y. c #8E7272",
"T. c #827D75",
"R. c #8B7C74",
"E. c #827271",
"W. c #907473",
"Q. c #977B78",
"!. c #997C7A",
"~. c #DB6D41",
"^. c #E37644",
"/. c #4F876B",
"(. c #5E8370",
"). c #8D8375",
"_. c #87857A",
"`. c #998F7F",
"'. c #93877B",
"]. c #A1847F",
"[. c #8E8B82",
"{. c #988A82",
"}. c #9C9486",
"|. c #99968A",
" X c #A48581",
".X c #AA8B86",
"XX c #AE8E89",
"oX c #A78984",
"OX c #A39A8A",
"+X c #A9978B",
"@X c #B5948D",
"#X c #BE9D93",
"$X c #A29C91",
"%X c #ACA492",
"&X c #ABA598",
"*X c #B3A899",
"=X c #A9A08F",
"-X c #BAB3A1",
";X c #B3B5A9",
":X c #B7B4A6",
">X c #9EA493",
",X c #C3BCAB",
"<X c #BAC3B6",
"1X c #C5C0AE",
"2X c #C9C5B5",
"3X c #D2CEBC",
"4X c #D8D4C3",
"5X c #DBD8C6",
"6X c #DBD8C7",
"7X c #E0DCCD",
"8X c #E4E1D1",
"9X c #EDEBDB",
"0X c #E8E6D6",
"qX c #F1EFE0",
"wX c #F5F4E6",
/* pixels */
"l 0 0 l &.&.j p p =.R.#XoXK.*X3XwX2 : a P } =.N w w C w 0 a | } C C #.C wX*X2.P.2 0 } ;.C K l ;.;.{ l p l ",
": +   = C [ j 0 y l A L.!.O.}.8XwX.X.X} o.L I.;.y 0 + o > i t L z K [ .X9X4X*Xw. Xw.C K K j 0 w j z } p $ ",
"= # . + e e 0 = 0 w 8.!.@Xs.%X8X9X5.K.N } o.m q w e $ + y N m I p y $.Y.9X8X}.O.!. XX.{ } j p l L [ } l @ ",
"# $ # + @ @ + @ : 0 @XXX#X%X1X8XqX< K.u L b.).L e e 5 % p o.).b.p 2 #Xz.9X8X%Xs.@X!.8.[ [ } K L ;.{ C l $ ",
"@ 0 w w = = > w l l  X.X#X%X1X6XwX7.5.q ;.-X;X>.h 3 3 3 h r.;X-X;.w #X< qX8X1X%X#XXX@Xu.9.u.&.L L p 0 0 # ",
"+ $ w =.P : w e { &.5.@X@X+X1X3X0X8X}.> e ,.! 7 8 7 7 7 8 7 f '.i.u <.}.wX4X1X%X@XoXY.x.M.:.L t $ + # + + ",
"# : w i.u., > w K } ..Q.@Xs.}.2X4X9X8Xx.0 7 g Q Q Q / Q Q g 7 ^ x n.}.8X0X3X1X+X@X@XP.9.k.&.C w * = w > # ",
"# q t a.n.t t p k j #.z.P.B I.*X2X5X5X-Xp.Q ! / ) ) g.) / ! Q g r |.3X9X3X-X}.s.@XQ.+.&.} [ j 0 o.=.L K w ",
", l N 7.7.a a C ;.l.c.W.0.K.R.).OX3X3X%X_.! ! ) ' ' /.' ' ) ! ! _.1X3X3X1X%XI.m 3.z.{ 0 @ j e : u.a.N #.I ",
"y.o.p 7.qXx.p N { } ;.z.z.z.U.).).%X%XOXv.! ) ' ' /././.' ' ) ! v.OX3X3XOX).R.K.0.W.M   . w p t a.a.a l %.",
"7.i.o.%.4X9XwXx.e { 0.W.z.z.z.B y.%X%X< s ' ' ' ' /././.' ' ' / c < %X%X).).U.z.z.z.u   . $ e w 7.7.w K 7.",
"l l L ;.-X3X6XqX5Xa.c. XL.w.0.:.u.y.y.o.s ' ' ' g./././.g.' ' ' s o.y.).%.C w.w.w.W.0.0 * u.$XqX4Xy.N N C ",
"q : 0 q '.1X2X6X8X8X,XQ.w.L. .3 6 w w %Xr.' ' ' g./././.g.' ' ' p.*X< p.r h -.w.0.K.R.k.a.qXqX6X,Xi.o.P l ",
": # $ # 7.`.,X3X3X3X*XJ.6.6.x 6 8 7 7 ,X;X_ ' ' g./././.g.' ' ` <X4X< 7 6 3  .L.w.z.*X3X9X9X6X2X%X;.u.7.C ",
"t p p 0 * m `.-X-X-X{.J.K.x 7 8 9 9 ! -XOXp ` t./././././.t.` f =X-X< 9 8 7 h #.0.w.OX3X5X4X2X*X).{ 9.u.L ",
"L { K p # o N I.%X`.R.z.J.c.R.#.g Q ! I.1X:Xj.h./././././.h.H [.2X-X< 9 9 8 7 x K.J.{.-X-X-X%XI.o.&.u.9.{ ",
"9.} K l , O # I %.).c.0.!.oX#X X#.! ! r.,X6X<Xp.t./././.g.` ;.3X1Xb.f Q g #.R.c.J.z.R.%X%XOX).*.N [ { } ;.",
"k.&.{ { P s c l w L 5. X.XW.Q.Q.z.).z ^ b.-X3XOXj./././.(.>X*X,XOX,.! z 9.z.Q.Y.3.z.R.`.`.7.x.&.K e e L l.",
"k.;.z j { :.;.a $ q A K.Y.@X#X#XXXK.#X! f U OX%Xj.' /.' j.%X%X`.,.! V #XY.!.K.K..X#X`.< %.N l p q q K 9.9.",
"[ :.:.| &.k.:.} L N @X XXX#X#X#X#X XK.z ! f y.U _ ' ' ' _ U y.f ! ! V K.XX#X#X@XY.K.A L j k p p k z } } p ",
"z y j } =.N N C o.P  XXX#X#X#X#X#X XK.z H g ! ) ' ' H ' ' ) ! ! ! z #X X#X#X#X#X@XoX@Xp C u.x.9.[ e e l C ",
"{ k w N N N N %.I I z.@X#X#X#X#X#X XK.z h 0 ~ ) ' ' 0 ' ' ) H h H z ]. X#X#X#X#X#XXX@X;.i.=.9.i.} e j | #.",
"e p w i.x.{ ;.|.7.7.w.#X@X#X#X#X#XXXz.z g e  .H _ H } H ( / 5 % g z 3.XX#X#X#X#X#X.X XT.n.%.N 9.o.:.:.&.l ",
"0 $ = a.T.:.i.n.1X3Xz.].!.XX#X#X].].@.z ! g k e e $ S $ r J $ g ! x @.].@X#X#X#X@XXXw.|.{.OXN :.[._.u.;.C ",
"0 @ * y.2XM.&.} %.OX}.0.w.z.K.K.0.z.V 1 4 g j e n D ; D n e j g ^ | 0.3.Q.#X#XoXP.K.'.5X,Xo.K #.[.a.o.#.l ",
"0 w q 7.0X4Xi.k q K 2.f.0.w.C q @.z.= k j e 0 n V.Z.@ Z.V.n 0 e q 0 u z.0.K.K.z.w.0.}.OX%.w l C b.a.L #.w ",
"e [ [ i.3X9X3X:X> e Y @.q Z l k { t . : 0 q n V.S.F.@ F.S.B.b y y y l z.@.q A w.0.f.2.L $ w p 7.2Xy.k } e ",
"z &.#.:.:X4X9X9X*X|.u C e 0 = @.0.$.u 5.d = D Z.F.~.@ ~.F.Z.D $ k +.-.6.0 $ l Z q @.Y +   *.;X1X7X*.q j p ",
":.| l q I.1X3Xo.o.C z q q 3.3.3.W.K.V $.$ j 0 B.F.^.@ ^.F.B.0 + Z z.K.K.0.K.z.+.[ 0 P < 3XwX8X3X1XL $ w &.",
"i.n.:.j a.OX,Xo.C j M W.3.z.0.z.K.K.V [ q u C e C.G.@ G.C.e $ q [ 0 3.3.z.3.3.3.q q z . . 8X3X3X}.q p { =.",
"} :.| k j *.I.{ q C +XW.f.f.0.f.K.7.[ q Z W.J...e F F F e ..J.W.Z q $ c.L.w.0.z.0.W.5.q z 9.-X=Xb.j L #.l ",
"j z l q : : l e k OX).Y.w.0.w.Q.0.y k 5.X.1.1.e.M @ 9.@ M 3.E ..$.Z P 2.K.f.0.f.f.W.+XC q C b.b.o.y C L k ",
"j p p w @ $ e $ 7.y.R.L.w.w.@.w.... V X.D V.V.1.E.x.;Xa.X.X.b b S L.d.q ..w.w.0.w.Y.).OXC 0 0 t w p k y k ",
"j 0 e k 0 j j $ o i c.L.3.L.k k l u V b V.B.D.b &XqX3 8Xo.b V.D G 1.K.M $ q +.0.z.z.I.).I.C k w q l { { K ",
"{ w # = e 0 w t q Y Y 0.0.w.{ q $.0.V v D.A.S.v  .v.9 v. .v S.A.V.b K.Y.5.y u z.0.f.$.q.N C 0 j L 9.x.u.{ ",
"z 0 + . q $ 0 t y Y <.J.K.6...= W z.V 1.Z.S.F - 7 ) 9 ) 7 - F S.Z.H.0.0.6.q { w.0.0.Y Y I N } z #.k.l.:.z ",
"$ : $ + @ @ > < p Y O.8.0.d 1 @.z.0.V 4.1.H.q.^ ~ ' 9 ' ~ ^ q.v ; e.3.z.W = ..6.K.J.<.Y l o.} 0 j [ [ [ k ",
"e p w e % X * *X0 Y O.$...1 . $.0.K.V 3.5.7.>.g ) /.9 /.) r.,Xa.N ......W.w.. 1 $.@.Y Y a ;.n.o.. $ $ 0 k ",
";.z l p % o # m.9X9XY ..3.u . k w.3.V @.R.1Xr.) g./.9 /.g.~ | 4X[.@.3.3.@.Z . 1 ..w.2.Y o.< N L . + $ w { ",
"k y l y o   X , %X3XB w.@.q $.0.3.K.V 5.%.M.g ) g.' 0 ' g.) r.%X%.N ....0.$.. u 3.$.O.< < |.w k C j : 0 j ",
"@ # > : O + = > a.I.).3.@.1 k +.0.3.V Z I r.Q h.f V.@ V.f h.! r.I Z 3.3.6.5...0 @.0.2.1X-Xi.{ &.L K j $ + ",
"o : t w : q p N N i s.@...0 k @.$.$.V L l 4 ) g._ A.& A._ g.) 4 l Z $.3.0.+.k 1 @.3.).I.y.&.u.i.} y e : # ",
"> l K K a N K } } Y X...E 0 M @...E V $.u.4 ) g./.] % ] /.g.) 4 u.$...$.3.@.k 0 ..@.s.i $ k L L p 0 0 q p ",
"L L K o.} K l N { Y X.@...d Z @.E E V 5.u.4 ) ] ] ] 9 /./.g.) 4 u.0...$.+...k 0 Z A U Y $ w w : : : w q l ",
"9.9.;.9.o.l , : y Y B M ....E +...u U M N r h ! / / 9 ` ` ) ~ 4 u.0...@.+.A k d ....U Y = k K L } L L L } ",
"[.T.T.M.=.o.s , t a U B B Z Z ..M B Y B B B N K L L K L L L L N %.O.Y Y @...Z ....M B Y > L o.&.u.n.k.i.N.",
"M.M.n.M.;.} P I l w Y Y U S U U B Y Y T Y Y Y Y Y Y Y Y Y Y Y Y Y T R Y M ..Z Z B B U i w L K l K u.T.T._.",
"l.:.;.;.;.K L &.> , i Y Y Y Y Y Y Y Y Y Y Y Y Y Y Y Y Y Y Y Y Y Y R R R Y Y Y Y Y Y Y I I l w > q l =.u.9."
};
