/* XPM */
static char *_e2aada145d249bc9bb6a50a185ec3db[] = {
/* columns rows colors chars-per-pixel */
"48 48 167 2 ",
"   c #0C0D14",
".  c #181C28",
"X  c #50362E",
"o  c #55382F",
"O  c #583A2F",
"+  c #553C33",
"@  c #5C3E33",
"#  c #673E2F",
"$  c #633F32",
"%  c #693F31",
"&  c #5E4035",
"*  c #644134",
"=  c #6B4233",
"-  c #6A4233",
";  c #694133",
":  c #6C4031",
">  c #6D4031",
",  c #6C4032",
"<  c #6C4132",
"1  c #6C4133",
"2  c #6D4133",
"3  c #6F4132",
"4  c #6D4232",
"5  c #6E4233",
"6  c #6F4333",
"7  c #684134",
"8  c #694134",
"9  c #6A4134",
"0  c #684234",
"q  c #694234",
"w  c #684235",
"e  c #694235",
"r  c #694335",
"t  c #6A4234",
"y  c #6B4234",
"u  c #6A4235",
"i  c #6B4235",
"p  c #6A4335",
"a  c #6B4335",
"s  c #684236",
"d  c #694336",
"f  c #684337",
"g  c #694337",
"h  c #6A4336",
"j  c #6B4336",
"k  c #6A4337",
"l  c #6C4234",
"z  c #6D4234",
"x  c #6C4334",
"c  c #6D4334",
"v  c #6C4235",
"b  c #6C4335",
"n  c #6D4335",
"m  c #6E4234",
"M  c #6E4334",
"N  c #6F4334",
"B  c #6E4335",
"V  c #6F4335",
"C  c #6C4336",
"Z  c #6D4336",
"A  c #694437",
"S  c #6B4436",
"D  c #6B4437",
"F  c #6D4435",
"G  c #6F4434",
"H  c #6E4435",
"J  c #6F4435",
"K  c #6C4436",
"L  c #6D4436",
"P  c #6C4437",
"I  c #6D4437",
"U  c #6C4537",
"Y  c #6E4436",
"T  c #6F4436",
"R  c #6F4536",
"E  c #6E4537",
"W  c #6F4537",
"Q  c #6C4335",
"!  c #694438",
"~  c #6C4438",
"^  c #6E4538",
"/  c #704232",
"(  c #704233",
")  c #704334",
"_  c #714334",
"`  c #704335",
"'  c #714335",
"]  c #734334",
"[  c #744334",
"{  c #704434",
"}  c #714434",
"|  c #704435",
" . c #714435",
".. c #724434",
"X. c #734434",
"o. c #724435",
"O. c #734435",
"+. c #724535",
"@. c #734535",
"#. c #704436",
"$. c #714436",
"%. c #704536",
"&. c #714536",
"*. c #704537",
"=. c #714537",
"-. c #724436",
";. c #724536",
":. c #734536",
">. c #724537",
",. c #734537",
"<. c #704637",
"1. c #714637",
"2. c #724636",
"3. c #724637",
"4. c #734637",
"5. c #734737",
"6. c #754434",
"7. c #744534",
"8. c #744435",
"9. c #754435",
"0. c #744535",
"q. c #754535",
"w. c #764535",
"e. c #744536",
"r. c #754536",
"t. c #744537",
"y. c #764536",
"u. c #744636",
"i. c #754636",
"p. c #744637",
"a. c #754637",
"s. c #744737",
"d. c #754737",
"f. c #764636",
"g. c #774636",
"h. c #764637",
"j. c #764737",
"k. c #734536",
"l. c #784535",
"z. c #784635",
"x. c #784636",
"c. c #794636",
"v. c #784736",
"b. c #794736",
"n. c #784737",
"m. c #7B4736",
"M. c #794736",
"N. c #794837",
"B. c #7B4837",
"V. c #714639",
"C. c #714739",
"Z. c #724638",
"A. c #754739",
"S. c #764738",
"D. c #774738",
"F. c #754738",
"G. c #774838",
"H. c #764939",
"J. c #774839",
"K. c #784838",
"L. c #794838",
"P. c #7A4939",
"I. c #7A4A3B",
"U. c #7A4838",
"Y. c #406D6B",
"T. c #834B38",
"R. c #CBFFD8",
/* pixels */
"7 7 l #.g.g.g.g.T 9 $ 9 T #.l w $ $ 7 ; 9 l T 9 9 9 * @ O @ $ 9 9 A T T T T T T #.g.g.c.c.K.K.K.",
"7 7 l #.g.g.g.g.T 9 7 9 T #.9 w $ $ 7 ; 9 l T 9 9 9 $ @ O @ $ 9 9 A T T T T T T #.#.g.c.c.K.K.K.",
"; ; l #.g.#.#.#.l 9 w 9 9 T 9 7 $ 7 ; l l T T l 9 9 w $ @ $ ; l 9 9 w w w $ 7 ; ; 4 #.#.g.c.K.K.",
"9 9 l T #.T T l 9 9 9 9 9 9 ; $ $ ; ) g.#.#.#.l 9 9 9 ; $ ; l #.l w * $ @ @ @ $ $ ; 9 T #.g.K.K.",
"l l l T ^ T 9 w 9 A T 9 9 7 $ % % 4 g.c.c.g.#.l l 9 9 l l ) #.g.l w @ @ + X o @ @ $ w 9 T #.K.K.",
"l l l T ^ 9 w * w w 9 9 9 7 ; ; 4 ( g.c.g.g.#.) l 9 l l ) #.g.g.l ; $ @ @ @ @ @ $ 7 w 9 T #.A.A.",
"l l 9 9 A w * @ * * w w w 9 9 l l #.g.g.g.g.#.) l ; l ) g.g.g.g.) ; $ $ $ $ $ $ 7 w w w 9 #.g.g.",
"T l 9 9 w * & @ @ $ * 7 w 9 l T #.#.g.g.g.g.g.) 4 ; 4 #.g.g.g.g.) 4 ; ; ; ; ; 9 9 w w w 9 T #.#.",
"T l 9 9 w * & @ @ * 7 w 9 9 l T #.#.#.g.#.#.#.l 9 7 9 ) g.g.g.g.#.l 4 4 l #.T T T 9 9 w 9 T #.#.",
"l l 9 9 w * * @ * * 7 9 9 l T T T #.#.#.#.T T R.R.R.R.R.R.#.#.g.#.) 4 #.g.g.g.#.#.T 9 w 9 l #.#.",
"l l 9 w w * * * * w ; 9 l T T T T T #.#.T R.R.R.R.R.R.R.T R.#.#.#.#.#.g.c.m.B.K.G.#.9 w 9 l l l ",
"#.#.l 9 * * * @ * w ; l T #.#.T T T T T R.R.R.R.R.R.R.R.R.l T #.#.#.#.g.g.c.g.#.T T 9 w 9 9 l l ",
"A.A.T 9 * $ $ @ $ 7 ; l #.g.#.T T 9 9 R.R.R.R.R.R.R.R.R.R.R.l T T ) ) #.g.g.#.T 9 w w w 9 9 l l ",
"I.I.C.9 $ @ @ @ $ 7 4 l g.G.#.#.T 9 w R.R.R.R.R.R.R.R.R.R.R.9 l l l ) #.#.#.T w $ $ 7 w 9 9 l l ",
"C.C.A w @ @ @ @ $ 7 ; l #.g.#.T 9 9 7 R.R.R.R.R.R.R.R.R.R.R.l #.#.#.#.#.#.T l 9 7 7 9 9 9 9 9 9 ",
"! ! w * @ @ @ * * $ % 4 #.g.#.T 9 ; 7 $ R.R.R.R.R.R.R.R.R.4 ) g.#.#.#.#.T T 9 9 ; 9 l #.T l 9 9 ",
"* * & @ @ @ & * w $ # ; l #.T l ; ; $ $ ; R.R.R.R.R.R.R.4 ( [ c.g.g.#.T A 9 9 9 ; l #.A.C.T 9 9 ",
"& & @ @ @ @ & * w 7 % 4 #.#.T l ; ; ; ; 4 l l R.R.R.7 ; 4 ( ) g.#.#.T 9 9 w w 9 ; l #.A.C.T w w ",
"@ @ @ @ @ @ * * w ; ; l #.#.T l 4 4 4 ( l l l l l 9 4 4 4 ( #.g.#.T T 9 w * 7 w 9 l #.K.#.A w w ",
"@ @ @ @ @ & * * w 9 l l #.#.#.l 4 ) ) g.#.. . l #.#.. . 4 ( #.#.#.T 9 w * @ $ 7 9 l #.K.#.A w w ",
"@ @ @ @ @ @ & & * * w 9 9 l l l ) ) ) ) ) . . . . . . .       g.#.T 9 w $ @ $ $ 7 l g.K.#.T w w ",
"@ @ @ @ @ @ & @ @ @ $ * w 7 9 l #.#.l l l . . . . . . . . g.c.  g.T 9 w $ @ $ $ $ l g.K.g.T w w ",
"@ @ @ + + + + + + + @ @ @ $ ; l g.#.l ; . . . . . . . . . . B.m.  T 9 w $ @ @ $ $ 4 g.B.g.T w w ",
"@ @ @ + + + + + + + + @ @ $ ; l g.#.l . . . . . . . . . . . g.c.  T 9 9 w $ 7 ; ( #.g.c.#.A w w ",
"+ + + + + + + + + + + @ @ $ % 4 g.#.  . . . . . . . . . . . g.  #.T l 9 9 7 l #.c.c.c.g.#.9 * * ",
"+ + + + + + + + + + + @ @ # $ 4   #.. . . . . . . . . . . . #.l l l l l l 4 g.m.T.m.B.g.T 9 * * ",
"@ @ @ + + + + + + @ @ @ $ $ ; )   #.. . . . . . . . . . . . l l l #.#.) ) ) g.c.m.B.g.g.T 9 w w ",
"& & @ @ @ @ + + @ @ $ $ ; 4 ) #.  A.. . . . . . . . . . . . . l ) #.g.g.#.#.#.g.g.g.#.#.T 9 w w ",
"w w w * & @ + + @ $ ; 4 l #.g.A.G.  . . . . . . . . . . . . . l ) g.c.c.g.g.#.#.T #.#.C.T 9 w w ",
"* * & & @ @ @ + @ $ ; l ) #.g.g.G.A.. . . . . . . . . . . . . ; l g.c.c.c.g.g.#.l #.#.#.T 9 w w ",
"@ @ @ @ @ @ @ @ @ $ ; l ) g.g.g.K.g.. . . . . . . . . . . . . 7 l g.m.c.c.c.g.#.l #.#.#.T 9 w w ",
"+ + @ @ @ @ @ @ $ w 9 l #.g.g.g.B.c.. . . . . . .   . . . . 7 $ 4 g.m.m.B.K.g.#.l #.#.#.T 9 * * ",
"+ + @ @ $ @ @ @ * w 9 l #.g.g.g.g.g.. . . . . .       . . . 7 $ 4 g.c.c.g.g.#.) l ) #.g.T 9 * * ",
"+ + @ @ * * * @ * w 9 l #.g.g.g.g.#.T T . . . .         . . ; ; 4 #.g.g.g.#.) l l ) #.g.T 9 * * ",
"@ @ @ * w w * & * w l l #.g.g.g.g.#.A w . . . .         9 . 4 4 4 ) g.#.#.) l l ; l g.c.#.9 * * ",
"@ @ @ & * * * & * w 9 l l ) #.#.#.T 9 Y.Y.. .   Y.Y.  Y.Y.Y.l 4 ) #.g.#.#.#.) ) l ) #.g.T 9 * * ",
"@ @ @ @ & & & @ & * w 9 9 l l l l Y.Y.Y.Y.. Y.  Y.Y.  Y.Y.Y.Y.Y.#.#.g.g.g.g.#.#.#.#.#.#.l 9 * * ",
"@ @ @ @ @ @ @ @ @ & * w w 9 9 9 9 w 7 Y.Y.Y.Y.Y.Y.Y.Y.Y.Y.Y.#.#.#.#.#.g.g.g.g.g.g.g.#.) l 9 w w ",
"@ @ @ @ @ @ @ @ @ @ $ $ w 9 9 9 9 9 9 ; 7 7 $ * * * 9 T A.#.T l l T T #.#.g.g.g.g.g.g.g.#.9 w w ",
"$ $ $ $ $ $ @ @ @ @ @ $ $ 7 7 ; ; 9 l T l 9 9 w w w 9 T #.T l 9 9 9 l l ) #.#.#.g.g.g.c.#.l w w ",
"; ; 7 $ $ $ @ @ @ @ @ @ $ $ $ 7 ; 4 #.g.#.l l 9 9 w A A T 9 w 7 7 7 ; 9 l ) ) ) ) g.c.B.g.T 9 9 ",
"9 9 9 9 ; ; 7 7 $ $ $ $ 7 7 ; l l #.#.g.#.T l 9 9 w w 9 9 9 w 7 ; ; 9 l #.#.#.#.) g.g.B.g.#.9 9 ",
"l l l ) #.#.) l l l l l 9 9 l #.#.#.#.#.#.T T 9 w w w w w w 7 $ ; l l #.g.g.g.g.) g.g.c.g.#.l l ",
"T T #.g.c.c.c.c.g.g.g.#.#.l #.g.n.g.g.#.#.T T A w * w w w 7 $ $ ; l #.g.g.B.c.g.) #.g.g.g.#.T T ",
"T T #.g.g.g.c.c.g.#.#.#.T l #.#.#.#.#.#.T T 9 9 w w w * * * 7 $ ; l #.#.g.g.g.#.4 ) g.g.#.#.T T ",
"l l #.#.g.g.g.g.g.#.T T T T T T #.#.#.#.T 9 9 w w * * * * * * * 9 l #.#.#.g.#.l ; l #.g.#.#.l l ",
"l l T #.g.g.g.A.#.T 9 9 l T T l l T #.#.T 9 w w w * * * * * * * 9 l #.#.#.#.l ; ; 4 #.g.#.#.l l ",
"l l T #.g.g.g.A.#.T 9 9 l T T l l T #.#.T 9 w w w * * * * * * * 9 l #.#.#.#.l ; ; 4 #.g.#.#.l l "
};
