/* XPM */
static char *_604f18e3f6c42e084a14ec996abead9[] = {
/* columns rows colors chars-per-pixel */
"53 48 160 2 ",
"   c #0E0D0D",
".  c #100F0E",
"X  c #12130D",
"o  c #16190E",
"O  c #151513",
"+  c #181614",
"@  c #171A16",
"#  c #1B1A15",
"$  c #161718",
"%  c #171818",
"&  c #1C1C1C",
"*  c #211C13",
"=  c #211E1C",
"-  c #1C2112",
";  c #1E201D",
":  c #242316",
">  c #252916",
",  c #23221D",
"<  c #28261E",
"1  c #25281B",
"2  c #2B2C1C",
"3  c #1E1F20",
"4  c #211F20",
"5  c #1E2121",
"6  c #232424",
"7  c #2B2523",
"8  c #262823",
"9  c #2C2A24",
"0  c #242728",
"q  c #262A2B",
"w  c #2A2D2D",
"e  c #312726",
"r  c #312C26",
"t  c #332D2A",
"y  c #3B2D2C",
"u  c #323122",
"i  c #383326",
"p  c #34322D",
"a  c #3D312E",
"s  c #353A2D",
"d  c #3C3A2E",
"f  c #2A2F30",
"g  c #2C3233",
"h  c #2F3838",
"j  c #353533",
"k  c #3A3632",
"l  c #303837",
"z  c #3C3A34",
"x  c #303738",
"c  c #333B3C",
"v  c #3D3C39",
"b  c #40312F",
"n  c #433331",
"m  c #483735",
"M  c #413C35",
"N  c #493835",
"B  c #423E3A",
"V  c #483F3B",
"C  c #3B4529",
"Z  c #454236",
"A  c #45413C",
"S  c #4A453D",
"D  c #4D4A3E",
"F  c #373F40",
"G  c #374041",
"H  c #3A4344",
"J  c #3D4748",
"K  c #3E494A",
"L  c #464441",
"P  c #494642",
"I  c #4D4A44",
"U  c #414D4E",
"Y  c #4E4C48",
"T  c #514742",
"R  c #524C44",
"E  c #524E4A",
"W  c #565543",
"Q  c #545246",
"!  c #555245",
"~  c #53504A",
"^  c #555349",
"/  c #54514D",
"(  c #56534F",
")  c #55524D",
"_  c #59554E",
"`  c #5A544C",
"'  c #5F594B",
"]  c #5C584C",
"[  c #5D5A4D",
"{  c #5D584F",
"}  c #434F50",
"|  c #435051",
" . c #455353",
".. c #465354",
"X. c #465455",
"o. c #475656",
"O. c #475757",
"+. c #455353",
"@. c #485757",
"#. c #485657",
"$. c #495959",
"%. c #4A5A5A",
"&. c #4C5C5D",
"*. c #4D5E5E",
"=. c #4E5F5F",
"-. c #4C5C5C",
";. c #575552",
":. c #575550",
">. c #595651",
",. c #5A5751",
"<. c #595652",
"1. c #5D5A52",
"2. c #5A5854",
"3. c #5D5954",
"4. c #5D5A54",
"5. c #5E5A55",
"6. c #5F5C58",
"7. c #615B4D",
"8. c #625D55",
"9. c #605D5A",
"0. c #615E59",
"q. c #4E605F",
"w. c #686353",
"e. c #63605C",
"r. c #65625C",
"t. c #66635E",
"y. c #65615B",
"u. c #68645F",
"i. c #69645E",
"p. c #4E5F60",
"a. c #4F6060",
"s. c #4F6161",
"d. c #516363",
"f. c #516463",
"g. c #516464",
"h. c #526464",
"j. c #556867",
"k. c #556968",
"l. c #566968",
"z. c #586C6B",
"x. c #5A6E6D",
"c. c #5A6E6D",
"v. c #5C706F",
"b. c #6A6661",
"n. c #6B6865",
"m. c #6D6A66",
"M. c #6D6A64",
"N. c #716D68",
"B. c #72706B",
"V. c #75726D",
"C. c #76726B",
"Z. c #7C7569",
"A. c #78756F",
"S. c #7B7771",
"D. c #7A7770",
"F. c #7D7972",
"G. c #827D75",
"H. c #85817A",
"J. c #8C8781",
"K. c #8E8A81",
/* pixels */
"v 6 6 z / / j p p _ Z.' t , 9 9 : # , d D I Q ^ p 9 v 9 w Y Y I B B E B z 6 7 7 6 , I ] B A z ,.,.P z p z ",
", O   = B L j 6 t z _ ] W v w q 0 & r I S k w 6 5 5 5 5 5 w j v v v A j q 6 9 p d i M A A j 7 9 j v I p & ",
"= # . O 9 w 6 = 6 9 B P ] v c o.| 6 , j j 6 g c H J J H F g 6 w w 6 6 H %.c , Z R D R P I j p z A L I v + ",
"# & # O + + O + , 6 v E 5.v c o.a.U w 0 w c H U  .*.*.@.U J c w 5 6 K a.%.c 6 S E 1.,.L L I A A ,.P B z & ",
"+ 6 9 9 & = , 9 z z E V.S.v g K %...c c c J  .%.*.g.g.a.%.o.K F c c | *.U w , B P 2.n.e.0.t.~ A A p 6 6 # ",
"O # 9 k 9 : 9 9 P / B.m.i.z 0 g H J c c J U *.d.l.c.c.z.f.*.o.J c c H J c 6 6 z L ;.t.N.S.5.P p # O # O O ",
"# , 9 t 9 1 < 9 A I Y B P j 6 w c c g c K  .d.l.c.v.v.c.l.d.%.K c g c c g 6 9 I E ,.,.0.m./ B 6 O # 9 , + ",
"# 7 9 9 p u r p k j B j B p 5 q g c g c U *.j.c.v.v.v.v.c.l.*.} F g c c w 6 v C.0.Y P / I L j 6 6 p S A 9 ",
"2 z I ` D M d B ,.b.5.Y I j 5 6 w g x J  .a.l.c.v.v.v.v.x.l.a. .J c g g 0 5 P J.0.w 7 6 $ j w , , z A E Z ",
"w.R z S D Z z M P I Y E L w 5 6 q g x J  .a.l.c.v.v.v.v.c.l.a. .J c g q 6 5 j ;.v 6 O     9 p 7 , z M z Q ",
"8.i.0.e.5.R S M w P j t 9 6 # # 6 g x J  .a.a.l.c.v.v.v.l.a.a. .J c g q & 6 B P 9 c h   . & w , O 9 9 A 8.",
"z z A A j j v A E t ; & # O . O & c H J J U *.a.g.z.z.l.a.*.o.J J J c 6 , 6 & # g | o.g & + # # # t M M V ",
"7 , 6 , O # w B j & g g 5 # $ O & c J J H H  .*.a.d.d.d.*.o.J H J J c 6 & , # # G *.q.U g # O 2 p S R S z ",
": # # # # + = p 6 # g x c w 6 # & x G G c c J  .%.-.-.-...J c c G H c 6 & w 6 q U g.j. .G q & p A E e.8.B ",
"r p p 6 # X X # , $ q g G G c g q g c c g g G J K U U K J G x g c c g 6 & 6 6 H %.l.l. .J g 6 w Y I 0.t.A ",
"A P A p # @ & 6 # $ 6 w c G G c g f x G c g G H J o.o.K G G c c G c f 5 # 6 f U g.z.j. .J c 6 0 v / t.0.P ",
"0.I A k ; 6 c l 5 & 6 q g c c x g q g H G G F c U p.a.o.c c J G H c q 5 & w G  .j.l.d.} J c w 6 6 A P P ,.",
"n./ P S 9 g K o.K c q 6 q g g g w 6 w c J U H c U g.g.o.c G o.J c g q 6 g F U %.d.d.%.K H c g 6 & 9 w A b.",
"m.;.v 7 w U *.d.a.%.c 6 0 g g w 6 6 q c U *.J g c  .o.F g H a. .c w 6 q g c H U a.a.o.J c g g g 6 , B 0.0.",
"L 6.6.v w U *.g.d.U ..c 6 q g w 6 6 q c J U G w c J J F w c %.J c w g x q g c U a.a.o.J c g g g 0 w P I p ",
"v t p j g H  .a.z.g.K G c w f w q w q g c U H g q f f w w H o.c w g J F q q x U *.o.K G c g g f 6 6 w v B ",
"P k 6 & g G U %.j.l. .F G g w w g g w q x H U G g w w w c U J x w c o.o.g 6 g H  .U J c g g g q 3 & j Y E ",
"w t , & g c J } *.g.d.K c g 0 q g g w q g c K H G c c c H K G w g K a.a.G q q c K J c g g g f q & j ,./ z ",
"6 # $ & g c G J  .*.d.| g w 6 q f g g q q g H H H H G G H H c q g U j.j.U g 6 g G c g g g f q 6 6 / b.,.B ",
"6 + $ & g g c G J U *.o.F w 0 w g g c w q g c F c c c c F F g w c  .j.j.| c q f c g g f w q 6 & 9 ,.6.E z ",
"6 9 & # w g g c G J  . .H g q g c g g g q q c G G G G G G c w g K %.d.a.U F g w x g g c x q 6 & 6 B I E w ",
"9 L j # q f g g c G J K G w w c c w g c w 0 w c G G G G c f 0 x U *.*.@.J c w q g c J U H f 6 & & 7 k P 9 ",
"v / v % 6 q g g g x c H F g g c c g w c c w 0 w g g g g f 6 6 f G  .o.K c g q q c G  .*. .g & # # O = j p ",
"6.I t % 6 q g g g g g c F g c x w q q c J F q 6 6 6 6 6 6 6 6 q c H J c g q 6 q c  .*.a.o.G w # & O & 9 / ",
"i.C.2.w & q g g g g g c F g c G c 6 6 g J J c g q 6 6 q q 6 6 q c H c g g w g G  .g.j.a.o.G w = e 6 p P _ ",
"I 5.T r & 6 q w g g g g g c J  .o.F g w x G H H c g g g g q q q w x c g q q c  .g.j.a. .J c 6 , n k A E z ",
"j M n y & 6 6 q f g g w w G U %.*.%.| c g c G J H G c g f q q g g f g g w c U *.d.q.o.K H g 6 , n k B A k ",
"k k n a 6 & 6 6 q f g q q c J  .-.a.*.K c g c G H H c g q w x U G g g w c U *.a.*.o.U H c g 6 , n n k t k ",
"k a n n 7 & 6 6 0 q q 0 0 g c J  .*.%.K c g g x c c g w q g J %.K g w g K *.a.a.o.U J c g w 6 , n n V S A ",
"S n n m n 7 6 5 6 6 6 6 6 q g c G K K H c g x f g g w q g H  .o.G g g c  .*.*.@.K H c g g q & 7 m n ` 5.P ",
"M n m N N b 7 4 6 6 6 6 6 q f g g c G c g c G x g g w f H  .-. .c g x G K ..o.K G c g g q 6 & 7 N m E ,.v ",
"= y m m m m y 7 & 6 6 & # 6 q f g g g g q c U H c w g F U %.%.K c f f c J J K F x g g q 6 & 7 a m m M L k ",
"w k n n n n n n e O O O % 6 6 q f g g q q x  . .G c J J J J J c g q q g c c g g g q 6 6 & 7 n n n n 7 9 k ",
",.z n n n n n n n a a a e & 6 6 q g w 6 6 q c H c c c c J J F g g q 6 6 w g g w 6 6 6 & , n n n n 7 = 9 P ",
"k t k M n n n n n n n n b 6 & 6 6 0 5 $ & q g c x w g g c c g g w 0 & $ & 0 0 6 & $ $ 7 a n n n n j , 6 j ",
"+ # , , # 7 a n n n n n n a 7 = & & 6 y 7 & q f q 6 6 6 g g w q 6 6 & 7 7 & & & 7 y y a n m N T 1.5.j # O ",
"X : r 2 : 9 d M M M V n n n y y y y y n a 7 6 6 6 & & & 6 0 0 6 6 3 7 y y y y y y n n n b m T 8.8.P t , + ",
"8 k A Z d M A I I P A k M n n n n n n m m a 7 4 & 7 e 7 & 6 6 6 3 6 y n n n n n n n n b y a V A A p 6 7 p ",
"S S A R I B v M P B 6 6 p i a a n n m m N m a 7 7 a n b 7 = = = 7 y n n n n n n n n n r = 9 9 , : , 9 7 z ",
"8.8.1.8.T z 9 : t 9 O # u 2 1 r a a n m m m n a y n n n y y y y y n n n n n n m S S k : = k A S I A A A I ",
"K.G.G.S._ R d 2 r 9 * * 2 > - 1 9 e a a a a n n n n n n n n n n n n n n b m a t S R M * < S R ^ e.C.M.i.F.",
"S.S.V.A.,.I D Z z r * # : o X o , p k 7 # = b n n n n n n n n n m m n y = = , , M ' S 1 9 S A z A e.G.G.H.",
"b.6.,.;.,.A A ^ < : 2 i d 9 = # 9 C s 9 $   $ + , , u p t 6 7 7 k A T A r 9 - : M ^ 7.Z S z 9 , 7 v _ e.8."
};
