/* XPM */
static char *_8fb75a7877a4ae7a47e91cb29b4ee47[] = {
/* columns rows colors chars-per-pixel */
"48 48 178 2 ",
"   c #2F2E33",
".  c #312F36",
"X  c #333036",
"o  c #383337",
"O  c #36333A",
"+  c #39363C",
"@  c #3D393E",
"#  c #403B3F",
"$  c #393740",
"%  c #3E3B42",
"&  c #3F3D48",
"*  c #423E44",
"=  c #413F48",
"-  c #454046",
";  c #484247",
":  c #444148",
">  c #454148",
",  c #444049",
"<  c #444149",
"1  c #454149",
"2  c #444048",
"3  c #474148",
"4  c #464149",
"5  c #474248",
"6  c #474348",
"7  c #464249",
"8  c #474249",
"9  c #474349",
"0  c #44414A",
"q  c #45414A",
"w  c #45424A",
"e  c #46424A",
"r  c #47424A",
"t  c #46434A",
"y  c #47434A",
"u  c #46424B",
"i  c #46434B",
"p  c #47434B",
"a  c #45424C",
"s  c #47434C",
"d  c #47444C",
"f  c #45424A",
"g  c #494348",
"h  c #484249",
"j  c #484349",
"k  c #494349",
"l  c #48434A",
"z  c #49434A",
"x  c #48434B",
"c  c #484449",
"v  c #494449",
"b  c #4A4449",
"n  c #49444A",
"m  c #48444B",
"M  c #49444B",
"N  c #4A454A",
"B  c #4B454A",
"V  c #4A454B",
"C  c #4B454B",
"Z  c #4C464B",
"A  c #4D464B",
"S  c #4D474B",
"D  c #48444C",
"F  c #49444C",
"G  c #49454C",
"H  c #49454D",
"J  c #4A444C",
"K  c #4A454C",
"L  c #4A454D",
"P  c #4B464C",
"I  c #4A464D",
"U  c #4B464D",
"Y  c #4B474D",
"T  c #48454E",
"R  c #49454E",
"E  c #4A454E",
"W  c #4B454E",
"Q  c #49464E",
"!  c #49464F",
"~  c #4A464E",
"^  c #4B464E",
"/  c #4B474E",
"(  c #4A464F",
")  c #4A474F",
"_  c #4B474F",
"`  c #4C464C",
"'  c #4D464C",
"]  c #4C474C",
"[  c #4D474C",
"{  c #4C464D",
"}  c #4C474D",
"|  c #4D474D",
" . c #4E474D",
".. c #4C474E",
"X. c #4D474E",
"o. c #4C474F",
"O. c #4D474F",
"+. c #4A454C",
"@. c #4D484E",
"#. c #4D484F",
"$. c #4E484E",
"%. c #4E484F",
"&. c #4F484F",
"*. c #4E494F",
"=. c #4F494F",
"-. c #4D484E",
";. c #50494E",
":. c #504A4F",
">. c #514A4F",
",. c #474550",
"<. c #494650",
"1. c #4B4750",
"2. c #4A4750",
"3. c #4D4950",
"4. c #4C4851",
"5. c #4E4950",
"6. c #4F4950",
"7. c #4E4951",
"8. c #4F4951",
"9. c #4F4A50",
"0. c #4F4A51",
"q. c #4F4A52",
"w. c #4E4A53",
"e. c #4E4952",
"r. c #4F4C58",
"t. c #504A50",
"y. c #514B50",
"u. c #504A51",
"i. c #514A51",
"p. c #504B51",
"a. c #514B51",
"s. c #524B51",
"d. c #504B53",
"f. c #514B53",
"g. c #514C53",
"h. c #524C52",
"j. c #534D52",
"k. c #524C53",
"l. c #534C53",
"z. c #534D53",
"x. c #554E52",
"c. c #514C54",
"v. c #524C54",
"b. c #534D54",
"n. c #524D55",
"m. c #534D55",
"M. c #534E55",
"N. c #534E56",
"B. c #534E57",
"V. c #544D54",
"C. c #544E54",
"Z. c #554E55",
"A. c #554F55",
"S. c #564E54",
"D. c #564F54",
"F. c #564F55",
"G. c #564F56",
"H. c #524C54",
"J. c #544F58",
"K. c #534F59",
"L. c #575057",
"P. c #595156",
"I. c #56515A",
"U. c #585259",
"Y. c #595259",
"T. c #5A5258",
"R. c #58525B",
"E. c #5B535A",
"W. c #5C545B",
"Q. c #5B545C",
"!. c #5B545D",
"~. c #5A545C",
"^. c #5F585F",
"/. c #61595E",
"(. c #5E5760",
"). c #5F5860",
"_. c #625A61",
"`. c #685F65",
/* pixels */
"k 2 = 9 9 9 @.P P @.P 9 P P 9 9 m 9 = $ O + % 2 2 * @ + + @ @ @ @ @ @ * * * * g * % = = = N k 9 ",
"N 9 9 9 9 9 6...9 9 9 9 P P P P 9 : % $ O + * 2 = = % + + @ @ @ @ % * - - * * 2 * * k 9 9 N k 9 ",
"P P N 9 k P @.P 9 = 9 k s P @.@.P = % $ $ % * = % = * + @ % % @ @ * 2 k g = = = = = Z N 9 P N 9 ",
"@.P N = 9 ..s 9 = % 9 N P P P @.P s 9 = = 2 = * $ % % * * * * % * * 2 N :.Z 9 2 = = 2 2 2 9 k k ",
"P 9 9 = 9 k 9 = % % = k 9 P ......P 9 9 k 2 = = % % * 2 2 2 * % % * 2 N t...9 9 N ..P N N ..N k ",
"9 = = = = = 2 % $ % = 2 = N @.N P ..9 k N 2 = = = = 2 N N 9 * % % * = N 6.P 9 P t.x.6.t.t.t...k ",
"= = = * % % % $ + + % = = 9 Z : 9 P 9 9 N 9 : = $ % 2 ..P 9 = * % % = Z ..P P @.h.C.C.x.t.P P P ",
"% % % % % % % % % + % * = 9 9 9 P P 9 P ..P 9 = $ * 9 P P N 9 2 = * 2 ..@.....t.@.P h.N.N.6.P s ",
"% % $ % % @ % % % @ @ % 2 2 9 N ..@.P 6.h.h.P : * 2 N k P P ..k = 2 N ..t.6.6.6.d : 6.N.N.6.P : ",
"% @ + + + + + @ % + + @ 2 2 N 9 ..t.@.N.E.C.6.P Z Z N P @.t.P 9 2 k P @.C.t.P P P P 6.N.t.1.: % ",
"+ O O + + O + + + + + @ * = 2 = ..C.C.E.W.E.N.t.h.t.@.t.h.h.P 9 = N P ..t.6.1.P P 1.6.6.1.: & % ",
"O O O + O O O O O + + + % * * = P C.E.!.!.!.E.J.N.N.C.C.C.h.P : = N P P P @.6.P P ..1.P s % % = ",
"% + O O X X O O + O O + @ @ * 2 P t.d.N.E._.^.R.K.R.E.L.C.6.& % 9 N ..6.t.h.N.d.6.s & % % % % = ",
"@ + O X X X X X O + + + @ * - 2 P 6.6.N.R._.).!.R.R.E.C.6.s & = N P @.t.h.N.N.6.6.P % % % % % % ",
"O + + X . X   X O + + + @ * 2 k P ..t.C.R._._.(.^.R.K.N.P = : k P P @.t.h.C.N.6.6...= % % % % % ",
"* % + X . X . o + # @ + @ * * 2 9 P 6.L./.`._.!.!.K.r.N.P = 9 N P P @.t.C.N.N.r.r.6.9 % % @ @ @ ",
"% + O . . o o o + # @ @ * * 2 N ....C.W.^.).!.R.!.K.r.N.1.: d P 6.h.C.P.C.C.C.r.6.6.: = = % % % ",
"@ O . . . o o + + @ @ % * g Z :.:.t.P.W.!.R.K.K.R.R.r.r.1.s P t.C.E.W.W.L.E.E.N.6.P 0 9 9 = % % ",
"% + O X O + + + + + @ * g Z :.@.6.6.6.6.N.R.R.!.E.R.R.r.1.P C.E.E.^.!.R.R.E.!.K.r.1.s 9 9 = % + ",
"= @ O O O + @ + + + * 2 N ....P P P P 6.d.J.R.!.K.N.N.6.6.h.L.E.E.!.R.R.R.!.!.J.r.1.P P 9 9 9 = ",
"2 % O + + + @ + + @ * g Z P P P 9 9 P 6.t.N.R.R.r.6.6.6.N.L.L.R.E.R.R.R.!.!.R.R.r.,.6.P 9 N ..@.",
"2 % @ + @ @ % @ + @ % 2 N N P @.9 = : P h.E.R.K.4.1.1.6.t.N.L.R.R.E.R.R.).(.!.R.r.,.1...P N P ..",
"= % % @ @ @ @ % @ @ % = 9 P @.P P 9 9 N P 6.r.r.6.4.6.h.N.r.C.E.W.^.^.!.!.!.R.R.r.,.d s m 9 9 N ",
"% % % % @ @ @ * % @ % * 2 N ..9 k P 9 9 9 P 1.6.6.6.6.C.N.r.N.W./.^.^.^.K.R.R.K.r.,.0 : : 9 : 9 ",
"$ % * * * * * 2 2 * * = = 9 9 = % % = 9 P ......6.P s d 6.C.C.E.!.R.R.R.K.I.R.J.r.P P P 9 9 = % ",
"% % * = 2 g g N Z 2 = = % % * % % = = 9 9 9 9 9 @.d : 9 @.C.C.R.R.!.R.K.K.K.R.N.6.1.P P N 9 2 = ",
"= % % 2 N Z N @.t.9 9 = $ $ % * * * 2 2 : = % % N 9 = 9 ..h.C.N.K.!.R.r.K.J.I.r.6.4.s x ..9 2 2 ",
"g 2 = 9 N @.t.t...P 9 9 = * * * * % = = = % = = : = = : ..h.N.N.N.R.R.K.R.R.J.N.6.6.s s N 9 = % ",
"2 2 2 k ..t.t.6.P P P 9 = = 2 2 * * = = = % = 9 9 9 9 9 P 6.t.6.r.R.R.R.E.R.K.r.1.d = = 9 = % % ",
"= 2 2 9 ..t.6.1.1.1.P P : 2 9 N g 2 = * = = 2 N N P ..P P P _ 6.6.R.R.R.R.R.K.1.s : % % = % % = ",
"2 2 2 2 ..t.P ..6.t.6.@.t.@...:.@...k 9 2 N N P P @.P P 9 9 9 P h.R.K.r.r.r.r.s : = % = = % = = ",
"= 2 k k ..t.P 6.@.t.6.6.h.t.@.t.h.t.P P N N 9 9 N P P P 9 9 9 N @.N.r.4.1.d s 0 = % % % = 2 9 9 ",
"= 2 N N @.6.@.6.t.t.t.6.t.t.6.N.C.C.6.6.6.9 9 9 9 P P 9 9 9 2 9 N @.P s = % % = % $ + % = N N 9 ",
"k N Z :.@.P h.C.L.E.N.6.t.N.C.N.E.W.r.N.N.1.P P ..P P 9 N 9 % = N P s = % % % % $ + O % g :.@.P ",
"....:.D.C.N.N.N.R.E.R.N.N.L.W.R.^./.R.N.N.6.6...@...P 9 9 9 % = k 9 = % = = = * % % + * k ..@.6.",
"t.t.x.E.W.E.r.N.L.E.R.J.C.E.^.R.^._.^.R.r.t.6.6.6.@.P 9 9 = = = 2 = % % = = = 2 = * * 2 k ..t.h.",
"E.E.W.E.R.K.r.N.L.C.C.R.^.^.^.^.^.(.R.K.r.6.1.d 1.P P ..9 = 2 = = = % % * = 2 = * % Z @.:.P.P.C.",
"/.^.!.R.R.K.r.N.N.N.N.R./.^.!.^.!.R.K.r.r.6.1.d 6.6.@.@.9 = 2 = = 2 = % % * = = = 2 @.t.x.E.W.W.",
"_.^.R.R.K.N.N.6.1.6.N.R./.^.R.!.R.K.r.r.r.r.1.P 6.d.d.1.9 = = = = 2 2 = $ % * % = N @.t.C.R.^._.",
"^.!.R.N.1.s 6.1.s t.E.^._.!.K.!.E.N.4.1.4.6.P d 6.t.6.P : % = = = = = = + + @ * 2 Z ..P 6.C.!.^.",
"E.R.K.4.,.d P d s 6.C.E.E.R.K.R.J.r.1.1.1.6.P s 6.6.P s = % % % % % % $ O O + * = 2 2 9 P C.L.K.",
"R.N.r.,.d P 9 9 d ..6.6.N.N.K.R.N.4.6.6.6.6.P s P s : = % % % @ + + O O X X O @ % % % 2 ..C.N.1.",
"E.N.r.P : % % : P k P P 6.r.r.N.r.6.N.L.L.6.P 9 = $ $ + O O @ @ @ + O O X X o + @ % % = N C.N.6.",
"L.6.d & % % % = 9 9 P 6.N.r.6.6.4.6.6.6.6.P d 9 % O X O + + @ % % @ + O O O O @ * * % = N t.6.P ",
"N.P & $ $ % = = = 9 ..N.N.r.6.1.1.1.d d s : : = $ O X + @ @ % % % % + O + + + @ * 2 * 2 N N 9 s ",
"P : % 9 2 = = = % 2 P 4.6.6.1.1.d s : s 9 % % % $ + @ @ % % * % % % + O O + + + % 2 = = 2 = 9 d ",
"= = = ..N 9 N 9 2 k N P 1.P d s P P s 9 = % $ % % % @ @ + + % @ + + + O + + @ @ * * 2 9 k 9 9 9 ",
"% = 9 :...N ..Z N N N d P s 9 = P t.P : % % $ $ 2 = + + O O + + + O O + + @ @ - * * 9 ....N 9 = "
};
