/* XPM */
static char *_5aa31e6a2d64875a0eb17999ea7e49a[] = {
/* columns rows colors chars-per-pixel */
"53 48 221 2 ",
"   c #0A0C06",
".  c #0D0D0C",
"X  c #050504",
"o  c #110F0D",
"O  c #0E110A",
"+  c #0D1106",
"@  c #11120D",
"#  c #15190D",
"$  c #151412",
"%  c #191514",
"&  c #1B1A15",
"*  c #1D1C1A",
"=  c #211C13",
"-  c #211E1C",
";  c #2C1A1A",
":  c #39191A",
">  c #3C0E17",
",  c #1D2213",
"<  c #1F231B",
"1  c #232316",
"2  c #24221D",
"3  c #2A251D",
"4  c #2C2B1D",
"5  c #262A1A",
"6  c #32261C",
"7  c #302C1E",
"8  c #2E311C",
"9  c #371B20",
"0  c #252421",
"q  c #292623",
"w  c #2B2A25",
"e  c #2E2C2A",
"r  c #272820",
"t  c #332B25",
"y  c #312E2B",
"u  c #3B2D2A",
"i  c #352623",
"p  c #2F3225",
"a  c #333224",
"s  c #34322C",
"d  c #3A342D",
"f  c #3B3A2D",
"g  c #37372A",
"h  c #363431",
"j  c #393633",
"k  c #3C3934",
"l  c #3E3C39",
"z  c #4C0716",
"x  c #470E14",
"c  c #44171B",
"v  c #58191D",
"b  c #67151D",
"n  c #6D1A1F",
"m  c #481C23",
"M  c #551B23",
"N  c #6B1724",
"B  c #781D26",
"V  c #492727",
"C  c #5B2526",
"Z  c #41332A",
"A  c #5A3A27",
"S  c #433331",
"D  c #413D35",
"F  c #413E3A",
"G  c #4A3735",
"H  c #583A36",
"J  c #722523",
"K  c #7B2829",
"L  c #7E322A",
"P  c #783728",
"I  c #652B32",
"U  c #6A373A",
"Y  c #793738",
"T  c #692825",
"R  c #5B281B",
"E  c #3B4529",
"W  c #454136",
"Q  c #44413C",
"!  c #4A453D",
"~  c #4D4A3E",
"^  c #4A4936",
"/  c #52453A",
"(  c #51412A",
")  c #614428",
"_  c #68462A",
"`  c #664638",
"'  c #705035",
"]  c #464441",
"[  c #494642",
"{  c #4D4A44",
"}  c #4E4C49",
"|  c #524D44",
" . c #514E4A",
".. c #554741",
"X. c #555245",
"o. c #5B5043",
"O. c #55524C",
"+. c #59544D",
"@. c #5D594D",
"#. c #575551",
"$. c #595651",
"%. c #5E5A55",
"&. c #5E5B58",
"*. c #635A4D",
"=. c #635D54",
"-. c #615E59",
";. c #6D5C51",
":. c #6D4947",
">. c #6B6255",
",. c #65615B",
"<. c #69645C",
"1. c #696357",
"2. c #726A5D",
"3. c #716759",
"4. c #76614E",
"5. c #6D6A64",
"6. c #6A6661",
"7. c #736E65",
"8. c #726E68",
"9. c #76726B",
"0. c #7A756D",
"q. c #7B7367",
"w. c #7B7770",
"e. c #7D7972",
"r. c #822324",
"t. c #822429",
"y. c #8C2B2A",
"u. c #892928",
"i. c #952D2A",
"p. c #982F2B",
"a. c #85342B",
"s. c #8A372C",
"d. c #9C322B",
"f. c #95362C",
"g. c #8D3D38",
"h. c #A2372D",
"j. c #A43A2E",
"k. c #AA3D2F",
"l. c #AA3F30",
"z. c #8F412E",
"x. c #964734",
"c. c #82573F",
"v. c #875533",
"b. c #975B36",
"n. c #8D4635",
"m. c #AD4131",
"M. c #A74B33",
"N. c #B14332",
"B. c #B94B35",
"V. c #B64A35",
"C. c #A35637",
"Z. c #BA5638",
"A. c #956635",
"S. c #8A6832",
"D. c #AB693D",
"F. c #A06B38",
"G. c #B2713E",
"H. c #BA793F",
"J. c #AC713C",
"K. c #C35338",
"L. c #CA5A3B",
"P. c #D2643E",
"I. c #894646",
"U. c #8C5452",
"Y. c #A65746",
"T. c #886E57",
"R. c #B17350",
"E. c #866561",
"W. c #837A6C",
"Q. c #8B756B",
"!. c #96756E",
"~. c #817D75",
"^. c #887F72",
"/. c #94746A",
"(. c #C07F40",
"). c #DB6D41",
"_. c #B3833D",
"`. c #D28B3F",
"'. c #CA873F",
"]. c #8D8475",
"[. c #85817A",
"{. c #938A7A",
"}. c #99897C",
"|. c #B7906D",
" X c #B98B5B",
".X c #C88942",
"XX c #C38542",
"oX c #CB9243",
"OX c #D09345",
"+X c #D89D47",
"@X c #D59A46",
"#X c #DFA648",
"$X c #D9A045",
"%X c #E4AD49",
"&X c #EDB94A",
"*X c #EBB54A",
"=X c #DDAE68",
"-X c #F0C44D",
";X c #F3CE51",
":X c #F6D954",
">X c #F4D252",
",X c #9B9384",
"<X c #9B968B",
"1X c #8F8A82",
"2X c #A58E84",
"3X c #A89A8B",
"4X c #B79F99",
"5X c #ACA493",
"6X c #AEA99C",
"7X c #B2AC9D",
"8X c #B9A787",
"9X c #BAB3A1",
"0X c #C1BBA9",
"qX c #C5C0AE",
"wX c #CAC5B4",
"eX c #CAC5B6",
"rX c #D2CEBC",
"tX c #E0CBA3",
"yX c #DBD7C6",
"uX c #E8E6D6",
"iX c #F9F8EB",
/* pixels */
"l 0 0 k O.O.h s s +.q.@.y 2 r w 2 & 2 f ~ { O.+.s w F w e  .} { F F  .F D 0 q q 0 3 ..@.F Q k $.$.[ k s k ",
"2 $ . - F ] h 0 y l +.@.X.! j s q 2 g { | { { l y 0 % @ e { Q ] l Q { [ a 1 t s j g D Q Q h q e h l { s * ",
"- & o % e e 0 - q w F [ @.1.@.~ f a W ! { } F e w e * % y [ l k s e e d t 1 g W | ~ | [ { h s k Q ] { l % ",
"& * & % % % % % 2 0 l  .%.8.5.=.X.^ ^ ! l ] [ k y e * & j k e s q 2 0 3 4 1 g !  .%.$.] [ { Q Q $.[ F k * ",
"% 0 w w * - 2 w k k  .9.w.,.O. .@.X.~ k h l [ F j e * q l F Q k j k F k 7 4 s F [ $.5.,.-.,.O.Q Q s 0 0 & ",
"% * w j r 1 w e [ O.9.5.<.-.$.] Q l a 2 - * * 0 e F y 0 y k h k ] ] s { ! D D k ] #.,.8.w.%.[ s * % & % % ",
"& 2 w y w 5 3 r Q { } F { %.&.$.{ f , , ~ 6.% * e m c > y +.<X6X5.k q k O.-.$.{  .$.$.-.5.O.F 0 % & w 2 & ",
"& q e w g a t s j h F h F O.O.,.O.W , ~ ].~ * - 9 r.y.y.H {.0XyX2.w 0 d -.0.0.9.-.} { O.{ ] h 0 0 s ! Q w ",
"4 k { +.~ D f F $.6.%.} { &.O.] F { X.o.W.3 5 r L N.L.L.y.U W.6 - 0 s Q w.1X<X1X-.e w 0 % h e 2 2 k Q  .W ",
"1.| k ! ~ W k D [ { }  .] { Q e x.L.L.k.p.J 6 x r.N.% L.N.L o * 0 w y  .,.%.,.#.l - @ . . w s q 2 k D k X.",
"=.<.-.,.%.| ! D e [ h y e 2 * > V.L.L.N.k.r.6X].Y d.% N.d.T O . % - l $.{ l F [ ] 0 . . . * e 0 % w w Q =.",
"k k Q Q h h l Q +.Q j e * % v Z.Z.).L.N.j.u.}.rXE.I.Y.R.I.x c V : w y y y 0 * * e j h 0 * & & & & y D D F ",
"q 2 0 2 % & e F Q k s j 0 - x.P.C z.L.k.d.y.:.{.3.>.W.0XQ.N k.V.u.c w =.X.2 & 2 w e k h q & & r g ! | ! k ",
"1 & * & & % - s e w w q k >.Y.L.P % z.j.p.f.' *.o.A A {.I y.N.L.B.u.: rX9X| q 0 * @ * e 2 & 1 j Q  .,.=.F ",
"t d s 0 & # @ * w e j 3 D >.n.N.B.L J i.u.a.G.) ' D.A 5XU.y.N.P M.B.z =.=.! & % @ .   % & & t Q } { -.,.Q ",
"Q [ Q s & + # 2 * 0 j w s ! C y.h.h.d.t.L C.R.) A.H.6 rX!.K a.; a.k.z # 1 2 $ . O       O 1 d k Q O.,.-.[ ",
"-.{ Q j 5 # & s 2 * e y k l m K i.i.i.L b.G.(.F.G.) 6X9X/ C u.J i.p.z   & , O   O @ @ @ * Q ..! F ] [ { $.",
"6.O.[ [ ! g a k q 2 e h k t ;.!.` C.C.C.H.XXOXOXOX6 0X Xv.v.x.B B U 4X= 2 & O   & p f g W +.,.O.Q e e Q 6.",
"5.#.l h [ %.$.Q * q 2 6 2.yXrX9Xo.D.D.(.(..X+X+X%X6 6 +X(.H.v.,X9X2.uXrX4 6 z z H 2.^.7.X.D k s q q Q -.-.",
"] &.&.} #.5.&.{ ! D 7.iXuXrXrXrX=.D.D.(.(..X+X%X&X6 +X+XOXH.v.,X9X2.rXuX: n B.L.J G -.! h j d s j l { { s ",
"l y h { #.%.%.O.6 6X7.3 t ;.7XyX{.v.D.XX.X#X&X&X;X-X-X&XoX|.rX}.!.;.qXuXB h.V.Z.Z.B.n s F ,.7.-.] e y k F ",
"[ j w w 0 l %.,.6 Z t - d {.5X9XyX6 D..X+X#X&X&X>X:X:X&XS...Q.K t.U {.rXY t.L C s.N.n %.<.5.8.7.%.e h }  .",
"e s e y h [ $.5.D +.j W {.9XW.W.wXo.|.oX+X#X&X>X:X:X:X-X' _ T l.B.f.' rX!.C c c a.d.b ~.9.5.8.7.,. .%.O.k ",
"0 * - h O.-.<.5.%.[ ! <XyX9X].3.W.{.qX_.+X#X;X:X:X:X:X:X&X`.h.K.L.B.N.qX{.` u.p.p.r.C -.%.<.,.%.5.0.5.$.F ",
"0 % * j #.$.O.{ s t qXuXwX3X:.U I q.o.Z S.#X;X:X:X:X:X:X&X`.h.K.P M.N.5XW.;.U.B N m j k k F Q  .-.-.-. .k ",
"0 w w j ] j h j 0 6 yXwX{.:.x.Z.N.Y.M A._.#X;X:X:X:X:X:X&X`.p.N.f.d.h.}.3.{.9X3X` i e s q e k Q F F {  .w ",
"e ] ] l e * & * 3 W.wX{.G a.P Z.P.K.f..X+X#X;X:X:X:X:X:X&X'.K d.h.d.B ].>.,X0XyX>.f k w % w y e e w j { e ",
"l O. .k * % % * 6 5X5Xq.V j.C.P M.L.h..X+X#X&X>X:X:X:X:X&X$Xb.u.i.r.!.>.].q.W.yX2.t q % . q w 0 - $ - h s ",
"&.} k 0 % * q h 6 ].3 9 b k.K.L.B.d.d..X+X#X&X;X:X:X:X:X&X%XOX(.) ,XrX5X].W.<.| 6 % . $ & h y 0 * % * w O.",
"<.9.%.h j F } O.6 ].d G b d.k.N.h.y.N ) .X#X&X&X;X:X:X&X&X%XOX(.) 6XrX5X>.d { Q y 2 % * % % o . $ 0 s [ +.",
"{ %.} j h l h F t t O./ C K u.y.a.I {.7X/.=X%X*X-X:X;X&X*X%XOXH.T.7X2X|.A V u s f s 2 q * & 2 0 2 h Q  .k ",
"h l k q 2 2 0 e s e e e j :.U.I.U H H ,XrXtX+X%X*X;X&X&X%X@X.Xb.3X2XJ L.V.f.v ; j D f f t s k k w y F Q j ",
"h s s w * $ $ - 2 % @ % k 7XwX5XI.y.y.' ,X8XoX+X%X&X&X%X+XXXv.' E.I.P.P.K.l.y.v S ~ | ! ! | { k w s j y j ",
"h 0 e j q & % % @ % w D ].eX2X/.Y.z.P.n.` T.A.@X%X%X%X+X@XJ.A T.I.m.P.C.B.m.j.K G +.1.*.@.=.| f q k [ [ Q ",
"[ w & 2 e s s y q w k =.,Xo.I t.m.% P.y.L v.A.XXOX+X+X.XXXH.b.A a.h.N.% l.d.r.v / 2.w.*.~ X.| Q Q -.8.,.[ ",
"l 0 % $ - e y y y 0 q Z ! t M N d.L B.g.E._ J.R.XX.X.X'.H.b.4.3XU.d.h.J h.y.Y Q.1.1.7.+.! =.1.O.+.5.6.%.l ",
"* 2 * % % * 0 w s w 3 t y V s.V.Z.h.t.Q.3XQ.b.G.G.G.G.G.G.R.5XW.H v b b b Y 2XeX2.! O.! k %.,.=.$.O.] ] j ",
"e s w 2 + + * e q w w e i r.k.K.L.N.N./ }.W.v.D.D.D.D.D.` o.W.t u u u u 6 / }.9X=.y j k f $.9.6.O.w * q j ",
"$.l k p # @ & 2 2 - q 2 ; B j.N.N.d.N.t o.W.` c.c.c.c.c.` 6 t S u u u S S u 6 o.o.f D -.| O.-.O.s & * w [ ",
"j y k f ,   O % o @ % - S u J p.d.y.z S u 6 4 ` c.c.c.#.u i S y u S S - t 2 D G i u ! %.%.k w j Q h 2 0 h ",
"% & 2 5 # % - 3 1 1 s j s d m c c c u = o t u s k F ,.O.[ G u 0 e D S s q y Q Q d u d ! { { [ O.-.%.h * $ ",
"@ 1 t r 1 q s D D Q ! Q { D t u u q w $ X o t f l Q $.F $.O.! { -.,.| | s s t q 3 w y u s O.,.<.-.[ y 2 & ",
"r j Q W f D ! { { [ Q h F d 5 1 , o . - X X & p s l &.{ k [ } -.7.7.9.1.! ! D y r w w 2 - j Q Q Q s 0 q s ",
"! ! Q | { F l D [ F 0 0 s 8 1 * % . $ $ . . 0 d Q [ k s 0 0 q h k Q +.<.7.1.| { W f s 2 & e w 2 1 2 w q k ",
"-.-.%.-.| k 4 1 y w % & 7 5 1 5 2 . $ $ . . * w j h w w % & 0 s y y [ ,.q.1.| { ..! f - - j Q ! { Q Q Q { ",
"1X~.~.w.+.| f 4 t w = = 4 5 , 5 r & % $ . . * 5 s w 2 - % * 0 Q Q j s j Q ! D s ! | D = 3 ! | O.,.9.5.<.e.",
"w.w.9.0.$.{ ! W k t = & 1 & @ # 2 e y * . . & 0 2 & @ % - 0 y {  .O.j 2 & - 2 2 D @.! 1 w ! Q k Q ,.~.~.[.",
"6.&.$.#.$.Q Q O.3 3 4 g f r - & e E g e % . $ % * < p s e 0 0 q j Q | Q t w , 1 D +.*.W ! k w 2 q l +.,.-."
};
