/* XPM */
static char *_11d00dfc0114ee993ad9103ed9c67ec[] = {
/* columns rows colors chars-per-pixel */
"48 48 98 2 ",
"   c None",
".  c #222222",
"X  c #2B2523",
"o  c #302722",
"O  c #342723",
"+  c #392A23",
"@  c #3D2C23",
"#  c #29333A",
"$  c #2A353D",
"%  c #2B363E",
"&  c #4F2F25",
"*  c #663C23",
"=  c #7D3B28",
"-  c #41403F",
";  c #41413F",
":  c #33495B",
">  c #3A586F",
",  c #3C5D77",
"<  c #454443",
"1  c #464544",
"2  c #474644",
"3  c #605F5F",
"4  c #615F5F",
"5  c #745F57",
"6  c #63625F",
"7  c #4A657A",
"8  c #6B6966",
"9  c #934826",
"0  c #AA5625",
"q  c #816755",
"w  c #85837E",
"e  c #86837E",
"r  c #A8897F",
"t  c #B08E7B",
"y  c #BD967A",
"u  c #C3997D",
"i  c #416184",
"p  c #47769B",
"a  c #5956BD",
"s  c #5958BD",
"d  c #595BBE",
"f  c #5E5ABE",
"g  c #595CBE",
"h  c #595FBF",
"j  c #5373B8",
"k  c #5861C0",
"l  c #5D64C0",
"z  c #5777C5",
"x  c #5871C3",
"c  c #5872C3",
"v  c #5877C4",
"b  c #577CC6",
"n  c #577DC6",
"m  c #6763C1",
"M  c #706CC4",
"N  c #706EC4",
"B  c #6F75C6",
"V  c #6F76C6",
"C  c #4D84B0",
"Z  c #7382A6",
"A  c #5784C7",
"S  c #568DCA",
"D  c #5B88C9",
"F  c #5693CB",
"G  c #5698CC",
"H  c #6584C8",
"J  c #6E9ACE",
"K  c #818485",
"L  c #949194",
"P  c #9D9AAE",
"I  c #BEBAB3",
"U  c #C09889",
"Y  c #DBA887",
"T  c #8581C6",
"R  c #818FCD",
"E  c #8790C6",
"W  c #9D99D1",
"Q  c #9CBAD8",
"!  c #A6A2C8",
"~  c #ABA6D5",
"^  c #ABA7D5",
"/  c #ABACD6",
"(  c #AAB7D9",
")  c #B6CBCF",
"_  c #AAC2DB",
"`  c #BCCFD2",
"'  c #C8C3CA",
"]  c #D5D3CD",
"[  c #D8D3CB",
"{  c #D9D4CB",
"}  c #C2C4D9",
"|  c #C2C4DA",
" . c #CBC6DE",
".. c #CBC8DF",
"X. c #C6D3D3",
"o. c #D4DDDB",
"O. c #D4DDDC",
"+. c #CACFE0",
/* pixels */
"                                                                                                ",
"                                                                                                ",
"                                                                                                ",
"                                                                                                ",
"                                                                                                ",
"                                                                                                ",
"                                                                                                ",
"                                                                                                ",
"                                                                                                ",
"                                                                                                ",
"                                                                                                ",
"                                                                                                ",
"                                                                                                ",
"                                                                                                ",
"                                                                                                ",
"                                                                                                ",
"                                      . . . . . . . . . .                                       ",
"                                    . X O O + @ @ @ @ @ o .                                     ",
"                                    . & = = 9 0 0 0 0 0 * .                                     ",
"                                    . 5 U r t y y y u Y q .                                     ",
"                                    . e ] X.` ) ) ` X.] e .                                     ",
"                                      ; 6 ] o.) ) O.] 6 ;                                       ",
"                                      . 2 { } E E } [ 2                                         ",
"                                      ; 4 ' ~ M f W ' 4 ;                                       ",
"                                    . e ' T ~  .M m T ' e .                                     ",
"                                  ; e P ~ ~ ~ W m a m W Z > #                                   ",
"                                . 2 { / V ..~ M f g g s z C %                                   ",
"                                . 2 { _ D V ~  .M c A g z C %                                   ",
"                                . 2 { ( c s R Q H v c s z C %                                   ",
"                                  < I ! M l b G G b k k j p %                                   ",
"                                    < L +.J F G G F S S i %                                     ",
"                                      8 K 7 , , , , , , :                                       ",
"                                        . . . . . . . .                                         ",
"                                                                                                ",
"                                                                                                ",
"                                                                                                ",
"                                                                                                ",
"                                                                                                ",
"                                                                                                ",
"                                                                                                ",
"                                                                                                ",
"                                                                                                ",
"                                                                                                ",
"                                                                                                ",
"                                                                                                ",
"                                                                                                ",
"                                                                                                ",
"                                                                                                "
};
