/* XPM */
static char *e491c5cd5e624759a75603e287bb6fe4[] = {
/* columns rows colors chars-per-pixel */
"48 48 240 2 ",
"   c None",
".  c #111111",
"X  c gray7",
"o  c #131313",
"O  c #151212",
"+  c gray8",
"@  c #171514",
"#  c #1B1513",
"$  c #1D1614",
"%  c #181818",
"&  c #1B1B1B",
"*  c gray11",
"=  c #1D1D1D",
"-  c #1E1D1D",
";  c gray12",
":  c #201516",
">  c #221814",
",  c #231814",
"<  c #231815",
"1  c #251815",
"2  c #261915",
"3  c #251A17",
"4  c #201B1C",
"5  c #241D1C",
"6  c #35211B",
"7  c gray13",
"8  c #232020",
"9  c #222222",
"0  c #232322",
"q  c #232323",
"w  c #252322",
"e  c #272223",
"r  c #242423",
"t  c #252424",
"y  c #272525",
"u  c #272625",
"i  c #242727",
"p  c #2E2320",
"a  c #292522",
"s  c #2B2423",
"d  c #2D2224",
"f  c #292624",
"g  c #282626",
"h  c #292726",
"j  c #282727",
"k  c #2A2727",
"l  c #272628",
"z  c #2B2828",
"x  c #2C2828",
"c  c #2C2928",
"v  c #2C2A28",
"b  c #2D2B29",
"n  c #2E2A29",
"m  c #2F2A2A",
"M  c #2F2B2A",
"N  c #2E2C2B",
"B  c #2F2C2B",
"V  c #2D2D2C",
"C  c #312623",
"Z  c #302524",
"A  c #3B2126",
"S  c #3D2227",
"D  c #3D2A24",
"F  c #302B2A",
"G  c #302B2B",
"H  c #302C2B",
"J  c #332C2A",
"K  c #322C2C",
"L  c #332D2D",
"P  c #312F2D",
"I  c #342E2D",
"U  c #352E2E",
"Y  c #352F2E",
"T  c #35302E",
"R  c #35312F",
"E  c #37302F",
"W  c #37312F",
"Q  c #293130",
"!  c #2D3B3A",
"~  c #343433",
"^  c #383130",
"/  c #393130",
"(  c #383330",
")  c #3B3331",
"_  c #3C3332",
"`  c #3C3333",
"'  c #393431",
"]  c #383432",
"[  c #3A3532",
"{  c #3F3B37",
"}  c #3B363F",
"|  c #3F3C38",
" . c #46251B",
".. c #5B2C1F",
"X. c #4D2C22",
"o. c #4D2A27",
"O. c #4E2D24",
"+. c #4F2E25",
"@. c #542D21",
"#. c #57232D",
"$. c #5B2429",
"%. c #5E3127",
"&. c #403635",
"*. c #423736",
"=. c #413836",
"-. c #433837",
";. c #443837",
":. c #453A37",
">. c #463A37",
",. c #403B38",
"<. c #453938",
"1. c #473A39",
"2. c #403C39",
"3. c #413D3A",
"4. c #443B3F",
"5. c #483B3A",
"6. c #493C39",
"7. c #493C3A",
"8. c #4A3D3B",
"9. c #493F3A",
"0. c #4C3E3B",
"q. c #4C3F3B",
"w. c #4D3F3C",
"e. c #4D3F3D",
"r. c #6A2F2A",
"t. c #693222",
"y. c #6B3424",
"u. c #6B3425",
"i. c #6E3727",
"p. c #683129",
"a. c #743426",
"s. c #743827",
"d. c #7A3825",
"f. c #73312B",
"g. c #79322C",
"h. c #33413F",
"j. c #46403C",
"k. c #4D433E",
"l. c #4F463F",
"z. c #50413D",
"x. c #50403E",
"c. c #50413E",
"v. c #50413F",
"b. c #364F4D",
"n. c #434443",
"m. c #4F4544",
"M. c #544341",
"N. c #524742",
"B. c #554541",
"V. c #564541",
"C. c #564542",
"Z. c #544742",
"A. c #544743",
"S. c #584743",
"D. c #514A43",
"F. c #544840",
"G. c #594B45",
"H. c #5C4945",
"J. c #5D4A45",
"K. c #5C4946",
"L. c #5F4B46",
"P. c #5F4B47",
"I. c #5B4F47",
"U. c #57514A",
"Y. c #4E5D5B",
"T. c #5E5251",
"R. c #595755",
"E. c #624E49",
"W. c #634E49",
"Q. c #624F49",
"!. c #654F4A",
"~. c #60534A",
"^. c #62564E",
"/. c #66574E",
"(. c #69524D",
"). c #69574F",
"_. c #6C544E",
"`. c #66584E",
"'. c #69584F",
"]. c #6F5650",
"[. c #6F5751",
"{. c #635850",
"}. c #695950",
"|. c #6C5A52",
" X c #6E5C55",
".X c #6C635A",
"XX c #716055",
"oX c #766258",
"OX c #70645A",
"+X c #79645A",
"@X c #73685F",
"#X c #7E6A5D",
"$X c #436D6A",
"%X c #4A7C78",
"&X c #7A7065",
"*X c #7B7166",
"=X c #7C7975",
"-X c #7D7B76",
";X c #853C27",
":X c #84392B",
">X c #836E61",
",X c #836F62",
"<X c #826E63",
"1X c #887264",
"2X c #86796D",
"3X c #937B6B",
"4X c #927F70",
"5X c #98806F",
"6X c #998272",
"7X c #9F8473",
"8X c #AA8D7A",
"9X c #AB8E7B",
"0X c #AC917E",
"qX c #AD917E",
"wX c #5A9F99",
"eX c #5A9F9A",
"rX c #6BBEB7",
"tX c #78BCB6",
"yX c #77CAC2",
"uX c #9E9080",
"iX c #9F9181",
"pX c #8B9993",
"aX c #B09481",
"sX c #B19582",
"dX c #B29885",
"fX c #B49A86",
"gX c #B39D8A",
"hX c #B09E8C",
"jX c #B4A18E",
"kX c #BBA28E",
"lX c #B5A290",
"zX c #B5A592",
"xX c #B6A593",
"cX c #BFA692",
"vX c #C6B09B",
"bX c #CCB7A1",
"nX c #D3BFA9",
"mX c #83D6CE",
"MX c #C5CFC7",
"NX c #C7D4CC",
/* pixels */
"                                                                                                ",
"                                                                                                ",
"                                                                                                ",
"          ' 3X8XaXbXnXnXnX&X9 9 9 9 9 9 9 9 9 9 9 9 9 9 9 9 9 9 3.zXnXzX| `.8X8X/.9             ",
"        l.XX7XfXgX2X&X&X&X{.w.w.E g :.w.w.w.E g :.w.:.g E w.w.w.V.@X&X.XK OXkX0X1X~.E           ",
"      ( XX8XaXgXuXj.J J J x.].].7.n E.].].].7.n E.].E.n 7.].].].E.n g J J @XlXdX0X3X' 9         ",
"    ( >X7XaXvX2Xj.E.(.(.(.H.x.x.( g 5.x.x.x.( g 5.x.5.g ( x.x.x.5.g :.(.(.V.U.lXkX3X' 9 9       ",
"  `.`./.4XgX2X{.w.0.V.H.H.7.U U z t K U U U z t K U K t n U U U ( 7.V.H.H.V.V.@XOX/.`.`.`.      ",
"  8X5XD.&XuX,.0.E.n K *.*.K 9 9 9 9 9 9 9 9 9 9 9 9 9 9 9 9 9 9 G H.V.*.*.S.E.U t ' 6X0X8X      ",
"  8X0XjX&X,.-.7.5.g t g g t                                       G n g g ` w.:.K { hXkX8X      ",
"  cXgX2X{.7.( U G * *                                                     n ` S.V.V.@XOX/.      ",
"  zXuX,.0.!.( g * +                                                       9 n H._.E.U t 9       ",
"  | ,.-.7.M.!.:.* +                                                       9 r n *.w.:.K 9       ",
"  9 g *.5.7.0.J % X                                                         9 9 U 5.5.U 9       ",
"  g n -.5.*.g 5 , O                                                           9 K *.*.K 9       ",
"  *.-.1.5.*.g O.t.,                                                           9 t g g t 9       ",
"  U U U U G * @.d.2                                                             9 g :.w.w.      ",
"  J J J g 9 2 ..d.2                                                             9 n E.].].      ",
"  (.(.(.:.C y.;Xd.2                                                             9 g 5.x.x.      ",
"  H.H.x.E s O.s.d.2                                                             9 g *.5.5.      ",
"  5.*.g Q ! t O.y.,                                                             9 g *.5.5.      ",
"  5.*.g $XwX! s p +                                                             9 g *.5.5.      ",
"  U K t %XyXpXR.* +                                                             9 t K U U       ",
"  g t 9 $XtXMX=X* X                                                             9 9 t g g       ",
"  *.` t Q h.n.V X X                                                             9 t ` *.*.      ",
"  5.1.( n 9 % 6  .#                                                             9 g *.5.5.      ",
"  *.*.*.K 9 2 ..d.2                                                             9 t ` *.*.      ",
"  g g g t C y.;Xd.2                                                             9 9 t g g       ",
"  w.w.w.E Z r.:Xd.2                                                             9 g :.w.w.      ",
"  ].].].7.d #.g.d.2                                                             9 n E.].].      ",
"  x.x.x.( d #.g.d.2                                                             9 g 5.x.x.      ",
"  5.1.( z e S p.d.2                                                             9 g *.5.5.      ",
"  *.` t Q ! t O.y.,                                                             9 t ` *.*.      ",
"  g t 9 $XwX! s p +                                                             9 9 t g g       ",
"  w.:.g %XyXpXR.* +                                                             9 g :.w.w.      ",
"  ].E.n %XmXNX=X* +                                                             9 n E.].].      ",
"  x.5.g %XrXY.~ * +                                                             9 g 5.x.x.      ",
"  5.*.g b.$XQ D X.$                                                             9 g *.5.5.      ",
"  *.` t 9 e C %.a.2                                                             9 g 5.x.x.      ",
"  g t 9 9 C i.f.$.:                                                             9 n E.].].      ",
"  w.w.w.E s O.o.A 4 * 9 9 9 9 9 9 9 9 9 9 9 9 9 9 9 9 9 9 9 9 9 9 9 9 9 9 9 9 9 9 n V.H.H.      ",
"  ].].].x.n r n ' ' ' ' ' n 9 E ' ' ' ' E 9 n ' ' ' E g B ' ' ' ' ' B l E ' ' ' n g *.5.5.      ",
"  x.x.x.H.H.n I.3X3X3X3X3XF.s #X3X3X3X3X#Xs F.3X3X3X>X3.^.3X3X3X3X3XT.} >X3X3X3XI.g *.5.5.      ",
"  5.5.5.M.H.x.G.}.oX+X+X+X7.g '.+X+X+X+X).g 7.+X+X+X|.' N.+X+X+XoX}.m.4. X+XoX}.k.( 1.5.5.      ",
"  *.*.*.*.5.E.:.t ` *.*.*.K t ` *.*.*.*.` t K *.*.*.` t K *.*.*.` t K *.*.*.` t K *.*.*.*.      ",
"  g g g g g n g 9 t g g g t 9 t g g g g t 9 t g g g t 9 t g g g t 9 t g g g t 9 t g g g g       ",
"                                                                                                ",
"                                                                                                "
};
