/* XPM */
static char *f731f6efbba74c5f8177df56beb6a1d6[] = {
/* columns rows colors chars-per-pixel */
"53 48 208 2 ",
"   c #0D0D0B",
".  c #100F0F",
"X  c #0E1209",
"o  c #13150C",
"O  c #100F13",
"+  c #151414",
"@  c #181615",
"#  c #1B1A15",
"$  c #141319",
"%  c #18171B",
"&  c #1C1B1B",
"*  c #171817",
"=  c #26131E",
"-  c #211D1D",
";  c #280F1C",
":  c #1F2217",
">  c #24221D",
",  c #2A251D",
"<  c #2B2A1D",
"1  c #252619",
"2  c #302C1E",
"3  c #1C1C22",
"4  c #1F1F29",
"5  c #231E22",
"6  c #2B1E29",
"7  c #291923",
"8  c #351323",
"9  c #351A25",
"0  c #3C1928",
"q  c #3A1827",
"w  c #252323",
"e  c #2B2524",
"r  c #2C2A25",
"t  c #22222D",
"y  c #2A252B",
"u  c #2D2B2A",
"i  c #272923",
"p  c #332424",
"a  c #312D25",
"s  c #332B2A",
"d  c #3B2D2B",
"f  c #382729",
"g  c #34322D",
"h  c #3B342D",
"j  c #3C3A2C",
"k  c #353427",
"l  c #242532",
"z  c #272936",
"x  c #2B2B32",
"c  c #292C3A",
"v  c #2B2632",
"b  c #332F32",
"n  c #2D323B",
"m  c #353432",
"M  c #393633",
"N  c #3C3934",
"B  c #3D3B39",
"V  c #37353C",
"C  c #2F3220",
"Z  c #411D1F",
"A  c #421726",
"S  c #441829",
"D  c #491A2B",
"F  c #521E2D",
"G  c #551F30",
"H  c #462329",
"J  c #55232B",
"K  c #453025",
"L  c #4C3626",
"P  c #41312F",
"I  c #4A372C",
"U  c #563A2A",
"Y  c #5C2232",
"T  c #5E2C37",
"R  c #572834",
"E  c #423432",
"W  c #413D35",
"Q  c #423E3A",
"!  c #473739",
"~  c #5C3F31",
"^  c #412936",
"/  c #7D313D",
"(  c #79393C",
")  c #6F2D34",
"_  c #3B4529",
"`  c #554128",
"'  c #454236",
"]  c #44413C",
"[  c #4A443C",
"{  c #4C4A3E",
"}  c #4A4936",
"|  c #42412C",
" . c #67442C",
".. c #744F2F",
"X. c #664A37",
"o. c #794C31",
"O. c #704831",
"+. c #7B5631",
"@. c #2F3443",
"#. c #313445",
"$. c #323648",
"%. c #353B4D",
"&. c #3A3A44",
"*. c #393D52",
"=. c #373B50",
"-. c #4A3842",
";. c #36424E",
":. c #3A4154",
">. c #3D4359",
",. c #3F4B5C",
"<. c #3F5260",
"1. c #464442",
"2. c #494642",
"3. c #4D4A45",
"4. c #4E4C48",
"5. c #444048",
"6. c #514C44",
"7. c #524E4A",
"8. c #5F4F44",
"9. c #55524D",
"0. c #59554C",
"q. c #5D594D",
"w. c #555345",
"e. c #41495E",
"r. c #40455E",
"t. c #575551",
"y. c #595651",
"u. c #5D5A55",
"i. c #5F5C58",
"p. c #685747",
"a. c #625D55",
"s. c #615E59",
"d. c #685850",
"f. c #6E5243",
"g. c #65615B",
"h. c #68645B",
"j. c #414760",
"k. c #434B62",
"l. c #464F68",
"z. c #455366",
"x. c #4B5B6F",
"c. c #485469",
"v. c #4C5670",
"b. c #4D5A73",
"n. c #515E78",
"m. c #4F6176",
"M. c #52617B",
"N. c #516579",
"B. c #6D6A64",
"V. c #6A6762",
"C. c #75726B",
"Z. c #7A756D",
"A. c #757067",
"S. c #7B7770",
"D. c #7D7972",
"F. c #716D68",
"G. c #A3372D",
"H. c #8D4230",
"J. c #875B33",
"K. c #875638",
"L. c #955E38",
"P. c #B94B35",
"I. c #896134",
"U. c #976F38",
"Y. c #9D643D",
"T. c #9B7538",
"R. c #AB693D",
"E. c #A8783C",
"W. c #B2703E",
"Q. c #B6793E",
"!. c #973F44",
"~. c #8A3841",
"^. c #835C43",
"/. c #916B57",
"(. c #827D75",
"). c #977863",
"_. c #C07F40",
"`. c #BA903F",
"'. c #AE863C",
"]. c #85817A",
"[. c #C88942",
"{. c #C38942",
"}. c #CD9544",
"|. c #D19445",
" X c #D89D47",
".X c #D59A46",
"XX c #D3A345",
"oX c #DEA548",
"OX c #E4AD49",
"+X c #EDB84A",
"@X c #EAB44A",
"#X c #F1C74E",
"$X c #F3CE51",
"%X c #F6D954",
"&X c #F5D553",
"*X c #566580",
"=X c #586A84",
"-X c #566F82",
";X c #5E748E",
":X c #547183",
">X c #627993",
",X c #667F9A",
"<X c #67829C",
"1X c #6A8AA4",
"2X c #6886A0",
"3X c #6F95AE",
"4X c #74A0B8",
"5X c #908C83",
/* pixels */
"B w w N 9.9.m g g 0.Z.q.s > i r > # > j { 3.w.0.g % $ % u 7.4.3.Q Q 7.Q W w y y w > 3.q.Q ] N y.y.2.N g N ",
"> + . - Q 1.m w s N 0.q.w.[ N g i > j 3.6.3.] x z =X=X=Xz x M 1.B ] 3.2.k > a g j h W ] ] m y u m B 3.g & ",
"- * . @ u u w - w r Q 2.q.h.q.{ j k | [ 3.2.x :.M.1X1X,XM.:.x N g u u h a , k ' 6.{ 6.[ 3.M g N ] 1.3.B @ ",
"* & * @ @ @ @ @ > w B 7.u.A.B.a.w.} } [ N y %.v.>X4X4X1X;Xv.%.w w > w , < , h [ 7.u.y.1.1.3.] ] y.2.Q N & ",
"@ w r r & - > r N N 7.C.S.g.9.7.q.w.B m y t j.M.2X4X4X3X;Xv.>.t u u u N 2 < g Q 2.u.B.g.s.g.9.] ] g w w * ",
"@ & r M i > r r 2.9.C.B.h.s.y.1.] w x.z.5 #.v.*X>X1X1X,X*Xv.j.#.u z.x.y [ W W N 1.t.g.F.S.u.2.g & @ * @ @ ",
"* > r s r 1 , i ] 3.4.Q 2.u.i.y.3.$ =Xm.% t :.b.*X,X,X=Xb.:.l @.4 m.b.$ 9.s.y.3.m y u s.B.9.Q w @ * r > # ",
"# i r r g k a g M M w 3 m 9.9.g.9.$ l.M.t 9 f :.b.=X=Xl.! ( J c 4 x.j.$ s.Z.Z.u.z.:Xm.u 4.1.M w w g [ ] r ",
"< N 3.0.{ W j Q y.$ 1X4X:X2.9.1.Q $ j.5 $.c ) G.Z j.j.$ G.) 4 $.4 >.j.$ S.5XB.@.,X3X4X$ * M u > > N ] 7.' ",
"h.6.j [ { ' N W $ ,X4X3Xm.T A ; e ] n.x.4 c H.P.H j.j.$ P.H.4 4 x.=X$ 7.7.; A T m.3X4X,X$ r g i > N W N w.",
"a.h.s.g.u.6.[ W $ n.1X1Xe.T / !.F $ j.x.4 *.l $ $ n.n.$ $ l >.4 x.b.$ ; F !./ T e.1X1Xn.$ & u > @ r r ] a.",
"N N ] ] M M B ] $ n.,X-X6 S F ) Y $ j.z.@.c *.r.c.;X;Xv.r.*.#.@.z.l.$ G ) ) F S 6 -X,Xn.$ * * # # s W W Q ",
"i > w > @ # u Q $ v.=Xb.5 = 0 F D = $.*Xz.3 c @.*.v.v.>.#.c t z.*X>.= D F S 8 = 5 b.=Xv.$ # # < g [ 6.[ N ",
"> # & * * @ - g $ j.=Xx.5 e 7 8 q q $ b.>.3 3 t c >.>.c t 3 t >.b.z q q 8 7 7 w % x.=Xj.$ # > M ] 7.g.a.Q ",
"a h g w * o o & $ j.z.n s ] N 5 #.x.$ l.>.l l >.c 4 4 $ >.l %.>.l.l x.>.- i & * * x.=Xj.$ # a ] 4.3.s.g.] ",
"] 2.] g # X o > $ j.>.& M 9.b c l.=X$ @.j.%.3 %.l o.o.$ %.3 c j.@.3 =Xn.c % + . + k.M.j.$ > h N ] 9.g.s.2.",
"s.3.] N 1 o # g $ j.>.3 N B w $.k.n.$ t >.%.U E 3 R.R.$ E U l >.t $ n.l.$.+ X   + >.v.j.$ ] 6.[ Q 1.2.2.y.",
"V.9.2.2.r * * & c j.>.w B r % c >.n.$ ~ c $.o.K.p R.R.$ K.o.l c ~ p n.j.c + X   + >.l.*.$ y u y y u u ] V.",
"B.t.B y x.3X4X;.$.j.=Xb.% % c 4 $.j.n.$ 4 c o.Q._._._._.R.o.4 4 $ >.j.j.4 c % & x.=Xl.$.$ 1X4X3Xx.w ] s.s.",
"1.i.2.c 1X1X;.H $ $.l.>.w w c 4 c j.j.K o.l l J._._._._.J.l $.o.K $.j.$.4 c & w >.l.*.$ Y ;.1X4X1Xc B 3.g ",
"B w c =X<Xb.-.) Y $ j.M.m.#.$.c d c j.E  .d l X.W.[.[._.X.l b  .E =.c K c $.#.,.M.j.t Y / -.b.1X3X=Xc m Q ",
"1.x $.;X<X%.( ~.Y = #.j.M.,.c 3 o.K $.$.K L.V 4 I. X X[.4 V ..L $.=.K R.3 c ,.=Xj.#.6 Y / ( :.1X1XM.#.B 4.",
"w l l.;X1X:.( / G D 6 #.j.=X,.4 o.R.K c L _.+., U. X X X- .._.L c E R.R.4 ,.M.e.#.6 0 D Y ) ,.3X;Xl.>.t u ",
"3 c l.=X3X,.R F 0 G 0 6 #.l.=X,.X.R.R.L  .U.|.I.I.OXoXU.+.[.{...L  .o./.%.b.@.c 6 S A f p 0 :.1X=Xl.*.4 m ",
"3 *.l.M.,X%.7 f - 8 0 v $.t :.v.k.K K _.Q.E. XOX`.$X$X'.OX X|._...5.>.l.l c k.b.c = 9 N N 5 @.;Xb.j.c x M ",
"3 c j.v.;X@.5 s w - = c b.N.%.8.Q $ $ d.+. X XOX#X%X%X$X@XOX.X+.5.@.c l U $.2X;Xc - r g y n m.M.k.*.t B y ",
"w t *.j.v.k.x.V - u 5 l v.,Xb.E  .J.J.t , ` `.@X$X%X%X%X+X`.` , t X.J.o.E b.,XM.l s N r # m.M.k.>.z y 1.u ",
"B 1.&.c >.k.M.m.% M u t @.M.;X@.o._._.I.U.U.XX#X&X%X%X%X#XXXU.U.I.W._.R.@.;XM.:.w y y % x.M.k.>.#.% & M g ",
"i.4.N w c >.v.n.,X$ M w 4 >.v.n.c _._.[. X XOX$X%X%X%X%X$X+XOX X[._._.$ n.v.>.c w * + ,Xn.v.>.c $ @ & r 9.",
"h.C.u.M 3 c >.v.n.,Xw M * c >.v.n.$ $ [. XoX+X$X%X%X%X%X$X+XOX X X` $ n.v.>.c 3 s & x.n.n.>.c + + w g 2.0.",
"3.u.3.u t z c %.v.v.k.x u u x #.$.>.>.$ K T.XX#X&X%X%X%X#XXXE.K $ @.>.$.c # 5 u x k.b.v.>.c z t w m ] 7.N ",
"M N u z j.b.%.c $.>.v.e.c &.2.y $ L L L ` ` `.+X$X%X%X%X+X`.` ` L K L $ % & 3 c e.v.j.$.c %.b.j.#.y N ] M ",
"M y t >.b.*X=X:.l c $.:.v.#.z c c J.J.I.E. XOX@X#X%X%X$X+XOX XE.I.+.J.c c z #.v.:.$.c l c =X*Xb.j.x s s M ",
"m 5 c l.*X>X>Xx.%.H 9 y $.$.j.v.v.l c c [ U.{.OX+X$X$X+X@X}.U.[ c c l v.v.j.$.$.y 9 H %.e.>X>XM.l.n Q 2.] ",
"] t j.b.;X,Xk.^ T ~.J 6 c @.c l l l c c [ U.{.oX@X+X+X+XoX{.U.[ c c l l l c @.c 6 J / T H k.>XM.l.t t.g.2.",
"x #.l.*X>X1X;.7 A T 0 4 %.c ~ o.o.J.J.J.E. X X XoXoXoXoX X X XE.J.J.J.o.o.~ c *.4 0 Y A 8 $.>X=Xv.#.m 4.B ",
"3 *.l.=X,X3X;.7 p 8 = 4 *.l o.R.R.W._._.{.}. X X X X X X X X|.{._._._.R.R.o.l >.4 = 8 p p ;X,X;Xv.*.4 M M ",
"y l j.l.;X,X@.e d d e 4 *.v.c o.R.R.R._._.{.|. X X X X X X|._._._._.R.R.o.c v.>.4 e d d $ ,X;Xv.j.l % w M ",
"7.4 *.l.n.;X3X;.d d e 4 *.v.;X@.o.R.R.W._._._._._._._._._._._._._.W.R.R.@.;Xv.>.4 e d $ 4X;Xn.v.>.4 # r 2.",
"M w 4 *.v.n.;X@.! ! d e 4 >.v.;X@.$ R.R.W._._._._._._._._._._.W.R.R.$ $ ;Xv.>.c e d - ,Xn.v.>.c 5 E > w M ",
"@ # e t %.l.v.=X@.s f h d v #.k.=X3X@.2.o.o.L.R.R.Y.Y.Y.o.^.)./.2.l x.>.c 5 r d x c b.v.j.@.l e d E u & + ",
"o i E f l @.>.c.;Xc x f P r # c :.x.x.<.$ $ O.Y.Y.K.f.f.e 5.N.x.j.%.5 5 r d s s k.b.v.$.$.- e d E Q s > # ",
"w N Q E e - c $.v.>.>.c 5.5.i % $ . $ + O O I X.X.f.i.8.X.X.p y w w E s M &.c %.v.:.$.- - d E h h g w i g ",
"[ [ ] 6.Q E d r V e l l $.b.k.>.>.+ + + . . w g ] 2.N I d d d M y w 5 >.k.b.>.z l y p P P h s i > > r i N ",
"s.s.u.s.6.N r d P P e e y z c >.l.>.>.@.+ + & r N M r y * * % % #.>.>.l.c z t r s d E E e E ] [ 3.] ] ] 3.",
"5X(.(.S.0.6.j k h E P P d e e t l c c x s e & < g r > - @ & 5 s x c c l e r d P E [ W , , [ 6.9.g.C.B.h.D.",
"S.S.C.Z.y.3.[ ' N s , p E P P d s s s r & @ # w > * . * - w s E d s f f P P d , E q.[ 1 r [ ] N ] g.(.(.].",
"V.i.y.t.y.] ] 9., 1 < h j i - # r _ j r * . + * & : C g u w w i M ] 6.] a r : 1 W w.a.' [ N r , i B 0.g.s."
};
