/* XPM */
static char *_eb2e9ce47cf4448819561ad65d82df5[] = {
/* columns rows colors chars-per-pixel */
"53 48 195 2 ",
"   c #0D0D0C",
".  c #100F0E",
"X  c #0E100A",
"o  c #14120E",
"O  c #161413",
"+  c #1A1616",
"@  c #1C1A15",
"#  c #1E1719",
"$  c #1D1B1A",
"%  c #231B1D",
"&  c #281E1D",
"*  c #271F15",
"=  c #1F231B",
"-  c #24221D",
";  c #2A261D",
":  c #2C2B1E",
">  c #271E20",
",  c #291E21",
"<  c #262422",
"1  c #2C2323",
"2  c #2C2A25",
"3  c #2E2C29",
"4  c #2E2628",
"5  c #322526",
"6  c #382723",
"7  c #342B25",
"8  c #3A2A25",
"9  c #342728",
"0  c #352A2A",
"q  c #3C2C2C",
"w  c #2F3220",
"e  c #343125",
"r  c #393226",
"t  c #35322E",
"y  c #3A332B",
"u  c #3B392D",
"i  c #353A2D",
"p  c #3F2F30",
"a  c #363331",
"s  c #3A3532",
"d  c #3C3A35",
"f  c #3D3B39",
"g  c #432D26",
"h  c #412E2E",
"j  c #453027",
"k  c #4A3226",
"l  c #43322E",
"z  c #4B342A",
"x  c #493B2C",
"c  c #563727",
"v  c #523629",
"b  c #563A29",
"n  c #5D3D2D",
"m  c #412F30",
"M  c #443232",
"N  c #4B3534",
"B  c #423C34",
"V  c #4D3A34",
"C  c #423E3A",
"Z  c #4F3838",
"A  c #503736",
"S  c #523A36",
"D  c #543B39",
"F  c #5A3E3B",
"G  c #593B37",
"H  c #623F2D",
"J  c #3B4529",
"K  c #4D402A",
"L  c #5C432B",
"P  c #55442B",
"I  c #454136",
"U  c #44413D",
"Y  c #4B443D",
"T  c #4D493E",
"R  c #494236",
"E  c #5A4133",
"W  c #54443B",
"Q  c #5E413C",
"!  c #56483F",
"~  c #59463A",
"^  c #64412D",
"/  c #6D452E",
"(  c #6B492F",
")  c #744F2F",
"_  c #6A512F",
"`  c #644333",
"'  c #6B4632",
"]  c #6A4936",
"[  c #62433E",
"{  c #634A3B",
"}  c #6A4C39",
"|  c #744A31",
" . c #7C4E32",
".. c #665630",
"X. c #765030",
"o. c #7D5439",
"O. c #464441",
"+. c #464341",
"@. c #494642",
"#. c #494642",
"$. c #4D4A44",
"%. c #4F4C49",
"&. c #524C45",
"*. c #5B4D42",
"=. c #514E4A",
"-. c #524E4A",
";. c #524643",
":. c #545244",
">. c #5F5047",
",. c #55524E",
"<. c #55524D",
"1. c #5A544C",
"2. c #5D594D",
"3. c #5D5A4C",
"4. c #575450",
"5. c #595651",
"6. c #5A5652",
"7. c #5D5A55",
"8. c #5F5C58",
"9. c #664540",
"0. c #694641",
"q. c #6D4942",
"w. c #734D44",
"e. c #784F46",
"r. c #63544A",
"t. c #775046",
"y. c #795147",
"u. c #7D5348",
"i. c #625B53",
"p. c #615E59",
"a. c #6C5E54",
"s. c #63605C",
"d. c #65615B",
"f. c #6A655E",
"g. c #686353",
"h. c #72655C",
"j. c #6A6762",
"k. c #6D6964",
"l. c #736E68",
"z. c #766D64",
"x. c #74716A",
"c. c #7B756C",
"v. c #7C7770",
"b. c #815234",
"n. c #8A5636",
"m. c #865833",
"M. c #8B5B35",
"N. c #88593D",
"B. c #915E3E",
"V. c #965D38",
"C. c #8F6235",
"Z. c #9C6339",
"A. c #9D6838",
"S. c #946637",
"D. c #9C7239",
"F. c #A3653C",
"G. c #A26B3A",
"H. c #AC6B3D",
"J. c #B16F3E",
"K. c #AA743B",
"L. c #B4733E",
"P. c #B9773F",
"I. c #B67B3E",
"U. c #BA793F",
"Y. c #875A4C",
"T. c #BF7E40",
"R. c #C07F40",
"E. c #A48B3F",
"W. c #AA863C",
"Q. c #AC903F",
"!. c #BD913F",
"~. c #B7A044",
"^. c #8C877F",
"/. c #C48441",
"(. c #C68A42",
"). c #C98A42",
"_. c #CE9144",
"`. c #D29645",
"'. c #D69A46",
"]. c #D89D47",
"[. c #DAA047",
"{. c #DEA448",
"}. c #CFB64A",
"|. c #E0A748",
" X c #E3AB49",
".X c #E7B049",
"XX c #E9B449",
"oX c #EDB94A",
"OX c #E5C74F",
"+X c #EFC14D",
"@X c #F0C44E",
"#X c #E6CB50",
"$X c #F2CC50",
"%X c #F5D453",
"&X c #F6D954",
/* pixels */
"f < < d <.<.a t t 1.c.3.0 - 2 2 - @ - u T $.:.Y 1 < C 2 3 =.%.$.C C =.C B < 1 1 < - $.2.C U d 6.6.@.d t d ",
"- O   % C +.a < 0 d 1.2.:.T t < % % e T B 4 1 1 1 % + + 1 O.U d a s U C e - 7 y s r B U U a 1 3 a f $.t $ ",
"% + . O 3 3 < % < 2 C @.2.3.d 1 % % ; t 9 5 1 5 9 1 1 1 & a a 1 & % & 4 7 ; r I &.T &.@.$.a t d U O.$.f + ",
"+ $ + O + + O + - < f =.6.&.y 4 1 q q 1 q q q 9 9 9 9 q 9 9 1 5 5 5 5 5 - ; r Y <.7.6.+.O.$.U U 6.@.C d $ ",
"+ < 2 2 $ % - 2 d d =.k.i.N N q q D Z h N M q q q q q q M D Z M M M q M & % 0 C @.6.k.s.p.s.<.U U t < < + ",
"O $ 2 s 2 - 2 3 #.<.x.6.4 N F A F D 9 F F D Z N M M M N S F N q D F S S 1 > 0 a f %.s.l.v.7.@.t $ O + O O ",
"+ - 2 e 2 - - 2 U $.%.a # 5 N A F q 1 N F [ F A N N Z F F S q 5 q q q 9 , 1 9 9 q B #.7.k.<.C < O + 2 - @ ",
"@ < 2 2 y e 7 t s a d < 5 h N q q 5 1 9 M F 0.9.Q D [ 0.F q 9 N N 5 9 h q h M N S D D C $.O.a < < t Y U 2 ",
": d $.1.T B u C C s M G [ 0.[ D Z 5 9 4 5 q N N Z 9.S 9.l 1 q [ N 9 S A q q m M Z A [ F $ a 3 - - d U =.I ",
"g.&.d Y T I d s 9 M [ D q q q q D [ D F q q M q 9 9 q [ q 5 q F l q 9 9 q M M N N N N F [ 1 t < - d B d :.",
"i.f.p.s.7.U 1 , q q M A [ 0.D q 9 q q N [ [ F N q q D w.S 5 q N h q l [ N M M A [ [ 0.w.w.% 3 - O 2 2 U i.",
"d f U U s M N N Z M M M Z D [ w.[ 9 9 5 M q.0.S q 5 q Q q 1 9 M q 5 y.w.q.q.q.9.Q 0.w.y.[ $ + @ @ 0 B B C ",
"< - < < h F D D [ N Z Z A F 9.q.w.9 5 1 q Q F N q , 9 A q g q m 9 1 q.w.y.y.y.w.[ [ q.[ q $ @ : y Y -.Y d ",
"- @ $ % [ w.9.[ w.F D [ 9.w.w.w.w.q 1 > 9 l S F M , 1 q k b.n q 5 1 F D q.w.w.w.D N Z l 5 $ - s U -.d.d.C ",
"7 t 0 1 l w.u.w.w.y.M F u.q.Q D [ F 5 b 8 h 0.[ M , % 9 v Z.^ 9 1 & 0.S M M M M q q 9 1 @ @ 7 U %.$.p.s.U ",
"U @.d 1 5 N [ y.Y.Y.q S q.Z M D q.q.9 / g q [ Q M , n , n.Z.^ 1 > % [ h D F N 9 9 1 , % X - t d U <.s.p.@.",
"p.$.C 0 1 5 q Z D D 9 h M M A F 0.0.9 | b q F F M , m.M.P.H.b.5 & q F M F Z h 5 5 5 5 5 & y Y U C O.@.$.6.",
"k.<.@.@.t 4 5 9 9 q q M h N D S F [ 9 n.m.k A F N , C./.T.U.Z.g & M F S Z h q q q q q M Z N U $.U 3 3 U j.",
"k.4.f a #.U 4 5 Q [ Z Q q.D N N F N 9 Z.A.z q N M , D.].).R.T.Z.j 9 [ F q h D F N M q q N F D l < 1 U p.p.",
"O.8.8.%.4.6.a q y.w.Q w.y.N q q S M 9 A.I.X.9 q q , D.].`.(.R.P.v 9 F M l D [ Q A A M M F D [ F 0 f $.$.t ",
"f 0 a $.,.@.9 5 Q w.0.q.F 9 1 5 Z q 4 A./.S.1 9 9 P !.{.].'.).T.b 9 M q M 0.w.9.[ [ F F 9.0.q.[ q 3 0 d C ",
"@.s 2 2 1 5 5 9 q Q F q q 9 1 5 q q 5 G.).D.9 9 5 W.oXoX{.].`./.^ 9 q q q [ q.q.w.w.q.w.w.w.w.[ s 3 a %.=.",
"3 t 3 3 q S Z Z Z Z N q 9 z k 6 q 9 j I.`.(.b 5 5 Q.+XoXXX{.'.).S.j q 5 5 h F [ y.y.w.w.t.w.[ M C %.7.<.d ",
"< $ % 9 [ [ A D Q 0.q.N 5 n  .j 9 1 b ).'.|._ 5 9 ~.$XoXoX.X{._./.b 9 1 N F S N Q [ Q Q F D h 9 U l.k.6.C ",
"< + % q w.w.[ q.q.t.F N S F ` 6 4 4 L '.[. X_ 1 K #X&X%X@XoX X'.(.m.1 , N [ w.[ q h S Z M q q M A ;.6.=.d ",
"< 1 < 9 F w.w.w.Q Q M D [ w.D 1 4 1 L ].[.XX_ 1 P &X&X&X$XoXXX[.).P.z 8 h N [ Q l D q.0.F N N S [ D B #.3 ",
"3 +.C 9 h Z S S l M 0.q.S [ l , 1 k K.[. XXXE...E.&X&X&X$XoXXX[.).R.Z.n.g 9 q q q S t.e.q.D A F F w.S s < ",
"f ,.%.0 5 q M A [ [ w.S M M 9 H g A.).[.XXoXOX}.#X&X&X&X%X@XXX|.'./.P.n.N A Z M M Z S w.w.[ [ q.0.Q M 9 0 ",
"8.%.d < + & 5 M w.w.q q 9 1 8 n.P.).].XXoX@X&X&X&X&X&X&X%X$XoX X[.).( q q.0.[ F Q 0.[ S w.q.w.t.[ M 5 1 <.",
"f.x.7.a 0 4 1 5 q q 9 5 4 6 | F.P.).].XXoX@X&X&X&X&X&X&X&X%X@X.X[._.1 F y.w.0.9.q.w.u.q.q S [ S q 5 1 U 1.",
"$.7.@.9 9 m m q q q M M q h ^ V.P.).].XXoX@X&X&X&X&X&X&X&X%X@XoX{.].1 S Q q.t.w.q.D N q 9 5 5 5 1 0 U =.d ",
"a s 0 q M Z N M M N D D M m z ' H.).].XXoX@X&X&X&X&X&X&X&X%X@XoX{.].1 S Z S F N M M M p q q q m m 9 d U s ",
"t 9 q M D A M M Z D [ F N N D 9 M.).].XXoX@X&X&X&X&X&X&X&X%X@XoX{.].1 N h 9 5 5 M D A N q N M Z F N 0 3 s ",
"9 5 q M F F Z A [ D S M D D Q 9 M.).]..XoX@X&X&X&X&X&X&X&X%X@XoX{.].1 q 9 5 6 1 D [ F A M Z A F [ F 9 s U ",
"s 1 9 q M F 9.q.[ N M [ [ F S 5 M.).].{.XXoX%X&X&X&X&X&X%X$XoXoX{.].8 1 5 z n 5 5 h F [ A [ [ [ F 5 % +.@.",
"0 > 1 5 q N D D h 5 h D S l 9 v G.).].[.XXoX@X%X&X&X&X&X%X+XoXXX[.].) > 1 g z D q 5 q Z N Z Z N q & % +.f ",
"$ $ % , 1 9 9 5 , 1 5 9 9 1 > | P./.`.[.|.XXoX$X%X&X&X&X@XoXXX|.].].G.v k 8 q F F l 5 1 1 5 5 5 , # % f s ",
"3 2 # # % > % % > 1 & & & % k V.P./.).].].|.oXoX@X&X&X@XoXoXXX[.]._.R.K.Z.| 6 1 h q , % % & & % # $ $ < s ",
"<.0 q M q 1 % $ # % % % % % %  .H.R./.`.].]. XoXoXoXoXoXoXXX|.].].).R.P.H.H. .% % % % % % # # + + $ $ 2 @.",
"1 & M Z m h 9 > % & 9 M q q q 9 ^ P.R./._.'.[. XXXoXoXoX X{.].'./.R.T.L.H.F./ > 9 q q q 9 q M m 1 % + < a ",
"O # 1 q q 9 1 , 1 q N N m q M N m  .P.R./.).].[.{.|.|.|.].'.`.(./.T.L.F.' c 5 9 A N M M 9 M N M 9 M q % O ",
"o % % % % > 1 9 1 q N M M N N N M k H.P.T./.`.`.`.`.`.`.`.).).T.U.P.F. .q 5 5 9 Z Z N N q N N q 1 h N , o ",
"7 y 1 % + , q N 9 > 9 q h N N q & c H.L.P.P././././././.T.P.P.P.H.F./ 8 M M M 9 5 q Z A M N q 1 % 5 9 & - ",
"Y Y V q % > 5 9 , % # & , , , # 9 k B.B.B.B.F.J.L.L.L.L.F.B.B.B.} ~ % 1 S D N 5 > & 5 q 9 5 > $ % % # 1 d ",
"p.i.>.! 1 % % & % % 5 & % & & 7 0 + 8 j n ' | o.o.N.B.B.N.] E { l 0 % & 9 q 9 , % # % % % % & 1 1 & 9 V &.",
"^.z.h.h.V 1 % # % 6 V N l l N r 2 $ O O @ * 7 r l E ] ] ] ` E { Y d 1 & % % % % % & & & & & 9 N V N S r.v.",
"c.l.k.x.>.l ; % 6 S V V S S W r < 3 0 $     $ < - - * ; 7 y B *.-.<.d l $ # # % q V N l l N V W Y ! r.a.c.",
"j.8.6.4.5.! S W l e : r B y l ~ u J i 2 O   O O $ = w t 3 < < < s U &.W l 6 q N W *.*.R Y W V 2 < f 1.p.7."
};
