/* XPM */
static char *_a3c392fd2d44fa59c92650db4dd43a7[] = {
/* columns rows colors chars-per-pixel */
"48 48 222 2 ",
"   c None",
".  c #222222",
"X  c #222323",
"o  c #242222",
"O  c #252322",
"+  c #272223",
"@  c #232526",
"#  c #2B2423",
"$  c #2B2224",
"%  c #2D2224",
"&  c #2E2324",
"*  c #242926",
"=  c #242629",
"-  c #24272A",
";  c #25272A",
":  c #25292A",
">  c #252B2A",
",  c #262B2A",
"<  c #262E28",
"1  c #262F29",
"2  c #262E2A",
"3  c #262A2E",
"4  c #312623",
"5  c #332623",
"6  c #342723",
"7  c #322225",
"8  c #362226",
"9  c #372326",
"0  c #302524",
"q  c #3D2227",
"w  c #3F292B",
"e  c #27302A",
"r  c #2C332E",
"t  c #29362D",
"y  c #353129",
"u  c #272B31",
"i  c #272C32",
"p  c #282F36",
"a  c #283230",
"s  c #293430",
"d  c #2A3B30",
"f  c #293038",
"g  c #29313A",
"h  c #2A323A",
"j  c #2B343E",
"k  c #2C3E39",
"l  c #2C383E",
"z  c #2D3C3D",
"x  c #313137",
"c  c #393630",
"v  c #432B24",
"b  c #4D2A27",
"n  c #4F2E25",
"m  c #4F2F25",
"M  c #422228",
"N  c #422329",
"B  c #47232A",
"V  c #4E232B",
"C  c #4B2529",
"Z  c #4F2729",
"A  c #5A2F27",
"S  c #57232D",
"D  c #59232D",
"F  c #5D232E",
"G  c #5D272C",
"H  c #5F272C",
"J  c #5D2A2A",
"K  c #583125",
"L  c #593126",
"P  c #5E3127",
"I  c #513129",
"U  c #523529",
"Y  c #60232F",
"T  c #62232F",
"R  c #60252D",
"E  c #63242F",
"W  c #66252E",
"Q  c #66252F",
"!  c #68272E",
"~  c #6A2F2A",
"^  c #6F2F2B",
"/  c #69282E",
"(  c #6A282E",
")  c #6D2A2D",
"_  c #6D2A2E",
"`  c #702C2D",
"'  c #752F2C",
"]  c #752F2D",
"[  c #623326",
"{  c #623426",
"}  c #6E3727",
"|  c #683129",
" . c #6E3928",
".. c #743827",
"X. c #73312B",
"o. c #763729",
"O. c #7C342B",
"+. c #7F372A",
"@. c #78312C",
"#. c #79322C",
"$. c #7C342C",
"%. c #7D3B28",
"&. c #2D4435",
"*. c #2E4736",
"=. c #2F4A38",
"-. c #334436",
";. c #364635",
":. c #304B39",
">. c #30493D",
",. c #32513C",
"<. c #41403F",
"1. c #41423F",
"2. c #2C3843",
"3. c #2D3844",
"4. c #2D3946",
"5. c #2E3C4A",
"6. c #2F3C4A",
"7. c #2F3D4B",
"8. c #2F3E4B",
"9. c #303E4E",
"0. c #304645",
"q. c #30434A",
"w. c #31454B",
"e. c #31434E",
"r. c #335244",
"t. c #335245",
"y. c #365F44",
"u. c #385B41",
"i. c #335149",
"p. c #345149",
"a. c #35534D",
"s. c #375F48",
"d. c #375F49",
"f. c #314051",
"g. c #314152",
"h. c #314252",
"j. c #324750",
"k. c #324552",
"l. c #374656",
"z. c #334951",
"x. c #334852",
"c. c #334952",
"v. c #344D51",
"b. c #344E51",
"n. c #384D56",
"m. c #355051",
"M. c #365651",
"N. c #375A50",
"B. c #375A51",
"V. c #385E50",
"C. c #386547",
"Z. c #396648",
"A. c #396649",
"S. c #396849",
"D. c #3A684B",
"F. c #3B6C4B",
"G. c #3B6A4E",
"H. c #3B6B4F",
"J. c #3F6B4D",
"K. c #3B6C4F",
"L. c #3C6F4F",
"P. c #3C714E",
"I. c #3D724F",
"U. c #3D734F",
"Y. c #396450",
"T. c #3A6650",
"R. c #3B6B50",
"E. c #464544",
"W. c #454D46",
"Q. c #4A514A",
"!. c #4D5358",
"~. c #526756",
"^. c #526757",
"/. c #417054",
"(. c #4D7E5C",
"). c #53785D",
"_. c #4D5A67",
"`. c #4E5C67",
"'. c #4D5A68",
"]. c #5D5F61",
"[. c #4F6367",
"{. c #567D65",
"}. c #597E63",
"|. c #58746B",
" X c #63736C",
".X c #81372B",
"XX c #823B29",
"oX c #84392A",
"OX c #84392B",
"+X c #873B2A",
"@X c #803C28",
"#X c #863D28",
"$X c #863E28",
"%X c #883B2A",
"&X c #8B3E29",
"*X c #893C2A",
"=X c #8B3E2A",
"-X c #8C3F29",
";X c #8E3F29",
":X c #8F4029",
">X c #578364",
",X c #578465",
"<X c #5D8969",
"1X c #86837E",
"2X c #8DAA91",
"3X c #A8ABAC",
"4X c #A8ABAD",
"5X c #BFBFBE",
"6X c #BEC1B5",
"7X c #BEC3B6",
"8X c #BFC4B7",
"9X c #C0C6BD",
"0X c #C1C8BD",
"qX c #D8D3CB",
"wX c #D9D6CD",
"eX c #DAD6CF",
"rX c #DBDACF",
"tX c #DCDFD1",
"yX c #DCDDD3",
"uX c #DDE1D3",
"iX c #ECE8E0",
"pX c #FDF7ED",
/* pixels */
"                                                                                                ",
"                                                                                                ",
"                                                                                                ",
"                                                                                                ",
"                                            . . . . . . . . . . . . . . .                       ",
"                                          - , e e e e e e e e e e e e e e 1                     ",
"                                        - 3.p.Z.Z.Z.Z.Z.Z.Z.Z.Z.Z.Z.Z.Z.Z.&..                   ",
"                                      . - 6.N.U.U.U.U.U.U.U.U.U.U.U.U.U.U.=..                   ",
"                                      . - 6.N.U.U.U.U.U.U.U.U.U.U.U.U.U.U.=..                   ",
"                                      . - 6.N.U.U.U.U.U.U.U.U.U.U.U.U.U.U.=..                   ",
"                                      . - 6.N.L.V.N.N.N.N.N.N.N.N.N.N.N.N.k .                   ",
"                                      . - 6.N.K.m.e.6.6.e.z.z.z.z.z.z.j.6.p .                   ",
"                        .     . . . . . - 6.N.U.K.>.- - >.H.H.H.H.H.H.d.a @ .                   ",
"                        .     . . . . . - 6.N.U.U.=.. . :.U.U.U.U.U.U.C.1 . .                   ",
"                        .     . . + $ + - 6.N.U.U.=.. . :.U.U.U.U.U.U.C.1 . .                   ",
"                          . . . . $ V q - 6.N.U.U.=.. . :.U.U.U.U.U.U.C.1 . .                   ",
"                          i p @ 7 B F N - 6.N.(.2X Xh h t.U.U.U.U.U.U.S.z ].1X1.                ",
"                  .     - h 2.- N T T N - 6.a.}.tX3X`.n.V.U.U.U.U.U.U./.[.3XqXE.                ",
"                    . - 3.h - . N T T N - 6.l Q.wXiX9X{.L.U.U.U.U.U.U.,X0XiXqXE.                ",
"                    . - 6.0.&.* N T T N - 6.3.!.wXpXrX~.=.=.=.=.=.=.=.~.rXpXqXE.                ",
"                  . . - 6.N.C.1 N T D q - 2.9.'.5XtX7XW.e e e e e e e W.8XuX7X1.                ",
"                    . - 6.N.C.1 N D 8 + . - j l._.|.>XJ.Z.Z.Z.Z.Z.Z.Z.J.>X<X).r                 ",
"                    . - 6.b.i., N R A L m # h g.g.b.N.N.N.N.N.N.N.N.N.N.N.t.&.*                 ",
"                  . . - 6.j.q., N ( %X:X%.6 p 6.6.6.6.6.6.6.6.6.6.6.6.6.6.h - .                 ",
"                    . - 6.M.d.1 N ( %X:X%.6 @ - - - - - - - - - - - - - - h 2.-                 ",
"                    . - 6.b.i., N ( %X..m # 3 h h h h h h h h h h h h h h 3.6.-                 ",
"                    - u 6.g.6.a w H +.P 6 6 x 6.j.z.z.z.z.z.z.z.z.z.z.z.z.z.w.s 1               ",
"                  . h 6.g.g.j.d.-.8 H X.%.%.I a d.H.H.H.H.H.H.H.H.H.H.H.H.H.H.Z.&..             ",
"                  . h g.g.g.z.H.=.% S #.:X:XL e Z.U.U.U.U.U.U.U.U.U.U.U.U.U.U.U.=..             ",
"                  . h g.g.j.m.K.=.% S #.:X:X[ y u.C.S.U.U.U.U.U.U.U.L.R.R.R.K.U.=..             ",
"                  . h g.g.M.K.U.=.% S #.:X:X#X .y 1 d S.U.U.U.U.U.U.V.z.z.z.m.K.=..             ",
"                  . h g.g.b.V.L.y.-.w J $.&X:X#X{ L U ;.=.,.F.U.U.U.Y.N.N.N.V.L.=..             ",
"                  . h g.g.g.z.Y.L.S.d w H +.+X&X;X:X@Xv 6 y u.C.S.U.U.U.U.U.U.U.=..             ",
"                  . h g.g.g.g.z.V.U.S.-.8 H ( ` &X:X;X@X%. .y 1 d S.U.U.U.U.U.U.=..             ",
"              . . . 3 h h h h h k =.=.c C ^ #.+.&X:X:X:X:X#X{ L U ;.=.=.=.=.=.=.t . .           ",
"            . . + $ % % % % % % 0 6 6 Z ` &X:X:X:X:X:X:X:X:X:X:X@Xv 6 6 6 6 6 6 6 4 +           ",
"            . . $ V S S S S S S ~ %.%.XX&X;X:X:X:X:X:X:X:X:X:X:X;X@X%.%.%.%.%.%.%.} 4           ",
"            . 7 B F T T T T W ' +X:X:X:X:X:X:X:X:X:X:X:X:X:X:X:X:X:X:X:X:X:X:X:X:X%.6           ",
"            . N T T T T T T ! .X&X:X:X:X:X:X:X:X:X:X:X:X:X:X:X:X:X:X:X:X:X:X;X&X+Xo.4           ",
"            . N T T T T T T R ! $.:X:X:X:X:X:X:X:X:X:X:X:X:X:X:X:X:X:X:X:X:X&X` ( H %           ",
"            . N T T T T T ) #.#.+X:X:X:X:X:X:X:X:X:X:X:X:X:X:X:X&X$.+X&X$.#.' W T S %           ",
"            . N T T T T T ' &X;X:X:X:X:X:X:X:X:X:X:X:X:X:X:X:X:X&X` +.&X` ( ! R F V $           ",
"            . N T T T T T W ` &X:X:X:X:X:X:X:X:X:X:X:X:X:X:X:X:X;X&X&X;X&X%X.X! B $ +           ",
"            . N T T T T T ) #.#.+X:X:X:X:X:X:X:X:X:X:X:X:X:X:X:X:X:X:X:X:X+X' W N . .           ",
"            . N T T T T T #.+X( #.:X:X:X:X:X:X:X:X:X:X:X:X:X:X:X:X:X:X:X:X#.T T N . .           ",
"            . N T T T T T #.+X( #.:X:X:X:X:X:X:X:X:X:X:X:X:X:X:X:X:X:X:X:X#.T T N . .           ",
"            . 7 N N N N N b A R ) #.#.#.#.#.#.#.#.#.#.#.#.#.#.#.#.#.| L L b N N 7 . .           ",
"            . . . . . . . . % S T T T T T T T T T T T T T T T T T T N . . . . . . .             "
};
