/* XPM */
static char *_9cdb523ce0a4f2ab654311f216a6e9c[] = {
/* columns rows colors chars-per-pixel */
"48 48 201 2 ",
"   c #2C2425",
".  c #282826",
"X  c #2B2B2F",
"o  c #262425",
"O  c #342426",
"+  c #3C2427",
"@  c #362428",
"#  c #3C2429",
"$  c #352B2A",
"%  c #3B2D2B",
"&  c #362B27",
"*  c #2F382E",
"=  c #2B302C",
"-  c #3E332E",
";  c #2C2E34",
":  c #3C2D33",
">  c #2C3335",
",  c #2C343B",
"<  c #2F3A3C",
"1  c #2E3F33",
"2  c #343434",
"3  c #3C3334",
"4  c #343B35",
"5  c #3C3C34",
"6  c #3B3639",
"7  c #333C3C",
"8  c #3A3B3C",
"9  c #4A2727",
"0  c #442826",
"q  c #4E2A27",
"w  c #43252A",
"e  c #4D242B",
"r  c #442B2A",
"t  c #4C2C2A",
"y  c #452727",
"u  c #512D27",
"i  c #54242C",
"p  c #5C242D",
"a  c #542D2B",
"s  c #5C2C2A",
"d  c #43332D",
"f  c #4B352D",
"g  c #4D3B2E",
"h  c #403A2F",
"j  c #583026",
"k  c #52342D",
"l  c #5A342B",
"z  c #53392F",
"x  c #5A392F",
"c  c #4E2731",
"v  c #482C32",
"b  c #562E31",
"n  c #443532",
"m  c #4A3731",
"M  c #443C35",
"N  c #4B3A33",
"B  c #513730",
"V  c #543B32",
"C  c #5C3E33",
"Z  c #5D3430",
"A  c #63252E",
"S  c #632B2B",
"D  c #6B2A2D",
"F  c #732E2D",
"G  c #63332B",
"H  c #6B322A",
"J  c #643B2D",
"K  c #6A3A2B",
"L  c #653327",
"P  c #73332A",
"I  c #7A322C",
"U  c #743B2A",
"Y  c #7A3B2A",
"T  c #623E32",
"R  c #693F31",
"E  c #2F4A3A",
"W  c #324536",
"Q  c #3D4335",
"!  c #32443A",
"~  c #3D453B",
"^  c #334B3A",
"/  c #3C4A3B",
"(  c #35523E",
")  c #3C533E",
"_  c #454435",
"`  c #4F4634",
"'  c #454339",
"]  c #454938",
"[  c #4A4D38",
"{  c #544334",
"}  c #5D4235",
"|  c #5C4638",
" . c #534938",
".. c #45543C",
"X. c #6D432E",
"o. c #73412D",
"O. c #644135",
"+. c #6B4336",
"@. c #694235",
"#. c #6C4335",
"$. c #6D4336",
"%. c #6E4334",
"&. c #6A4436",
"*. c #6D4436",
"=. c #6F4436",
"-. c #6E4435",
";. c #6B4235",
":. c #6B4438",
">. c #724435",
",. c #714536",
"<. c #714536",
"1. c #744637",
"2. c #764636",
"3. c #754535",
"4. c #724536",
"5. c #784736",
"6. c #7A4737",
"7. c #744738",
"8. c #794838",
"9. c #7A4939",
"0. c #7A4939",
"q. c #2E3B42",
"w. c #313E44",
"e. c #393D42",
"r. c #313E4A",
"t. c #2E4042",
"y. c #334343",
"u. c #3A4542",
"i. c #324A44",
"p. c #3C4B42",
"a. c #32444B",
"s. c #344A4B",
"d. c #355342",
"f. c #3B5544",
"g. c #365A44",
"h. c #3B5C44",
"j. c #35554A",
"k. c #3A554C",
"l. c #375B4C",
"z. c #395C4B",
"x. c #324651",
"c. c #344C51",
"v. c #375C50",
"b. c #395B50",
"n. c #3A5453",
"m. c #3A6246",
"M. c #39624F",
"N. c #39624E",
"B. c #39654B",
"V. c #3A694E",
"C. c #3C6F4D",
"Z. c #3B6C4E",
"A. c #3C714F",
"S. c #396450",
"D. c #3B6950",
"F. c #4C4E4D",
"G. c #544C45",
"H. c #5C4942",
"J. c #405C43",
"K. c #425C43",
"L. c #435B41",
"P. c #44594C",
"I. c #445F53",
"U. c #465055",
"Y. c #5D5552",
"T. c #67564F",
"R. c #42644E",
"E. c #49635A",
"W. c #496756",
"Q. c #53665B",
"!. c #536A5D",
"~. c #55735E",
"^. c #67655B",
"/. c #73645C",
"(. c #5C6264",
"). c #576965",
"_. c #5D7366",
"`. c #5E736B",
"'. c #616F6E",
"]. c #627769",
"[. c #7B716A",
"{. c #6E7A76",
"}. c #80362B",
"|. c #853A2A",
" X c #8B3E29",
".X c #8F4029",
"XX c #6F8174",
"oX c #718275",
"OX c #71807C",
"+X c #88877E",
"@X c #808888",
"#X c #888A86",
"$X c #928B84",
"%X c #8A968C",
"&X c #829187",
"*X c #ADA69D",
"=X c #A6ADA3",
"-X c #A7AEA9",
";X c #B2B2AC",
":X c #B4B9B0",
">X c #DCDBD2",
/* pixels */
"O.O.#.,.5.2.2.2.=.@.T @.=.,.#.@.T T O.@.@.#.=.@.@.@.T C x C T @.@.&.=.=.=.=.=.,.,.2.2.5.5.9.9.9.",
"O.O.#.,.2.2.2.2.=.@.T @.=.,.#.@.T T O.@.@.#.=.@.@.@.T C x C T @.@.&.=.=.=.=.=.,.,.2.2.5.5.9.9.9.",
"@.@.#.,.2.,.,.,.#.@.@.@.@.=.@.O.T T @.#.@.O.T T C C C V z V C C C C C C C C T O.@.%.,.,.2.5.9.9.",
"@.@.#.=.,.=.=.#.@.@.@.@.@.@.@.T T @.%.,.@.T V V V B z g f z z V V B N B B z C C T @.@.=.,.2.9.9.",
"#.#.#.=.=.=.@.@.@.=.=.@.@.O.T R R %.>.2.R x f f f f f f f f f f f f d d d d f V C T @.@.=.2.9.9.",
"#.#.#.=.=.@.@.O.@.@.@.@.@.O.@.@.%.@.@.@.} V ' ' ] ] ] ] ] ] ] ] ] ] / Q 5 5 m V T T @.@.=.,.7.7.",
"#.#.#.@.&.@.O.C O.@.@.@.@.@.@.#.%.@.T C { ' p.f.f.K.K.K.K.K.K.K.K.h.h.) / Q _ { T O.O.@.#.,.2.2.",
"#.#.@.@.@.O.} C C T O.O.@.@.#.=.,.O.C f ' p.j.z.V.C.C.C.C.C.C.C.C.C.C.m.f.^ _ { O.O.O.@.@.=.,.,.",
"#.#.@.@.@.O.} C C O.O.@.@.@.@.#.=.T C f ' p.j.l.N.V.V.V.V.V.V.V.V.V.V.h.d.W ] { @.@.@.@.@.=.,.,.",
"#.#.@.@.@.@.O.C O.O.O.@.@.@.@.@.#.T V f ' p.j.l.l.N.N.N.N.N.N.N.N.N.N.l.i.! ' | =.@.@.@.@.#.,.,.",
"#.#.@.@.@.@.O.O.O.@.O.@.@.#.@.@.@.C V f ' p.l.l.l.l.l.l.l.l.b.v.v.v.v.j.i.7 ' | 7.=.@.@.@.#.#.#.",
",.,.#.@.@.O.O.C O.O.@.O.T T C C z f d % 5 p.l.j.j.j.j.j.j.l.z.S.N.N.N.d.! > M { &.@.@.@.@.@.#.#.",
"7.7.=.@.O.T T C T O.@.T C C k d % % $ $ 4 u.l.j.d.d.d.d.i.g.N.V.V.V.V.d.! = - B O.@.@.@.@.@.#.#.",
"9.9.7.@.C C C C T T @.T x f d &     o o > i.l.j.i.E E ^ ^ d.B.A.A.Z.Z.d.1 . % f C T T @.@.@.#.#.",
"7.7.&.@.C C C C T T T C B f % &         2 i.l.k.k.P.f.d.^ g.B.A.A.C.C.h.p.8 M V C T @.@.@.@.@.@.",
":.:.@.O.C C C C C C x z f n % $ O O @ @ 2 u.b.I.E.Q.I.z.d.g.B.A.A.A.C.R.P.F.G.| C O.@.,.=.#.@.@.",
"O.O.} C C C } O.C x z f n 3 % $ O @ # w 6 p.b.E.).].!.I.d.z.V.A.A.A.A.W.Q.(.Y.H.C @.=.7.7.=.@.@.",
"} } C C C C C O.C z f f 3 6 3 % @ @ # w 3 u.k.).{.%XXX!.d.g.m.B.B.B.B.~.{.#X[.T.V O.=.7.7.&.@.@.",
"C C C C C C } O.V f d 3 5 7 2 : # # w w 3 e.s.'.%X:X%X].d.d.g.g.g.h.h.].%X;X$X/.V } =.9.,.&.@.@.",
"C C C C C C } O.B d % 2 7 t.7 : w w w w : e.a.{.=X>X=XXXf.d.( ^ ( d.f.oX=X>X*X[.N } &.9.,.&.@.@.",
"C C C C C C C } N d $ 2 7 y.7 3 w w w 9 n 6 w.(.@X-X&X_.f.j.d.d.d.d.f._.&X=X+X^.N C @.9.,.=.@.@.",
"C C C C C C C C m d $ 2 7 a.7 3 w y t u n 6 w.U.).OX`.E.j.j.j.j.d.j.j.E.`.oX^.G.f C @.9.,.=.@.@.",
"C C C C V V V V m - $ 2 y.s.e.3 w 9 u j f 3 , w.s.n.n.j.j.j.j.j.j.j.j.j.k.k.p.M d z @.0.2.=.@.@.",
"C C C V V V V V m - $ 2 y.s.e.3 w t a L f 3 > 7 y.s.s.s.i.i.i.i.i.i.i.s.s.s.~ M f C @.5.,.&.@.@.",
"V V V V V V V V m d $ 2 w.s.e.3 w a j L k d ; , < w.w.q.t.t.t.t.t.t.t.t.y.y.8 M f C @.2.,.@.O.@.",
"B B B V V V V V m d % 6 y.s.e.3 y a G P l r X ; > , , , , , , , , , , < q.q.8 m B C @.2.=.@.O.@.",
"C C C C V V V V m 3 2 7 y.s.y.8 - k G P G f % 2 7 i.i.i.i.i.i.i.i.i.i.i.i.s.u.' M { O.,.=.@.@.@.",
"} } C C C C V B n 6 2 7 w.x.y.7 5 N G P G l f M / g.l.l.z.z.z.z.z.z.z.z.z.z.f./ Q ` | =.=.@.@.@.",
"@.@.@.O.} C V B n 6 , q.r.x.a.i.W N x P H G l ` L.B.Z.Z.A.A.A.A.A.A.A.C.C.C.N.d.^ ] | =.=.@.@.@.",
"O.O.O.} C C V V m 6 , q.a.x.s.u.^ _ C H H H K }  .L.K.m.B.B.Z.A.C.Z.D.D.V.V.z.d.^ ] | =.@.@.@.@.",
"C C C C C C C V N 6 , q.a.x.s.j.) ] V S H U Y K } ` [ ..f.m.B.Z.Z.Z.V.V.S.N.l.d.^ ] | =.@.@.@.@.",
"V V C C C C C C N 6 , q.a.c.j.j.g.] V s H Y |.Y K l g _ ^ ) m.C.Z.V.S.V.N.z.j.d.^ ] | #.@.@.O.O.",
"V V C C C C V B n 2 > < w.a.i.i.d.~ N k G P }.Y U K J } { [ ..L.K.h.z.z.l.l.d.^ W _ { @.@.@.O.O.",
"V V C C O.C B f - 2 ; , < q.w.! ^ Q M f l H I Y Y Y Y o.X.O.| ` [ ) ) d.d.d.^ W 4 M V T O.O.O.O.",
"C C C O.@.C f d % $ X ; ; , , < ! 4 5 n k G I }.|. X X X XY K l g _ ^ ^ ^ ^ W 4 * h z T T T O.O.",
"C C C C O.V f % & % % : : : n n N V V x J U }.|. X X X X X|.U K J } { ` { { ` g g z z x C T O.O.",
"C C C C C B r & w w e c c c b Z J K K U Y |. X X X.X.X X X X|.Y Y o.X.X.X.X.X.K J J x z C C O.O.",
"C C C C C f r O w i p p p A D P I }.|. X X.X.X.X.X.X.X.X.X.X.X.X.X X.X X X X X|.|.U l f z C @.@.",
"C C C C C k r @ w i p A A A D P }.|. X X.X.X.X.X.X.X.X.X.X.X.X.X.X X X|.|.|.}.I I H x f x C @.@.",
"T T T C C z t w e i A A A D F I }.|. X.X.X.X.X.X.X.X.X.X.X.X.X X X X|.|.}.}.I P D S l k C T @.@.",
"R @.T T T l t w e p A A D D F I |.|. X.X.X.X.X.X.X.X.X.X.X.X X X X X|.}.I I F D A s l k C T @.@.",
"@.@.@.@.O.x a w e p A A D D F I |.|. X.X.X.X.X.X.X.X.X.X.X.X.X X X X X|.}.I F S i a k k C T @.@.",
"#.#.#.#.#.T a w e p A A D D F I |.|. X.X.X.X.X.X.X.X.X.X.X.X.X.X X X X|.}.I H s e t t f C T #.#.",
"=.#.,.,.2.T a w e p A A D D P I |.|. X.X.X.X.X.X.X.X.X.X.X.X.X.X.X X X X|.}.H s w y t f x T =.=.",
"=.=.=.,.,.T a w 9 i i p s S D P I }.|.|.|.|.|.|.|.|.|.|.|.|.|.|.|.}.}.Y P P s t # y f k C T =.=.",
"#.#.#.>.>.T t + w w e i i s S D P I I }.}.}.}.}.}.}.}.}.}.}.}.}.I I P H G s u y + r f x T O.#.#.",
"#.#.#.#.>.x t O + + w w 9 q s S D F F I I I I I I I I I I I I I P H H s a q 0 + O r k C T @.#.#.",
"#.#.#.#.>.x t O + + w w 9 q s S D F F I I I I I I I I I I I I I P H H S a q 0 + O r k C T @.#.#."
};
