/* XPM */
static char *f45ccd7d5acc4c289f5941cc988cd56d[] = {
/* columns rows colors chars-per-pixel */
"48 48 169 2 ",
"   c #50362E",
".  c #55382F",
"X  c #583A2F",
"o  c #553C33",
"O  c #5C3E33",
"+  c #673E2F",
"@  c #633F32",
"#  c #693F31",
"$  c #5E4035",
"%  c #644134",
"&  c #684033",
"*  c #684133",
"=  c #694133",
"-  c #684032",
";  c #6A4032",
":  c #6B4032",
">  c #6A4132",
",  c #6A4033",
"<  c #6A4133",
"1  c #6B4133",
"2  c #694233",
"3  c #6A4233",
"4  c #6B4233",
"5  c #6A4131",
"6  c #6C4031",
"7  c #6C4032",
"8  c #6D4133",
"9  c #6F4132",
"0  c #6D4232",
"q  c #6E4233",
"w  c #6F4333",
"e  c #684134",
"r  c #694134",
"t  c #6A4134",
"y  c #684234",
"u  c #694234",
"i  c #684235",
"p  c #694235",
"a  c #694335",
"s  c #6A4234",
"d  c #6B4234",
"f  c #6A4235",
"g  c #6B4235",
"h  c #6A4335",
"j  c #6B4335",
"k  c #684236",
"l  c #684336",
"z  c #694336",
"x  c #694337",
"c  c #6A4336",
"v  c #6B4336",
"b  c #6A4337",
"n  c #6C4234",
"m  c #6D4234",
"M  c #6C4334",
"N  c #6D4334",
"B  c #6C4235",
"V  c #6C4335",
"C  c #6D4335",
"Z  c #6E4234",
"A  c #6E4334",
"S  c #6F4334",
"D  c #6E4335",
"F  c #6F4335",
"G  c #6C4336",
"H  c #6D4336",
"J  c #694437",
"K  c #6B4436",
"L  c #6B4437",
"P  c #6D4435",
"I  c #6E4435",
"U  c #6F4435",
"Y  c #6C4436",
"T  c #6D4436",
"R  c #6C4437",
"E  c #6D4437",
"W  c #6C4537",
"Q  c #6E4436",
"!  c #6F4436",
"~  c #6F4536",
"^  c #6E4537",
"/  c #6F4537",
"(  c #6C4335",
")  c #694438",
"_  c #6C4438",
"`  c #6E4538",
"'  c #704232",
"]  c #704233",
"[  c #704334",
"{  c #714334",
"}  c #704335",
"|  c #714335",
" . c #744334",
".. c #704434",
"X. c #714434",
"o. c #704435",
"O. c #714435",
"+. c #724434",
"@. c #734434",
"#. c #724435",
"$. c #734435",
"%. c #724535",
"&. c #734535",
"*. c #704436",
"=. c #714436",
"-. c #704536",
";. c #714536",
":. c #704537",
">. c #714537",
",. c #724436",
"<. c #724536",
"1. c #734536",
"2. c #724537",
"3. c #734537",
"4. c #704637",
"5. c #714637",
"6. c #724636",
"7. c #724637",
"8. c #734637",
"9. c #734737",
"0. c #754434",
"q. c #744534",
"w. c #744435",
"e. c #754435",
"r. c #744535",
"t. c #754535",
"y. c #764535",
"u. c #744536",
"i. c #754536",
"p. c #744537",
"a. c #764536",
"s. c #744636",
"d. c #754636",
"f. c #744637",
"g. c #754637",
"h. c #744737",
"j. c #754737",
"k. c #764636",
"l. c #774636",
"z. c #764637",
"x. c #764737",
"c. c #734536",
"v. c #784535",
"b. c #784635",
"n. c #784636",
"m. c #794636",
"M. c #784736",
"N. c #794736",
"B. c #784737",
"V. c #7B4736",
"C. c #794736",
"Z. c #794837",
"A. c #7B4837",
"S. c #714639",
"D. c #714739",
"F. c #724638",
"G. c #754739",
"H. c #764738",
"J. c #774738",
"K. c #754738",
"L. c #774838",
"P. c #764939",
"I. c #774838",
"U. c #784838",
"Y. c #794838",
"T. c #7A4939",
"R. c #7A4A3B",
"E. c #7A4838",
"W. c #834B38",
/* pixels */
"& & n *.l.l.l.l.! t & t ! *.n i @ @ & = t n ! t t t % O X O @ t t J ! ! ! ! ! ! *.l.l.m.m.U.U.U.",
"& & n *.l.l.l.l.! t & t ! *.t i @ @ & = t n ! t t t @ O X O @ t t J ! ! ! ! ! ! *.*.l.m.m.U.U.U.",
"= = n *.l.*.*.*.n t i t t ! t & @ & = n n ! ! n t t i @ O @ = n t t i i i @ & = = 0 *.*.l.m.U.U.",
"t t n ! *.! ! n t t t t t t = @ @ = [ l.*.*.*.n t t t = @ = n *.n i % @ O O O @ @ = t ! *.l.U.U.",
"n n n ! ` ! t i t J ! t t & @ # # 0 l.m.m.l.*.n n t t n n [ *.l.0 i O O o   . O O @ i t ! *.U.U.",
"n n n ! ` t i % i i t t t & = = 0 ] l.m.l.l.*.[ n t n n [ *.l.l.n = @ O O O O O @ & i t ! *.G.G.",
"n n t t J i % O % % i i i t t n n *.l.l.l.l.*.[ n = n [ l.l.l.l.[ = @ @ @ @ @ @ & i i i t *.l.l.",
"! n t t i % $ O O @ % & i t n ! *.*.l.l.l.l.l.[ 0 = 0 *.l.l.l.l.[ 0 = = = = = t t i i i t ! *.*.",
"! n t t i % $ O O % & i t t n ! *.*.*.l.*.*.*.n t & t [ l.l.l.*.*.n 0 0 n *.! ! ! t t i t ! *.*.",
"n n t t i % % O % % & t t n ! ! ! *.*.*.*.! ! t i @ t n *.*.*.l.*.[ 0 *.l.l.l.*.*.! t i t n *.*.",
"n n t i i % % % % i = t n ! ! ! ! ! *.*.! ! J i % @ i t ! *.*.*.*.*.*.l.m.V.A.U.L.*.t i t n n n ",
"*.*.n t % % % O % i = n ! *.*.! ! ! ! ! t t i % % O % i t n ! *.*.*.*.l.l.m.l.*.! ! t i t t n n ",
"G.G.! t % @ @ O @ & = n *.l.*.! ! t t t i % % $ O O O % & t n ! ! [ [ *.l.l.*.! t i i i t t n n ",
"R.R.D.t @ O O O @ & 0 n l.L.*.*.! t i % % O O O O O O @ @ & t n n n [ *.*.*.! i @ @ & i t t n n ",
"D.D.J i O O O O @ & = n *.l.*.! t t & @ % % % @ O O O @ @ = n *.*.*.*.*.*.! n t & & t t t t t t ",
") ) i % O O O % % @ # 0 *.l.*.! t & & @ & i i % @ O @ @ = 0 [ l.*.*.*.*.! ! t t = t n *.! n t t ",
"% % $ O O O $ % i @ + = n *.! n = = @ @ = = n t @ O @ @ 0 ]  .m.l.l.*.! ! t t t = n *.G.D.! t t ",
"$ $ O O O O $ % i & # 0 ! *.! n = = = = 0 n n t i @ & = 0 ] [ l.*.*.! t t i i t = n *.G.D.! i i ",
"O O O O O O % % i = = n *.*.! n 0 0 0 ] n n n n n t 0 0 0 ] *.l.*.! ! t i % & i t n *.U.*.J i i ",
"O O O O O $ % % i t n n *.*.*.n 0 [ [ l.*.[ n n *.*.[ 0 0 ] *.*.*.! t i % O @ & t n *.U.*.J i i ",
"O O O O O O O $ % % i t t n n n [ [ [ [ [ [ [ *.*.*.*.[ ] *.l.l.*.! t i @ O @ @ & n l.U.l.! i i ",
"O O O O O O O O O O @ % i & n n *.*.n n [ [ *.*.*.*.*.l.l.l.m.m.l.! t i @ O @ @ @ n l.U.l.! % i ",
"O O O o o o o o o O O O O @ = n l.*.n = n [ l.l.*.*.l.l.m.m.A.V.l.! t i @ O O @ @ 0 l.A.l.! i i ",
"O O O o o o o o o o o O O @ = n l.*.n n n *.l.l.*.*.*.l.l.l.l.m.*.! t t i @ & = ] *.l.m.*.J i i ",
"o o o o o o o o o o o O O @ # n l.*.*.! *.*.l.l.*.*.*.l.l.l.l.*.*.! n t t & n *.m.m.m.l.*.t % % ",
"o o o o o o o o o o o O X + @ 0 *.l.*.*.*.G.G.l.*.n *.*.*.*.*.n n n n n n 0 l.V.W.V.A.l.! t % % ",
"O O O o o o o o o O O O @ @ = [ l.*.*.*.*.l.l.*.*.[ *.*.*.*.n n n *.*.[ [ [ l.m.V.A.l.l.! t i i ",
"$ $ O O O O o o O O @ @ = 0 [ *.G.G.*.*.*.l.l.*.*.*.*.*.! n n n [ *.l.l.*.*.*.l.l.l.*.*.! t i i ",
"i i i % $ O o o O @ = 0 n *.l.G.L.G.D.*.*.*.l.*.*.*.! n n n n n [ l.m.m.l.l.*.*.! *.*.D.! t i i ",
"% % $ $ O O O o O @ = n [ *.l.l.U.G.l.*.*.*.*.! n t t t t t t = n l.m.m.m.l.l.*.n *.*.*.! t i i ",
"O O O O O O O O O @ = n [ l.l.l.U.l.l.l.*.*.! t i & i i i i i & n l.V.m.m.m.l.*.n *.*.*.! t i i ",
"o o O O O O O O @ i t n *.l.l.l.A.m.l.l.*.! ! i % O @ % % i & @ 0 l.V.V.A.U.l.*.n *.*.*.! t % % ",
"o o O O @ O O O % i t n *.l.l.l.l.l.*.! ! J i i % O @ % i i & @ 0 l.m.m.l.l.*.[ n [ *.l.! t % % ",
"o o O O % % % O % i t n *.l.l.l.l.*.! J t i % % @ @ & i t t = = 0 *.l.l.l.*.[ n n n *.l.*.t % % ",
"O O O % i i % $ % i n n *.l.l.l.l.*.J i i % O @ @ @ & & t = 0 0 0 [ l.*.*.[ n n = n l.m.*.t % % ",
"O O O $ % % % $ % i t n n [ *.*.*.! t i % % O @ @ @ & t ! n n 0 [ *.l.*.*.*.[ [ n [ *.l.! t % % ",
"O O O O $ $ $ O $ % i t t n n n n t i & % @ O @ @ @ i ! *.*.*.n *.*.*.l.l.l.l.*.*.*.*.*.n t % % ",
"O O O O O O O O O % % i i t t t t i & @ @ @ O @ @ @ i ! L.l.*.*.*.*.l.l.l.l.l.l.l.l.*.[ n t i i ",
"O O O O O O O O O O @ @ i t t t t t t = & & @ % % % t ! D.*.! n n ! ! *.*.l.l.l.l.l.l.l.*.t i i ",
"@ @ @ @ @ @ O O O O O @ @ & & = = t n ! n t t i i i t ! ! ! n t t t n n [ *.*.*.l.l.l.m.*.n i i ",
"= = & @ @ @ O O O O O O @ @ @ & = 0 *.l.*.n n t t i J J ! t i & & & = t n [ [ [ [ l.m.A.l.! t t ",
"t t t t = = & & @ @ @ @ & & = n n *.*.l.*.! n t t i i t t t i & = = t n *.*.*.*.[ l.l.A.l.*.t t ",
"n n n [ *.*.[ n n n n n t t n *.*.*.*.*.*.! ! t i i i i i i & @ = n n *.l.l.l.l.[ l.l.m.l.*.n n ",
"! ! *.l.m.m.m.m.l.l.l.*.*.n *.l.B.l.l.*.*.! ! J i % i i i & @ @ = n *.l.l.A.m.l.[ *.l.l.l.*.! ! ",
"! ! *.l.l.l.m.m.l.*.*.*.! n *.*.*.*.*.*.! ! t t i i i % % % & @ = n *.*.l.l.l.*.0 [ l.l.*.*.! ! ",
"n n *.*.l.l.l.l.l.*.! ! ! ! ! ! *.*.*.*.! t t i i % % % % % % % t n *.*.*.l.*.n = n *.l.*.*.n n ",
"n n ! *.l.l.l.G.*.! t t n ! ! n n ! *.*.! t i i i % % % % % % % t n *.*.*.*.n = = 0 *.l.*.*.n n ",
"n n ! *.l.l.l.G.*.! t t n ! ! n n ! *.*.! t i i i % % % % % % % t n *.*.*.*.n = = 0 *.l.*.*.n n "
};
