/* XPM */
static char *_6d0740cab48410eb96e62d1d7b581ab[] = {
/* columns rows colors chars-per-pixel */
"48 48 190 2 ",
"   c #141517",
".  c #151619",
"X  c #181719",
"o  c #171D1C",
"O  c #191C1E",
"+  c #2B1B1C",
"@  c #3F1D1D",
"#  c #1D1E21",
"$  c #2F1F21",
"%  c #311E20",
"&  c #1E2323",
"*  c #1E2825",
"=  c #212326",
"-  c #2C2324",
";  c #23252A",
":  c #26292D",
">  c #292A2F",
",  c #2E2528",
"<  c #312322",
"1  c #332629",
"2  c #33292D",
"3  c #3B2527",
"4  c #22322B",
"5  c #28342D",
"6  c #2B2D32",
"7  c #322E33",
"8  c #2D3235",
"9  c #263C31",
"0  c #293E34",
"q  c #2F3238",
"w  c #273530",
"e  c #33353B",
"r  c #36393F",
"t  c #333334",
"y  c #411F1F",
"u  c #442323",
"i  c #4E2525",
"p  c #4F2728",
"a  c #442B2C",
"s  c #4C2A2B",
"d  c #542727",
"f  c #562B2B",
"g  c #5A2C2C",
"h  c #43332B",
"j  c #4D2F31",
"k  c #402E31",
"l  c #5C2F30",
"z  c #4F3032",
"x  c #4F3C33",
"c  c #413337",
"v  c #543133",
"b  c #5D3231",
"n  c #583B34",
"m  c #632F2F",
"M  c #643334",
"N  c #6B3535",
"B  c #623E3A",
"V  c #6D3838",
"C  c #603E37",
"Z  c #743737",
"A  c #743B3B",
"S  c #7B3B3B",
"D  c #294134",
"F  c #2B4638",
"G  c #2E4838",
"H  c #32463A",
"J  c #2F513E",
"K  c #414437",
"L  c #55453A",
"P  c #564C3E",
"I  c #5C4A3E",
"U  c #554439",
"Y  c #44523E",
"T  c #61403A",
"R  c #373A40",
"E  c #393C43",
"W  c #443C42",
"Q  c #4B3D43",
"!  c #7D3B41",
"~  c #3E424A",
"^  c #384844",
"/  c #335642",
"(  c #335A45",
")  c #375D49",
"_  c #3A674D",
"`  c #3C694D",
"'  c #3E6F53",
"]  c #3F7457",
"[  c #444147",
"{  c #4A4147",
"}  c #42454C",
"|  c #4A484F",
" . c #504248",
".. c #5E4F42",
"X. c #5B5344",
"o. c #454951",
"O. c #494E56",
"+. c #4B4F58",
"@. c #554D55",
"#. c #4D525B",
"$. c #53535D",
"%. c #495944",
"&. c #6C4C43",
"*. c #7C4242",
"=. c #784844",
"-. c #7D524D",
";. c #4B6A4E",
":. c #49674D",
">. c #52644D",
",. c #4C6D50",
"<. c #526952",
"1. c #5F6450",
"2. c #417555",
"3. c #4E7456",
"4. c #407658",
"5. c #437B59",
"6. c #4F7C5B",
"7. c #497956",
"8. c #567256",
"9. c #547D5C",
"0. c #577358",
"q. c #61634F",
"w. c #525761",
"e. c #873F3F",
"r. c #824444",
"t. c #8B4242",
"y. c #864E4B",
"u. c #8E4B4A",
"i. c #884846",
"p. c #944646",
"a. c #954B4B",
"s. c #9B4D4D",
"d. c #924549",
"f. c #8D5348",
"g. c #93564D",
"h. c #975050",
"j. c #9C5151",
"k. c #9D5F56",
"l. c #A44E4E",
"z. c #A35555",
"x. c #AC5454",
"c. c #A45A5A",
"v. c #AC5B5B",
"b. c #B05555",
"n. c #B35C5C",
"m. c #9F6058",
"M. c #A6605D",
"N. c #905E61",
"B. c #916B62",
"V. c #AD6766",
"C. c #AF6867",
"Z. c #B66262",
"A. c #B66A69",
"S. c #B96B6B",
"D. c #AA7E7E",
"F. c #4A835E",
"G. c #47835E",
"H. c #54835E",
"J. c #4A8562",
"K. c #4C8C64",
"L. c #4D8F6A",
"P. c #558763",
"I. c #558C65",
"U. c #4E9067",
"Y. c #4E936A",
"T. c #4F9B6F",
"R. c #53946A",
"E. c #549D6E",
"W. c #589A6C",
"Q. c #4F9B72",
"!. c #539E72",
"~. c #509D78",
"^. c #56A16F",
"/. c #58A26F",
"(. c #55A072",
"). c #56A172",
"_. c #57A273",
"`. c #56A171",
"'. c #53A074",
"]. c #56A174",
"[. c #56A175",
"{. c #56A172",
"}. c #58A270",
"|. c #58A372",
" X c #58A375",
".X c #58A372",
"XX c #5BA679",
"oX c #B78C82",
"OX c #CFA29D",
"+X c #D3A5A0",
/* pixels */
"!.`.}._.!._.`.`.'.!.!.`.!.Q.(.`.}.E.(.!.`._.`.!.!._.}.`.`./.^.`.`.`.`.!.`.!.`. X}._.}.}.`.`.!.`.",
"`.`.}._._. X`.`.`.`.!.`.Q.!.9.9.9.9.H.R.!.`.`.`.`.`.!.!.H.9.9.9.9.R.`.!.!.!._.`.}. X`.`.}.`.`.`.",
"!.`.`.}.!.`.`.}._.`.!.}.E.I.T T T C I 8.E.`.`.!.`.`.E.I.X.C T T I 0.E._.!.!.!.!.XX!._.!.!.!.!.!.",
"`.}.!..X`._.`.`.`.`.`..XP.P s.s.s.s.i.&.9.`.`._._.!.I.P i.a.s.s.u.&.9._.!.!.`. X!. X!.!.`.!.!.!.",
"`.`.`.`.`._.!.`.!.}.`.!.9.d A.OXD.! s.Z <.`.}._.!._.9.f a.d.N.+XC.A 8. X`.}._.`.!.}.`.!.!._.`.^.",
"E.^.}.`.!.`.}.`.!.`.`.!.9.d S.oXB.A j.A <.`.`.`.'.!.9.f j.a.-.oXV.A 8.~._.XX X}.`.}.!._.`.`.!.E.",
"!.}.`.!.`.`.`.!.!.!.`.!.9.d A.k.g.g.M.*.<.`.`.}.!.!.9.f c.M.f.m.M.A <._.!.!.`.!.!._.!.!.}.!.`.!.",
"`.`.!.`.!.!.`.!.`.!.`.`.9.d Z.A.A.S.V.*.<.`.`.!.`.!.9.f c.S.A.A.v.A 8._.!.`.`.`.`.`.`.`.`.!.!.`.",
"}.`.`.`.Q.!.!.!.!.!./.`.L.0.S c.v.u.=.q.I.`.!.!.XX!.R.0.&.r.z.c.=.1.R.!.`.}.`.`.!.!.`.!.!.!.!.!.",
"^.`.(.`.!.E.!.!.!.`.}.}.!.!.P y.a.e.b %.2.4.4.4.] 4.4.2.x N p.y.X.P.`.!.'.!.`.}.!.`.}.}.`.E.!.!.",
".X`.!.`.!.E.^.!.!.}.^.^.`.`.W.L S s.g + .             X u S p.L I.`.`.!.!.`..X!.!.`.`.`.`.E.!.!.",
"`.!.!.`.!.E./.!.!.`.}.`.`.`.I.U r.z.M 3 = # # # # # = > f i.j.U 6.E.}.`.`.}.!.!.!.`.`.!.E.^.!.!.",
"`.`.`.`.!.}.}.E.!.`.`.`.E.R.5 s r.n.a.N 1 = # # # = , s t.x.h.a H 4.!.!.!._._.!.!.`.`.`.!.!.!.`.",
"!.`.!.!.`.`.}.`.!.`.!.`.K./ 7 s r.Z.x.A u - + + + < 3 f s.n.h.s t J J.`.!.!.`.`.`.`.`.`.!.!.`.}.",
"`.!.!.`.!.!.!.!.!.!.!.5.( > | v r.Z.v.A g V V V V V M i j.Z.h.z [ e / G.E.T.`.`.`.`.^.`.!._.`.!.",
"`.`.!.!.!.`.!.!.!.!.4.9 ; ~ | j *.Z.v.i.p.n.n.n.n.n.j.N c.Z.s.s [ } > F 4.E.!.`..X.X/.}._.`.!.!.",
" X`.Q.!.`.`.!.`.`.`.0 = : e [ v r.Z.Z.v.x.b.b.b.b.b.x.z.n.Z.h.z W r 6 = D Y._.`.!.`.}.`.!.`._.`.",
"_.!.!.`.!.}.`.`.`.}.4 & 6 6 a r.c.Z.Z.n.b.b.b.b.b.b.b.b.Z.Z.v.*.j 7 6 # 4 K.!.`._.!.}.`.!.`.!.`.",
"!.Q.Q.!.`.`.`.!.E.`.4 & 6 6 u h.z.s.x.b.b.b.b.b.b.b.b.b.b.z.j.s.s 2 6 # 4 K.!.!._.!.!.`.!.`.!.}.",
"_.!.`.`.`.}.!.!.E.K.5 ; : 6 u u.s.p.x.x.x.b.b.b.b.b.x.l.x.l.a.u.s 2 : = w ] E.!.`.}.`.`.}.`.`..X",
"_.`.}.}.`.E.E.!.K.0 E 6 & : y S s.x.x.p.s.b.b.b.b.b.l.t.l.x.l.Z u , = q r * R._.`.}.`.`.!.}.`.`.",
"`.}.`.`.T.E.E.` : : q E E # i i Z a.m e.x.b.b.b.b.b.x.l.m Z t.u u - e E q 6 O D `.`.!.!.!.`.`._.",
"!.`.`.`.`.^.`.` * > 6 ~ E # f r.S N t.l.b.b.b.b.b.b.b.x.p.S N r.f - r E q 6 . 9 `.^.!.!.`.!._.`.",
"!.`.!.`.`.`.`._ * ; 6 R E 6 f s.p.S z.b.b.b.b.b.b.b.b.b.x.p.*.s.l 2 r r 6 > . 0 `.^.}.`.`.`.`.`.",
"`.`.`.`.`.!.L.) ; ; 6 6 e o.p t.x.Z.Z.b.b.b.b.b.b.b.b.b.n.Z.v.t.v W R 6 6 : # 0 K.!._.`.`.`.!.(.",
"`.`.`.`.`.!.( : } w.: : e o.# i S b.Z.Z.b.b.b.b.b.b.b.Z.Z.n.p.u - E R ; 6 #.o.r o !.!.!.`.`.`.`.",
"`.^.}.`.`.!.( = e o.; : e o.# i S b.Z.Z.b.b.b.b.b.b.b.Z.Z.n.p.u - E R ; : o.e 6 o E.!.!. X`.!.`.",
"`./.^.}.`.}.( # q } ; : e o.# i S b.Z.Z.b.b.b.b.b.b.b.Z.Z.n.p.u - E R ; : } q : o `._._.!.`.`.E.",
"}.^.^.`._._.( O : R ; : e o.3 V a.n.Z.n.b.b.b.b.b.b.b.n.Z.n.z.N a W R ; ; R : = o _._._.!.!.`.!.",
"^.^.}._._._.` & & : = 6 E o.f s.n.Z.n.b.b.b.b.Z.b.b.b.b.n.Z.n.a.b Q E 6 ; 6 # & 4 !.!.}.`.!.`.!.",
"^.}.`.!.`.`.K.J & & : ~ +.o.f j.Z.Z.b.b.b.b.b.Z.b.b.b.b.b.n.Z.s.M Q +.E 6 = . 4 5.`.!.!.!.!.!.!.",
"^.`.!.!.}.}.`._ * ; 6 O.$.v j.v.Z.n.b.b.b.b.n.Z.n.b.b.b.b.b.Z.v.a.B @.o.q > . 0 !.`.!._.!.`.!.}.",
"`.!.!.`.!.!._._ * > } +.| d Z.Z.n.b.b.b.b.n.Z.Z.Z.n.b.b.b.b.n.Z.v.A  .O.} e . 9 !.!.}._.!.}.`..X",
"!.`.!..X!.!. X4.0 : #.#.{ d n.n.n.b.b.b.n.n.v.v.v.n.n.b.b.b.b.n.z.A Q #.#.6 4 / `.`.`. X!.!.!.!.",
"`.`.`.`.!._._.!.F.: #.#.{ d b.b.b.Z.Z.Z.Z.z.t.t.t.x.Z.Z.Z.Z.n.b.l.Z Q $.O.# K.E.!.`..X_. X`.!.!.",
"!.`.!.}._.`._.'.J.4 E k g x.Z.b.b.Z.Z.Z.j.t.t.t.e.e.a.Z.Z.Z.n.b.n.b.N c E O Y.}.`.`.(.`.!.`.}.!.",
"`.`.`.`.`._.`. XE.F.w % g n.Z.n.Z.Z.n.z.t.e.e.e.e.e.t.a.v.Z.Z.n.Z.Z.N $ w ' E.`.`.}.`.}.`.!.!.`.",
"`.`.`.`.!.!._. X_.`.4 + g Z.Z.Z.Z.Z.n.s.e.e.e.e.e.t.e.t.v.Z.Z.Z.Z.Z.N + 4 U.`.`.`._.!._.}.^.`.`.",
"`.`. X_.!.!.`.`._.!.4 + g Z.Z.Z.Z.Z.v.a.e.e.e.e.e.e.e.t.z.n.Z.Z.Z.Z.N + 4 K.(.`.!.!.!.!.(.`.}.`.",
"_.`. X_._.}.!._.!._.F < b Z.Z.Z.Z.v.t.e.e.e.e.e.e.e.e.e.t.s.Z.Z.Z.Z.N - G R.}.`.}._.`.`.(.`.}.!.",
" X_._._._.!.`._.!.'.L.K b Z.Z.Z.Z.v.t.e.e.e.e.e.e.e.e.e.t.s.Z.Z.Z.Z.N Y J.!.'._._._.`.`.`.`.}.`.",
"_. X!.!.`._.!.!. X`._.3.X.r.Z.Z.v.s.t.e.e.e.e.e.e.e.e.e.t.p.x.Z.v.a...6.E.`.!._._.!.!.!.!. X}.`.",
"`._.`.`._._. X_.!..X`.`.6.@ Z.z.a.e.e.e.e.e.e.e.e.e.e.e.e.e.p.v.z.M ,.`.`.!._.`.`.!.!.!._._._._.",
"`._. X}._. X_.!.!.}.}._.H.h z.p.t.e.e.e.e.e.e.e.e.e.e.e.e.e.t.p.a.C 3.!.!.`.`.}.`.`.!.!.`.`.`.`.",
"!.`.`. X_.!._._._. X.X`.R.6.g S e.e.e.e.e.e.e.e.e.e.e.e.e.e.e.S n >.R.!._._.!.!.`.!.`.!.!.!.`._.",
"`.`.`.`.!._.!.!._._._.}._.`.6.x i i i i i i i i i i i i i i i x 3.R._.!._.!. X`.}.!.!.`.`.!.`.`.",
"!.!.`.`.}.`. X_. X!.!.'.`._.!.3.;.;.;.;.:.;.;.;.;.;.;.;.;.;.;.6.R.`.`.`.!._.`.`.`.!.!.!.`.`.`.`.",
"!.`.`.!._._._._.!.!.!.!._.!.!.^.E.E.E.E.E.E.T.!.!.!.!.!.!.E.E.!.!._.!._.!.`.`.`.`.!.!.`.`._.!.!."
};
