/* XPM */
static char *c6f15045d19446be93d63cfb9f5e659c[] = {
/* columns rows colors chars-per-pixel */
"48 48 174 2 ",
"   c #131416",
".  c #161719",
"X  c #17181B",
"o  c #181A1D",
"O  c #241D1F",
"+  c #3C1C1C",
"@  c #1C1E21",
"#  c #321F20",
"$  c #1F2125",
"%  c #1F2B27",
"&  c #212327",
"*  c #292325",
"=  c #222F27",
"-  c #24262A",
";  c #26292D",
":  c #282B2F",
">  c #322323",
",  c #3B2324",
"<  c #352628",
"1  c #23342C",
"2  c #34352D",
"3  c #2B2D33",
"4  c #273531",
"5  c #2D3135",
"6  c #263C31",
"7  c #2A3C33",
"8  c #2F3238",
"9  c #32343A",
"0  c #35393E",
"q  c #42292A",
"w  c #4D2A2B",
"e  c #522626",
"r  c #572E2F",
"t  c #592D2D",
"y  c #41362D",
"u  c #52312D",
"i  c #4F3233",
"p  c #423C31",
"a  c #4B3B33",
"s  c #5B3031",
"d  c #543D35",
"f  c #653333",
"g  c #6A3636",
"h  c #6C3738",
"j  c #743C3C",
"k  c #294335",
"l  c #2D493B",
"z  c #31513F",
"x  c #464F3D",
"c  c #534438",
"v  c #5C4239",
"b  c #67453E",
"n  c #6B433D",
"m  c #373A41",
"M  c #3A3D44",
"N  c #3E4249",
"B  c #325541",
"V  c #365D46",
"C  c #3E5B44",
"Z  c #365A48",
"A  c #3A624A",
"S  c #3D6F53",
"D  c #3F7153",
"F  c #41454C",
"G  c #465945",
"H  c #535242",
"J  c #5F5144",
"K  c #5F5848",
"L  c #464A52",
"P  c #494D56",
"I  c #4A4F58",
"U  c #4E535C",
"Y  c #50555F",
"T  c #7D4442",
"R  c #7C4A47",
"E  c #407253",
"W  c #4C7555",
"Q  c #447D5B",
"!  c #4F7C5B",
"~  c #5A7055",
"^  c #515760",
"/  c #535963",
"(  c #575D68",
")  c #595F6A",
"_  c #853E3E",
"`  c #864141",
"'  c #8D4242",
"]  c #8A4A4A",
"[  c #934545",
"{  c #9C4B4B",
"}  c #955351",
"|  c #9D5252",
" . c #985A59",
".. c #A34E4E",
"X. c #A45555",
"o. c #AA5353",
"O. c #A55B5B",
"+. c #AC5A5A",
"@. c #B05555",
"#. c #B35B5B",
"$. c #A86161",
"%. c #B66363",
"&. c #BB6D6D",
"*. c #47815D",
"=. c #48845E",
"-. c #52815F",
";. c #478360",
":. c #4B8560",
">. c #4C8B64",
",. c #4B8F68",
"<. c #538562",
"1. c #558B64",
"2. c #4F9267",
"3. c #4E9269",
"4. c #4F9A6F",
"5. c #52966A",
"6. c #549D6F",
"7. c #4F9B72",
"8. c #539E72",
"9. c #509D78",
"0. c #57A16F",
"q. c #58A26F",
"w. c #58A26F",
"e. c #52A173",
"r. c #53A071",
"t. c #55A071",
"y. c #54A171",
"u. c #56A070",
"i. c #56A170",
"p. c #57A170",
"a. c #56A071",
"s. c #56A171",
"d. c #57A171",
"f. c #57A071",
"g. c #54A271",
"h. c #57A271",
"j. c #57A271",
"k. c #55A072",
"l. c #55A073",
"z. c #54A172",
"x. c #56A072",
"c. c #56A172",
"v. c #56A073",
"b. c #56A173",
"n. c #57A172",
"m. c #54A273",
"M. c #57A272",
"N. c #57A273",
"B. c #56A272",
"V. c #53A074",
"C. c #55A074",
"Z. c #56A174",
"A. c #57A274",
"S. c #55A177",
"D. c #56A176",
"F. c #57A376",
"G. c #55A274",
"H. c #56A172",
"J. c #58A270",
"K. c #58A370",
"L. c #58A271",
"P. c #58A371",
"I. c #58A272",
"U. c #58A372",
"Y. c #58A373",
"T. c #58A273",
"R. c #59A471",
"E. c #59A472",
"W. c #5CA572",
"Q. c #58A374",
"!. c #58A377",
"~. c #5AA476",
"^. c #5DA776",
"/. c #58A372",
/* pixels */
"8.p.J.A.8.A.p.p.V.8.8.p.8.7.r.p.J.8.p.8.p.A.p.8.8.8.J.p.p.w.0.p.p.p.p.8.p.8.p.Q.J.A.J.J.p.p.8.p.",
"p.p.J.A.A.Q.p.p.p.p.8.p.7.6.1.g g g h J ~ p.p.p.p.p.8.<.b g h h g -.6.8.8.8.A.p.J.Q.p.p.J.p.p.p.",
"8.p.p.J.8.p.p.J.A.p.8.J.8.1.H X.X.O.$. .J p.p.8.p.p.p.d } O.$.$.$.d 1.A.8.8.8.8.^.8.A.8.8.8.8.8.",
"p.J.8.E.p.A.p.p.p.p.p.E.8.<.c #.%.%.&.$.h p.p.A.A.8.Q.e X.%.&.&.&.e 1.A.8.8.A.~.8.!.8.8.p.8.8.8.",
"p.p.p.p.p.A.8.p.8.J.p.8.8.1.c @.#.#.%.O.g p.J.A.8.A.A.e X.#.%.&.&.e 1.J.p.J.A.p.8.J.p.8.8.A.p.0.",
"6.0.J.p.8.p.J.p.8.p.p.8.8.1.c @.@.#.%.X.g p.p.p.V.8.A.e { @.#.%.&.e 1.9.A.^.Q.J.p.J.8.A.p.p.8.6.",
"8.J.p.8.p.p.p.8.8.8.p.8.p.1.c @.@.@.#.X.g p.p.J.8.8.p.e { @.@.@.%.e <.A.8.8.p.8.8.A.8.8.J.8.p.8.",
"p.p.8.p.8.8.p.8.p.8.p.p.8.p.8.e _ @._ v <.p.p.8.p.8.A.p.v _ @.{ e ~.p.A.8.p.p.p.p.p.p.p.p.8.8.p.",
"J.p.p.p.7.8.8.8.8.8.w.p.7.8.p.d T o._ d ! 3.3.,.8.3.5.5.d _ o.{ u A.8.8.p.J.p.p.8.8.p.8.8.8.8.8.",
"0.p.r.p.8.6.8.8.8.p.J.J.8.p.p.1.K _ h > = 1 1 1 1 1 1 1 > h ' n -.Q.A.8.V.8.p.J.8.p.J.J.p.6.8.8.",
"E.p.8.p.8.6.0.8.8.J.0.0.p.p.J.p.C # < & & o o o o o o & & < , 2 p.p.p.8.8.p.W.8.8.p.p.p.p.6.8.8.",
"p.8.8.p.8.6.w.8.8.p.J.p.p.p.E.,.l . $ ; ; @ @ @ @ @ @ ; ; $ X % *.J.J.p.p.J.8.8.8.p.p.8.6.0.8.8.",
"p.p.p.p.8.J.J.6.8.p.p.p.p.p.8.6 X & 3 3 3 ; @ @ @ @ - ; 3 3 - @   8.A.p.8.A.A.8.8.p.p.p.8.8.8.p.",
"8.p.8.8.p.p.J.p.8.p.8.p.5.E 4 M L M ; 3 3 3 ; - & ; ; 3 3 ; 0 F L $ D 2.8.8.p.p.p.p.p.p.8.8.p.J.",
"p.8.8.p.8.8.8.8.8.8.8.4.Q 7 0 F L F 9 ; 3 3 ; - & ; 3 3 ; 9 F L L M 7 A 6.4.p.p.p.p.0.p.8.p.p.8.",
"p.p.8.8.8.p.8.8.8.8.8.Q 1 ; 8 F L L F m ; 3 ; - & ; 3 $ m F L L L 9 ; = Q 8.8.p.E.E.w.J.p.p.8.8.",
"Q.p.7.8.p.p.8.p.p.p.8.S o ; 3 9 N L L N ; 3 ; ; - ; 3 @ N L L F 0 3 ; @ E 8.A.p.8.p.J.p.8.p.A.p.",
"A.8.8.p.8.J.p.p.p.J.p.S o ; 3 3 0 N L F 0 - 3 3 3 3 - 9 F L F M 3 3 ; @ S 8.8.p.A.8.J.p.8.p.8.A.",
"8.7.7.8.p.p.p.8.6.p.p.S o ; 3 3 3 0 L L L @ 3 3 3 3 $ L L L M 8 3 3 - - Z >.8.8.p.8.8.p.8.A.8.J.",
"A.8.p.p.p.J.8.8.8.>.l ; M ; - 3 3 9 F L L @ 3 3 3 3 $ L L F m 8 3 - ; 9 ; l Q 8.p.J.p.p.J.p.p.E.",
"A.p.J.J.p.6.6.8.p.z ; 3 0 m - - 3 8 M L L $ 3 3 3 3 - L L M 8 3 ; @ m m 3 ; = A.p.J.p.p.8.J.p.p.",
"p.J.p.p.4.6.6.p.8.6 & 3 9 M ; - 3 3 M F L M - - - ; 0 L F M 3 3 ; @ M M 3 &   8.p.p.8.8.8.p.p.A.",
"8.p.p.p.p.0.p.J.p.6 o - 8 0 m ; - 3 9 m F L - $ & - M L m 9 3 ; $ m 0 9 - o   7.p.p.8.8.p.8.A.p.",
"8.p.8.p.p.p.p.p.V 0 F M - 9 F ; & 3 3 9 F L - $ & - M L 9 3 3 ; @ L 9 ; M L m B ,.p.J.p.p.p.p.p.",
"p.p.p.p.p.8.8.8.k 9 P F $ 9 F ; & 3 3 9 F L - $ & - M L 9 3 3 ; @ L 9 - F Y N 1 =.8.A.p.p.p.8.r.",
"p.p.p.p.p.8.8.8.k - M m $ 9 F ; & 3 3 9 F L - $ & - M L 9 3 3 ; @ L 9 - m F 3 1 :.8.8.8.p.p.p.p.",
"p.0.J.p.p.8.6.p.k - m m $ 9 F ; & 3 3 9 F L - $ & - M L 9 3 3 ; @ L 9 - m N 3 1 :.6.8.8.~.p.8.p.",
"p.w.0.J.p.p.8.8.k @ 3 3 $ 9 F ; & 3 3 9 F L - $ & - M L 9 3 3 ; @ L 9 - 3 8 $ 1 ;.p.A.A.8.p.p.6.",
"J.0.0.p.A.A.8.8.Q 1 @ - 8 L L ; & 3 3 9 F / ; $ & ; L L 9 3 3 ; @ L L m - $ . Q 5.A.A.A.8.8.p.8.",
"0.0.J.A.A.8.J.8.8.6 @ 3 m ^ I ; & 3 3 9 F ) M $ & : I L 9 3 3 ; @ L ^ F 3 -   p.J.8.8.J.p.8.p.8.",
"0.J.p.8.p.A.p.8.8.6 & 0 L P m ; ; 3 3 9 F ) M $ & : I L 9 3 3 3 & 9 P P 0 :   p.0.p.8.8.8.8.8.8.",
"0.p.8.8.J.J.A.p.8.V 4 m / F ; - 3 3 9 m F ) M $ & : I L m 9 3 3 ; @ F Y m ; k p.8.p.8.A.8.A.8.J.",
"p.8.8.p.8.8.A.8.8.8.B 3 U M - ; 3 3 M L P ) M $ & : I I L M 3 3 3 $ M P 3 = p.8.8.8.J.A.8.J.p.E.",
"8.p.8.E.8.8.Q.p.A.8.B - N - - 3 3 3 M L / ) M $ & : I ( L M 3 3 3 ; - 9 4 k 8.p.p.p.p.Q.8.8.8.8.",
"p.p.p.p.8.A.A.p.E.8.>.Z - - 3 3 3 9 F P / ) M $ & : I ) P F 0 8 3 3 - & A :.8.J.8.p.E.A.Q.p.8.8.",
"8.p.8.J.A.p.A.V.A.8.p.D o ; 3 3 3 0 U / ) 8 & X X o ; ) / U M 8 3 3 ; @ E 8.8.J.p.p.r.p.8.p.J.8.",
"p.p.p.p.p.A.p.Q.A.p.p.E o ; 3 3 0 N U ^ F X > r s q O M ^ U F M 3 3 ; @ D 8.p.p.p.J.p.J.p.8.8.p.",
"p.p.p.p.8.8.A.~.A.p.A.*.6 - 3 9 N P P N - , g { X.` w o N P P F 0 3 - 1 *.p.p.p.p.A.8.A.J.0.p.p.",
"p.p.Q.A.8.8.p.p.A.8.p.p.,.B = 3 0 M 3 & , _ { #.#.o.[ w & 3 M m 8 @ B Q J.8.r.p.8.8.8.8.r.p.J.p.",
"A.p.~.A.A.J.8.A.8.A.8.p.6.*.l 1 4 ; * q j _ { o.+...' _ q * - 3 1 1 *.6.p.p.J.p.Q.A.p.p.r.p.J.8.",
"J.p.p.A.A.8.p.A.8.V.Q.A.p.6.>.Q l o i ] .._ ' { ..[ ` ..] i X = Q Q 6.E.p.p.V.A.A.A.p.p.p.p.J.p.",
"A.Q.8.8.p.A.8.8.~.p.A.8.~.p.8.A.8.W j +.@._ _ [ { ` _ @.+.j G 5.E.8.p.p.J.p.8.A.A.8.8.8.8.~.J.p.",
"p.A.p.p.A.A.Q.A.8.E.p.p.8.p.8.A.8.>.J T X.{ [ ' [ ' [ #.T J ! 6.8.p.p.p.p.8.A.p.p.8.8.8.A.A.A.A.",
"A.A.J.J.A.Q.p.8.8.J.J.p.p.p.p.J.8.7.W H R #.{ _ _ [ o.] H W 8.7.8.p.A.8.8.p.p.J.p.p.8.8.p.p.p.p.",
"8.A.p.Q.A.8.A.A.A.!.~.p.8.A.J.J.J.p.p.:.p %.o.[ [ { +.+ <.J.8.8.p.8.p.8.A.A.8.8.p.8.p.8.8.8.p.A.",
"p.p.p.p.8.A.8.8.A.A.A.Q.A.A.p.p.p.p.p.1.x | X...{ o.X.y 1.p.p.p.6.p.A.8.A.8.A.p.J.8.8.p.p.8.p.p.",
"8.8.p.p.J.p.Q.A.~.8.8.V.p.A.J.p.p.0.6.0.8.+ T X.| | t Q.A.p.p.p.8.p.p.p.8.A.p.p.p.8.8.8.p.p.p.p.",
"8.p.p.8.A.A.A.A.8.8.8.8.A.8.8.p.p.6.p.J.8.p.G f T a -.p.8.8.J.p.8.p.8.A.8.p.p.p.p.8.8.p.p.A.8.8."
};
