/* XPM */
static char *a1284525085641448e706e142387db52[] = {
/* columns rows colors chars-per-pixel */
"48 48 191 2 ",
"   c #141517",
".  c #2B1E1E",
"X  c #221A1A",
"o  c #3D1D1D",
"O  c #19201E",
"+  c #1C1E21",
"@  c #211F22",
"#  c #1E2124",
"$  c #1E2A25",
"%  c #202226",
"&  c #2E2324",
"*  c #24262A",
"=  c #26292D",
"-  c #292B2F",
";  c #3C2527",
":  c #24332C",
">  c #2D2F34",
",  c #362F33",
"<  c #2E3136",
"1  c #263930",
"2  c #2F3238",
"3  c #303237",
"4  c #32353B",
"5  c #3C373C",
"6  c #35393F",
"7  c #393B3F",
"8  c #442121",
"9  c #4B2B2D",
"0  c #532626",
"q  c #532C2B",
"w  c #5D2C2D",
"e  c #40312A",
"r  c #48322C",
"t  c #5B2D31",
"y  c #403236",
"u  c #473F33",
"i  c #493734",
"p  c #563234",
"a  c #5E3231",
"s  c #543D35",
"d  c #5A3B34",
"f  c #622E2E",
"g  c #653333",
"h  c #6C3535",
"j  c #6A3836",
"k  c #6F373F",
"l  c #603F39",
"z  c #6C3B39",
"x  c #623C36",
"c  c #713535",
"v  c #743B3A",
"b  c #7D3C3B",
"n  c #2A4136",
"m  c #2E4C3B",
"M  c #334E3D",
"N  c #32413E",
"B  c #30503F",
"V  c #4F4338",
"C  c #454E3D",
"Z  c #484739",
"A  c #53493C",
"S  c #46513E",
"D  c #6C413D",
"F  c #66443C",
"G  c #71433E",
"H  c #363A40",
"J  c #3A3D44",
"K  c #3C4047",
"L  c #3E424A",
"P  c #334B40",
"I  c #335443",
"U  c #345A45",
"Y  c #395F49",
"T  c #395541",
"R  c #3D6B4F",
"E  c #3B6B50",
"W  c #3E7455",
"Q  c #41454D",
"!  c #43484F",
"~  c #455140",
"^  c #4F5140",
"/  c #495C45",
"(  c #545644",
")  c #464A52",
"_  c #494D56",
"`  c #4B4F58",
"'  c #4D525B",
"]  c #50555E",
"[  c #6C4641",
"{  c #6D4B42",
"}  c #634C41",
"|  c #7F4242",
" . c #734942",
".. c #7E4B47",
"X. c #625647",
"o. c #6F5348",
"O. c #625948",
"+. c #6B5147",
"@. c #78554B",
"#. c #4A6147",
"$. c #4C644B",
"%. c #4C6A4E",
"&. c #54654D",
"*. c #536B4F",
"=. c #536A51",
"-. c #5D6350",
";. c #427857",
":. c #457E5C",
">. c #4E7C5B",
",. c #4C7355",
"<. c #557455",
"1. c #567957",
"2. c #557759",
"3. c #587458",
"4. c #557C5B",
"5. c #597356",
"6. c #606752",
"7. c #515760",
"8. c #545964",
"9. c #595F6A",
"0. c #863F3F",
"q. c #883F3F",
"w. c #874242",
"e. c #8B4242",
"r. c #8C4C4A",
"t. c #934545",
"y. c #954748",
"u. c #954B4B",
"i. c #9C4B4B",
"p. c #87524D",
"a. c #94564D",
"s. c #99574E",
"d. c #8B5450",
"f. c #975151",
"g. c #9C5353",
"h. c #9E5857",
"j. c #A14D4D",
"k. c #A45353",
"l. c #AC5353",
"z. c #A15F5E",
"x. c #AB5A5A",
"c. c #B05555",
"v. c #B35D5D",
"b. c #8E6361",
"n. c #9C6769",
"m. c #9F6D69",
"M. c #AE6463",
"N. c #A26B67",
"B. c #B66262",
"V. c #BA6D6D",
"C. c #AC716C",
"Z. c #B97875",
"A. c #46805C",
"S. c #4B835D",
"D. c #54815E",
"F. c #478462",
"G. c #498762",
"H. c #4B8B64",
"J. c #548461",
"K. c #548B63",
"L. c #5A8964",
"P. c #4F946A",
"I. c #4D9064",
"U. c #509367",
"Y. c #52946A",
"T. c #549C6E",
"R. c #4F9B72",
"E. c #539E72",
"W. c #589D70",
"Q. c #509D78",
"!. c #57A16F",
"~. c #58A26F",
"^. c #56A171",
"/. c #57A271",
"(. c #55A072",
"). c #56A172",
"_. c #57A273",
"`. c #55A171",
"'. c #56A174",
"]. c #56A175",
"[. c #56A172",
"{. c #58A270",
"}. c #58A372",
"|. c #59A472",
" X c #58A374",
".X c #58A377",
"XX c #58A372",
"oX c #5BA679",
"OX c #B2938C",
"+X c #BC9892",
"@X c #C49C97",
/* pixels */
"E.^.{._.E._.^.^.(.E.E.^.E.R.`.^.{.T.^.E.^._.^.E.E._.{._.^.~.!.^.^.^.^.E.^.E.^. X{._.{.{.^.^.E.^.",
"^.^.{._._. X^.^.^.^.E.^.R.E.E.^.!.!.^.^.E.^.^.^.^.^.E.^.^.!.!.^.E.E.^.E.E.E._._.{. X^.^.{.^.^.^.",
"E.^.^.{.E.^.^.{._.^.E.{.E.E.R.^.^.^.^.E.^.^._.E.^.^.^.^.!.T.^.^.E.E.E._.E.E.E.E.oXE._.E.E.E.E.E.",
"^.{.E.|.^._.^.^.^.^.^.|.E.E.|.^.^.E.^.^.^.^.^._._.E. X^.^.^.!.^.^.^.E._.E.E.^. XE..XE.E.^.E.E.E.",
"^.^.^.^.^._.E.^.E.{.^.E.E.^.{.^._.^.^.^.E.^.{._.E._._.^.K.A s s J.^.{. X^.{.J.A s s D.E.E._.^.!.",
"T.!.{.^.E.^.{.^.E.^.^.E.E.^.E.E.E.^.E. XE.^.^.^.(.E._.2.X.r.x.j.F K. XQ._.L.o.h.x.k.z J.^.^.E.T.",
"E.{.^.E.^.^.^.E.E.E.^.E.^.{.E.E._._.^.E.E.^.^.{.E.E.2.@.N.+Xk v.h J.E._.J.} m.@Xn.g.v 4.{.E.^.E.",
"^.^.E.^.E.E.^.E.^.E.^.^.E.^.E.E._.^.^. XE._.^.E.^.E.&.d.Z.OXt B.z J.^._.4.h C.+Xb.h.v 4.^.E.E.^.",
"{.^.^.^.R.E.E.E.E.E.~.^.R.E.^._.^.^.{.^.^.^.E.E.oXE.&.d.M.a.a.V.D J.E.E.2.h g.s.a.g.+.K.E.E.E.E.",
"!.^.`.^.E.T.E.E.E.^.{.{.E.^.^.^.^.E.^.{.{.E.E.^.E.E.=.p.x.V.V.B.[ J.^.E.4.z h.M.z.D 4.{.^.T.E.E.",
"|.^.E.^.E.T.!.E.E.{.!.!.^.^.{.^.^.^.^.E.^.^.E.E.E.E.^.*.F i.c.f 5.T.^.E.E.D.d w d 4.^.^.^.T.E.E.",
"^.E.E.^.E.T.~.E.E.^.{.^.^.H.H.H.G.F.G.G.H.H.G.H.P.E.^.^.K.{ k.c.h J.{.^.^.D.{ y. .4.^.E.T.!.E.E.",
"^.^.^.^.E.{.{.T.E.^.^.E.Y.1 : : : : : : : : : : R Y.T.{.T.3.g B.v 2.E.^.E.J.{ y. .2.T.^.E.E.E.^.",
"E.^.E.E.^.^.{.^.E.^.E.G.Y = * % % * > > > - # + n I W Y.^.D.q B.u.O.4.^.E.D.{ u.r.O.K.^.E.E.^.{.",
"^.E.E.^.E.E.E.E.E.E.H.I 4 J J 3 > 4 H H J L 6 = # # 1 ;.T.D.q v.x.j ( E.^.H.6...u.h 1.^.E._.^.E.",
"^.^.E.E.E.^.E.E.E.:.I 6 ' ' ) K 6 > > > 3 J Q H = * % n E 4.q c.x.j V >.^.E.4.F w.h 1.{.^.^.E.E.",
" X^.R.E.^.^.E.^.:.P H ' 9.9.] _ Q 6 > > > 3 J Q J = * % = T &.b k.u.h u / / Z a 0.h 2.^.E.^.^.^.",
"_.E.E.^.E.{.^.:.n - 6 L L L 9.7.` Q 6 > > > 2 H Q 6 = = * $ T.0 y.v.g.v h h h h c w 2.^.E.^.E.^.",
"E.R.R.E.^.T.H.B # % * = > > K ' 7.) L > > > > 2 K Q 2 * * # U 0 y.v.v.x.k.k.j.t.c 0 ^ Y.E.^.E.{.",
"_.E.^.^.T.S.B < 2 2 2 2 > > * Q ' _ Q > > > > > H ) 6 = * * O 0 y.v.v.v.v.v.l.l.e.w a <.J.K.E.|.",
"_.^.{.{.U.U = H Q Q Q L 2 > > = H ] Q > > > > > 2 L Q 2 % =   0 y.c.c.c.c.c.c.l.j.0.y.d e C T.^.",
"^.{.^.^.H.I 4 ' 8.8.8.) Q 2 > % 4 7.) J > > > > > L ) 2 % = * 0 f.c.j.e.y.c.c.c.l.t.f r.h u T._.",
"E.^.^.S.1 > _ J * * 2 ' _ ! > > > H 8.L > > > > > 2 J 2 % = = 0 u.h h | g c.c.c.l.l.f 8 $.U._.^.",
"E.^.E.A.: 4 J K ) L H 6 ! ) > > > 6 8.L > > > > > > J 2 % = = 8 u.f.| v y.c.c.c.c.c.f / K.E.^.^.",
"^.^.^.A.: 2 > L 8.Q 3 - Q ) > > > 6 8.L > > > > > > J 2 % = = o u.B.x.k.c.c.c.c.c.v.g >.^.^.E.`.",
"^.^.^.A.: > > J _ H > = Q ) > > > 6 8.L > > > > > > J 2 % = % f k.B.B.v.c.c.c.c.c.v.h >.^.^.^.^.",
"^.!.{.A.: > > 4 J 2 > > Q ) > > > 4 8.L > > > > > 2 K 2 % =   c.v.B.B.B.v.c.c.c.c.v.r.-.K.T.E.^.",
"^.~.!.S.: 2 3 4 6 - > ! ) Q > > - > ) L > > > > > L ] H % * . c.v.B.B.B.v.c.c.c.c.v.B.h =.T.^.T.",
"{.!.!.A.: 4 _ 6 * 6 _ ] _ 2 > > - > ) L > > > > > L ] H +   0.c.v.B.B.B.B.v.v.c.c.c.v.h =.T.^.E.",
"!.!.{.F.: 3 ' _ Q _ ' _ Q 2 > > - > ) J > > > > 3 L ] 6 @ . 0.c.v.B.B.B.B.B.v.c.c.v.B.h =.T.^.E.",
"!.{.^.:.: = L ' 8.' _ Q 4 > > > - 2 Q 2 > > > > J ) ] 4 & h e.c.v.B.B.B.B.v.v.c.c.v.B.h =.T.E.E.",
"!.^.E.:.: % 3 Q ` ) Q H 2 > > * > J L > > > > > J _ ' 4 ; b i.v.B.B.B.B.B.v.c.c.c.v.B.h =.E.E.{.",
"^.E.E.A.: = > > H H 6 2 > > > % > Q 6 > > > > > J ' L i g 0.l.B.B.B.v.v.B.v.c.c.c.v.B.h =.W.^.|.",
"E.^.E.S.: 3 J > - > > > > > * 2 J J > > > > 2 H Q 8.H p w.i.v.B.B.v.v.v.B.v.c.c.v.B.B.h =.T.E.E.",
"^.^.^.I.U N L J > = * * * * 2 L Q 6 > > > > 3 L ` Q y h e.l.B.B.v.c.c.v.B.v.c.c.v.B.B.g =.T.E.E.",
"E.^.E.!.H.M 2 L J 4 3 3 4 4 Q J 6 2 > > > 2 H Q ] 2 9 w.i.v.B.v.c.c.c.v.B.v.c.c.c.v.B.g %.T.{.E.",
"^.^.^.^.P.Y - H Q Q Q Q Q Q Q 6 2 > > > 2 4 L _ ` , w y.l.B.v.c.c.c.v.B.B.v.l.k.l.v.B.v *.T.E.^.",
"^.^.^.^.E.G.I < 6 L Q Q Q Q 3 2 > > > 2 H Q _ 7.6 p 0.j.v.v.c.c.c.v.v.x.x.k.t.e.t.j.g.[ <.T.^.^.",
"^.^. X_.E.E.T.m % > 3 3 3 3 > > > > > 4 ) _ 7.9.3 a y.x.v.c.c.c.c.v.k.e.e.e.e.0.q.e.w / U.^.{.^.",
"_.^. X_._.{.E.I > 6 2 > > > > > > > 4 ) _ 8.] 2 q 0.i.l.c.c.c.c.l.y.e.0.0.0.0.0.0.0.0 #.T.^.{.E.",
"{.^.^._.Y.%.Z F p 5 L 3 > > > > 6 ) ) ' 9.7.5 a 0.j.c.c.c.c.c.q.q.0.0.0.q.q.q.q.b 0 ,.E.^.^.{.^.",
"_. XE.K.^ G e.j.i.p > J L L L L ) 8.8.) = - p b y.l.l.i.t.t.t.0.0.0.0.0.0.q.q.b x $.Y.E.E. X^.^.",
"^._.S.%.r h w.w.w.q & 4 6 6 6 H K ! ! 7 X . q h b w.w.b h h h h h h h h h h h j ( J.E.E._.^._._.",
"^._.%.#.S ~ ~ ~ ~ S S M m m m m m m m M S S ~ S S S S S S S C C S S S S S S S / K.^.E.E.^.^.^.^.",
"E._.^. X_.E._._._..X X^.E._.{.{.{.^.^.E.^.E.E. XE.^._.E.^.{.E.E.^.E.^.E._._.E.E.^.E.^.E.E.E.^._.",
"^.^.^.^.E._.E.E._._._. X_.^.^.^.^.^.^.^.^.E.^.E.E._.E. X{.^.^.^.T.^._.E._.E. X^.{.E.E.^.^.E.^.^.",
"E.E.^.^.{.^. X_. XE.E.(.^._.{.^.^.!.T.!.E.^.E.E._._.^. X_.^.^.^.E.^.^.^.E._.^.^.^.E.E.E.^.^.^.^.",
"E.^.^.E._._._._.E.E.E.E._.E.E.^.^.T.^.{.E.^.E.E.E.E. X^.E.E.{.^.E.^.E._.E.^.^.^.^.E.E.^.^._.E.E."
};
