/* XPM */
static char *_6317f78ba4e487d98dd5f27038fc7d8[] = {
/* columns rows colors chars-per-pixel */
"48 48 193 2 ",
"   c #1A1B1E",
".  c #171517",
"X  c #20191C",
"o  c #2A1B1C",
"O  c #3C1E1E",
"+  c #361D1D",
"@  c #1D1F22",
"#  c #291E20",
"$  c #371F20",
"%  c #1F2225",
"&  c #212326",
"*  c #2B2226",
"=  c #23262A",
"-  c #2A272B",
";  c #25292D",
":  c #292A2E",
">  c #272A26",
",  c #322224",
"<  c #3B2223",
"1  c #3A2B2F",
"2  c #23342C",
"3  c #26392F",
"4  c #2C2E34",
"5  c #3B2D31",
"6  c #372F33",
"7  c #273731",
"8  c #2E3136",
"9  c #263931",
"0  c #293E32",
"q  c #32353B",
"w  c #35393E",
"e  c #39393F",
"r  c #39363C",
"t  c #452525",
"y  c #4D2424",
"u  c #482728",
"i  c #4C292A",
"p  c #432B2A",
"a  c #512626",
"s  c #552929",
"d  c #5C2B2B",
"f  c #4A322C",
"g  c #58322F",
"h  c #52302C",
"j  c #492D30",
"k  c #422F32",
"l  c #4E3A32",
"z  c #5E3031",
"x  c #5D3B35",
"c  c #553C34",
"v  c #612E2E",
"b  c #633232",
"n  c #6B3333",
"m  c #633D37",
"M  c #633E39",
"N  c #723737",
"B  c #733B3B",
"V  c #7B3C3B",
"C  c #2B4739",
"Z  c #2E4B3A",
"A  c #2B4036",
"S  c #464034",
"D  c #494C3C",
"F  c #474638",
"G  c #57473B",
"H  c #5C443B",
"J  c #534237",
"K  c #47513E",
"L  c #63453C",
"P  c #6D413C",
"I  c #68493F",
"U  c #373A41",
"Y  c #3A3D44",
"T  c #3C4047",
"R  c #3E4149",
"E  c #315642",
"W  c #345943",
"Q  c #365F48",
"!  c #385943",
"~  c #38634A",
"^  c #3A694E",
"/  c #3C6C53",
"(  c #3F7153",
")  c #414047",
"_  c #42454D",
"`  c #44484F",
"'  c #455B45",
"]  c #495D46",
"[  c #4C5D48",
"{  c #4C5340",
"}  c #515442",
"|  c #5C5143",
" . c #565B48",
".. c #444750",
"X. c #464A52",
"o. c #494D56",
"O. c #4A4F58",
"+. c #4D525B",
"@. c #50555F",
"#. c #6B4841",
"$. c #754542",
"%. c #7E4141",
"&. c #754C46",
"*. c #6C5349",
"=. c #675548",
"-. c #73554C",
";. c #46644E",
":. c #4E674F",
">. c #53614B",
",. c #59654D",
"<. c #4E6D53",
"1. c #5B6750",
"2. c #556D52",
"3. c #5B6D53",
"4. c #427555",
"5. c #437B5C",
"6. c #527556",
"7. c #547558",
"8. c #557C5B",
"9. c #59775A",
"0. c #515761",
"q. c #545963",
"w. c #595F6A",
"e. c #863F3F",
"r. c #883F3F",
"t. c #854343",
"y. c #8C4343",
"u. c #874C4B",
"i. c #954646",
"p. c #914947",
"a. c #934A4A",
"s. c #9B4A4A",
"d. c #865C58",
"f. c #945453",
"g. c #9D5353",
"h. c #9B5A52",
"j. c #9E5959",
"k. c #A44E4E",
"l. c #A45454",
"z. c #AC5353",
"x. c #AB5A5A",
"c. c #A25859",
"v. c #B05454",
"b. c #B35C5C",
"n. c #AC635F",
"m. c #A36564",
"M. c #A16967",
"N. c #B66161",
"B. c #B46A68",
"V. c #4E825F",
"C. c #55845E",
"Z. c #4B8764",
"A. c #4E8A65",
"S. c #4F8F68",
"D. c #548260",
"F. c #588661",
"G. c #548C65",
"H. c #558F68",
"J. c #4E946C",
"K. c #549267",
"L. c #589367",
"P. c #53956B",
"I. c #549B6D",
"U. c #589D6E",
"Y. c #4F9B72",
"T. c #539E72",
"R. c #509D78",
"E. c #56A16F",
"W. c #58A26F",
"Q. c #56A171",
"!. c #57A271",
"~. c #55A073",
"^. c #56A172",
"/. c #57A272",
"(. c #55A171",
"). c #53A074",
"_. c #56A175",
"`. c #57A274",
"'. c #55A175",
"]. c #56A172",
"[. c #58A270",
"{. c #58A372",
"}. c #58A171",
"|. c #59A472",
" X c #58A374",
".X c #58A377",
"XX c #59A372",
"oX c #5BA679",
"OX c #B6807F",
"+X c #A58781",
"@X c #BB8583",
"#X c #BD9A91",
"$X c #C28984",
/* pixels */
"T.Q.[.`.T.`.Q.Q.).T.T.Q.T.Y.(.Q.[.U.Q.T.Q.Q.Q.T.T.`.[.Q.Q.W.E.Q.Q.Q.Q.T.Q.T.Q. X[.`.[.[.Q.Q.T.Q.",
"Q.Q.[.`.`. XQ.Q.Q.Q.T.Q.Y.T.T.Q.E.E.Q.Q.T.Q.Q.Q.Q.Q.T.Q.Q.E.E.Q.T.T.Q.T.T.T.`.Q.[. XQ.Q.[.Q.Q.Q.",
"T.Q.Q.[.T.Q.Q.[.`.Q.T.[.T.T.Y.Q.Q.Q.Q.T.Q.Q.Q.T.Q.Q.Q.Q.E.U.Q.Q.T.T.T.`.T.T.T.T.oXT.`.T.T.T.T.T.",
"Q.[.T.|.P.>.s s c D.Q.|.T.T.[.D.s s s 2.T.Q.Q.`.`.T. XQ.Q.Q.E.Q.Q.Q.T.`.T.T.Q. XT..XT.T.Q.T.T.T.",
"Q.Q.Q.T.9.$.s.g.f.=.G.T.T.Q.P.L s.g.j.&.2.I.[.`.T.`.`.Q.Q.E.[.Q.).Q.[.[.Q.[.`.Q.T.[.Q.T.T.`.Q.E.",
"U.Q.[.T.3.t.l.m.@Xd.,.P.T.Q.G.n l.f.OXM.*.F.T.Q.).T.`.[.Q.[.Q.T.`.|. XR.`.oX X[.Q.[.T.Q.Q.Q.T.U.",
"T.[.Q.I.3.t.a.d.#Xm.v G.Q.[.H.n c.$.+X$Xt.3.U.[.T.T.Q.[.Q.Q.T.T.[.T.T.`.T.T.Q.T.T.`.T.T.[.T.Q.T.",
"Q.Q.T.T.8.-.f.h.h.g.b H.T.Q.H.n B.h.h.n.u.3.U.T.Q.T.`.Q.Q.Q.Q.Q.[.|.Q.`.T.Q.Q.Q.Q.Q.Q.Q.Q.T.T.Q.",
"[.Q.Q.Q.J.6.*.f.f.u.| P.Y.T.P.=.j.N.N.c.&.8.T.T.oXT.Q.Q.Q.T.Q.T.T.`.T.T.Q.[.Q.Q.T.T.Q.T.T.T.T.T.",
"E.Q.(.Q.T.P.1.b n L C.[.T.Q.I.3.V l.l.$.1.P.T.Q.T.T.Q.[.[.Q.E.T.T. XQ.T.).T.Q.[.T.Q.[.[.Q.I.T.T.",
"|.Q.T.Q.T.U.2.n e.L G.E.Q.Q.P.L k.l.t.,.K.T.T.T.T.T.Q.Q.Q.T.E.Q.Q.Q.Q.T.T.Q.|.T.T.Q.Q.Q.Q.I.T.T.",
"Q.T.T.Q.T.U.2.N i.I G.Q.Q.Q.L.n c.$.1.P.[.Q.T.Q.2 2 2 2 2 2 2 2 2 2 2 E Q.[.T.T.T.Q.Q.T.U.E.T.T.",
"Q.Q.Q.Q.I.8.*.g.g.#.G.Q.Q.G.| a.j.M 7.Q.[.4.Z Z % @ 4 q q q q ; = = = 2 / `.`.T.T.Q.Q.Q.T.T.T.Q.",
"T.Q.T.T.I.>.V g.$.9.I.Q.T.8.d b.s.m 7.T.( 7 = & % q _ T w w q 8 4 Y R Y w E Q.Q.Q.Q.Q.Q.T.T.Q.[.",
"Q.T.T.Q.P.>.V a.H D.T.T.V.[ v b.s.m 7.Z.Z = ; = 4 R R w 4 4 4 8 w ` o.+.T 7 5.I.Q.Q.E.Q.T.`.Q.T.",
"Q.Q.T.T.P.>.V y.x 6.A.A.S y n b.p.H <.C % ; = & X._ q 4 4 4 8 w _ o.q.w.q.R 3 5.U.|.W.[.Q.Q.T.T.",
" XQ.Y.T.I.>.N e.v a y y d %.N.s.J 8.C % ; = 4 X._ q 4 4 4 8 w _ o.w.q.+.+.+.w = Q P.[.Q.T.Q.Q.Q.",
"`.T.T.T.G.} s n e.i.s.s.l.x.N.s.l ;.0 & = q R X.q 8 4 4 4 w _ o.q.+.w 4 4 4 ; & ; ~ P.Q.T.Q.T.Q.",
"T.Y.A.G.2.h d y.k.z.b.b.N.N.b.s.u > = = = w X._ 4 4 4 4 4 U ` o.@.8 4 4 4 4 4 4 4 ; / I.T.Q.T.[.",
"`.T.D D L V e.k.z.v.v.v.v.v.v.s.t X % = 4 R _ U 4 4 4 4 4 U X.o.U - 4 4 q R R R R 8 0 4.Q.Q.Q.|.",
"`.Q.O B V V i.v.v.v.v.s.i.s.v.g.u * = % q _ _ 8 4 4 4 4 q R o.o.; 4 4 q _ o.0.0.0.X.& ~ I.[.Q.Q.",
"Q.[.] #.b n k.v.v.v.v.n y.a.e.j.u - ; % q T U 4 4 4 4 4 U o.O.Y - 4 w R o.O.Y Y T X.8 A ^ T.Q.`.",
"T.Q.P.{ f N z.v.v.v.v.b t.t.n j.u - ; % q U 8 4 4 4 4 4 U +.+.8 4 4 R X.X._ 4 4 8 R Y ; 0 I.`.Q.",
"T.Q.T.P.>.V v.v.v.v.v.k.V %.x.g.< - ; % q w 8 4 4 4 4 4 U +.+.4 4 4 R X.U ; _ +.q.U _ 8 9 T.Q.Q.",
"Q.Q.Q.I.2.%.b.v.v.v.v.v.b.N.N.g.$ - ; % q w 8 4 4 4 4 4 U +.+.4 4 4 R X.w % w X.q.w Y 4 3 U.T.(.",
"Q.Q.Q.I.3.t.b.v.v.v.v.N.N.N.N.b.y., % % q w 8 4 4 4 4 4 U +.+.4 4 4 R X.U & 4 q R 4 U 4 3 U.Q.Q.",
"Q.E.W. .&.x.b.v.v.v.v.N.N.N.N.b.y., & % U X.Y 8 4 4 4 4 U o._ 4 4 4 R X._ U = 4 Y 8 Y 4 3 U.T.Q.",
"Q.W.U.G %.b.v.v.v.v.v.N.N.N.N.b.s.s * @ Y O._ 8 4 4 4 4 U X.R 4 4 4 U R o.X.8 4 q q R 4 3 U.Q.U.",
"[.E.U.G %.b.v.v.v.v.N.N.N.N.N.b.k.e.<   Y O._ 8 4 4 4 4 U X.R 4 4 4 4 w o.@.o.U q _ o.4 3 I.Q.T.",
"E.E.U.G %.N.b.v.v.b.N.N.N.N.N.b.k.t.d # U O._ U 4 4 4 4 q R R 4 4 4 4 q _ o.@.+.+.+._ ; 3 I.Q.T.",
"E.[.U.G %.N.b.v.v.v.N.N.N.N.N.N.z.s.y.t w o.X.X.4 4 4 4 4 U R q ; 4 4 4 q R o.@.0.X.8 @ 3 I.T.T.",
"E.Q.T.G %.N.b.v.v.v.N.N.N.N.N.N.b.z.i.i r o.o.X.4 4 4 4 4 w R Y = 4 4 4 8 w _ ..X.U ;   3 T.T.Q.",
"Q.T.P.G %.N.b.v.v.v.N.N.v.v.N.N.N.z.i.V j _ +.X.4 4 4 4 4 8 w Y = 4 4 4 4 8 q q q ; q ; 9 T.Q.|.",
"T.Q.T.G %.N.N.v.v.v.N.N.v.v.v.N.N.b.z.i.i _ 0.X._ q 4 4 4 4 q R R = 4 4 4 4 4 4 = q _ 4 9 I.T.T.",
"Q.Q.U.S B N.b.v.v.v.N.N.v.v.v.v.N.N.v.s.V j 4 q.X.q 4 4 4 4 8 w _ _ - @ @ @ @ & w ` - ! S.Q.T.T.",
"T.Q.I.S B N.b.v.v.v.N.N.N.v.v.v.v.N.b.l.i.u - w.X.R q 4 4 4 4 8 w ` T Y Y Y Y Y _ Y @ ~ I.E.[.T.",
"Q.Q.U.S B N.z.k.k.l.b.N.N.N.v.v.v.b.N.v.s.z 5 _ +.X.U q 4 4 4 4 4 Y ` X.X.X.X.X._ 8 9 4.U.T.T.Q.",
"Q.Q.T.D P l.s.e.e.y.x.b.b.N.N.v.v.v.b.v.s.y.n . w.+.X.Y 8 4 4 4 4 4 Y _ _ _ _ _ q = 5.`.[.E.Q.Q.",
"Q.Q. XT.:.v e.e.e.e.e.e.e.a.x.v.v.v.v.v.v.s.N o +.q.+.o.R q 8 4 4 4 4 4 4 4 8 4 @ ^ T.T.(.Q.[.Q.",
"`.Q. XT.6.x V e.e.e.e.e.e.y.a.l.z.z.v.v.v.s.y.N 5 ` q.@.X.Y w q 8 4 4 4 4 8 q q 1 ' V.P.T.Q.[.T.",
"[.Q.Q.Q.P.[ b e.e.e.e.e.e.e.r.y.i.k.z.z.z.z.k.y.N k o.+.+.X.X._ q q q q 8 q e 5 B P l 2.K.Q.[.Q.",
"`. XT.T.T.G.} n e.e.e.e.e.e.e.e.y.i.i.i.k.z.z.k.e.b 6 4 T q.q.+._ R R R R U 5 B s.a.t.L [ [.[.Q.",
"`.`.(.Q.Q.Q.H.} g d d d d d d d d d d d v n n n d s + o * q q 8 4 ; - - - - O v n n n a p K `.`.",
"Q.`.Q.[.`. XQ.Z.;.] ] ] ] ] ] ] ' ' ] ] ] ] ] ] ] ] ] ] ' W E E W W ! W W ! ] ] ] ] ' ] ] ] Q.Q.",
"T.Q.Q. X`.T.`.T.T.T.U.P.P.P.I.I.I.I.I.P.I.P.P.I.P.P.P.P.P.I.J.J.I.P.I.J.T.T.P.P.P.P.P.P.P.P.Q.`.",
"Q.Q.Q.Q.T.`.T.T.`.`.`.[.`.Q.Q.Q.Q.Q.Q.Q.Q.T.Q.T.T.`.T. X[.Q.Q.Q.I.Q.`.T.`.T. XQ.[.T.T.Q.Q.T.Q.Q.",
"T.T.Q.Q.[.Q. X`. XT.T.).Q.`.[.Q.Q.E.U.E.T.Q.T.T.`.`.Q. X`.Q.Q.Q.T.Q.Q.Q.T.`.Q.Q.Q.T.T.T.Q.Q.Q.Q.",
"T.Q.Q.T.`.`.`.`.T.T.T.T.`.T.T.Q.Q.U.Q.[.T.Q.T.T.T.T. XQ.T.T.[.Q.T.Q.T.`.T.Q.Q.Q.Q.T.T.Q.Q.`.T.T."
};
