/* XPM */
static char *b0bb7ca32c594efda6f0f8b3b2643e43[] = {
/* columns rows colors chars-per-pixel */
"48 48 213 2 ",
"   c #2D2725",
".  c #2E2825",
"X  c #382B27",
"o  c #3D2F29",
"O  c #332A26",
"+  c #3F3029",
"@  c #2B363E",
"#  c #3D393B",
"$  c #452F28",
"%  c #44312B",
"&  c #4B342C",
"*  c #51372D",
"=  c #55382F",
"-  c #5A392E",
";  c #5C3729",
":  c #433B3B",
">  c #4D3B37",
",  c #553C33",
"<  c #5C3E33",
"1  c #563E39",
"2  c #643D2B",
"3  c #683B27",
"4  c #733D29",
"5  c #7D3B28",
"6  c #633F32",
"7  c #693F31",
"8  c #5E4035",
"9  c #55433C",
"0  c #5B433B",
"q  c #5F483F",
"w  c #7C4328",
"e  c #7C4526",
"r  c #624035",
"t  c #664134",
"y  c #664135",
"u  c #644134",
"i  c #694133",
"p  c #6A4132",
"a  c #6A4233",
"s  c #6E4233",
"d  c #684134",
"f  c #694235",
"g  c #6A4235",
"h  c #6A4236",
"j  c #6C4235",
"k  c #6F4334",
"l  c #6C4336",
"z  c #6D4436",
"x  c #6E4436",
"c  c #6C4335",
"v  c #63443A",
"b  c #6B4438",
"n  c #6C4C3B",
"m  c #704335",
"M  c #704435",
"N  c #724435",
"B  c #714536",
"V  c #724637",
"C  c #754535",
"Z  c #764636",
"A  c #754636",
"S  c #734536",
"D  c #794736",
"F  c #784736",
"G  c #7B4837",
"H  c #744738",
"J  c #774838",
"K  c #794838",
"L  c #7A4939",
"P  c #70523F",
"I  c #3B4B5C",
"U  c #3A4C6B",
"Y  c #484547",
"T  c #5B4946",
"R  c #474957",
"E  c #47525F",
"W  c #564F56",
"Q  c #644B42",
"!  c #6A4D43",
"~  c #6A554D",
"^  c #655149",
"/  c #74574C",
"(  c #6B5951",
")  c #685B58",
"_  c #725C53",
"`  c #6D625D",
"'  c #72655E",
"]  c #7A685C",
"[  c #474D61",
"{  c #495468",
"}  c #4D5A70",
"|  c #626063",
" . c #796961",
".. c #747274",
"X. c #7D7071",
"o. c #726E71",
"O. c #843F27",
"+. c #894A27",
"@. c #874727",
"#. c #964B25",
"$. c #834B38",
"%. c #AA5625",
"&. c #A25125",
"*. c #9A6E5F",
"=. c #9E725F",
"-. c #9D7054",
";. c #86614A",
":. c #A8795F",
">. c #B17F5F",
",. c #847D78",
"<. c #887972",
"1. c #907E70",
"2. c #B3805F",
"3. c #8E8078",
"4. c #4A5D88",
"5. c #446284",
"6. c #496D93",
"7. c #486198",
"8. c #48689A",
"9. c #487194",
"0. c #48709B",
"q. c #586486",
"w. c #6C7C95",
"e. c #5C5DBF",
"r. c #5070AF",
"t. c #4F7EB3",
"y. c #5377BA",
"u. c #4D71A9",
"i. c #6D76AF",
"p. c #5B66C1",
"a. c #596DC3",
"s. c #5776C5",
"d. c #5A73C4",
"f. c #577AC5",
"g. c #6563C0",
"h. c #6869C2",
"j. c #706CC4",
"k. c #6374C5",
"l. c #697CC7",
"z. c #7573C4",
"x. c #7A75C7",
"c. c #7B79C5",
"v. c #757AC7",
"b. c #827B81",
"n. c #847F92",
"m. c #807CC8",
"M. c #7C8A9D",
"N. c #5987C9",
"B. c #5694CB",
"V. c #5A93CB",
"C. c #678ACA",
"Z. c #7986C9",
"A. c #6392CC",
"S. c #7C90CD",
"D. c #7694CD",
"F. c #7DA7D2",
"G. c #8F8A84",
"H. c #8A8992",
"J. c #8F9193",
"K. c #9B9699",
"L. c #A59C95",
"P. c #A99E96",
"I. c #A69485",
"U. c #AAA39C",
"Y. c #B4A497",
"T. c #B1A298",
"R. c #BBA999",
"E. c #B8A096",
"W. c #8580AC",
"Q. c #9795A4",
"!. c #9B99A7",
"~. c #9B9EAD",
"^. c #9698B5",
"/. c #8F91B1",
"(. c #A8A7A7",
"). c #A4A5B3",
"_. c #AEB1B1",
"`. c #B0B7B5",
"'. c #8588CA",
"]. c #928ECE",
"[. c #8591C6",
"{. c #8B92C7",
"}. c #8B90CE",
"|. c #9493C7",
" X c #9594CC",
".X c #8F97D0",
"XX c #9E9ED1",
"oX c #9796D0",
"OX c #A19FD0",
"+X c #A19CC8",
"@X c #99A3CB",
"#X c #8FA6D3",
"$X c #A8A8C8",
"%X c #A5B4CD",
"&X c #ADB7CB",
"*X c #B3B4C9",
"=X c #BDBACB",
"-X c #B6BEC3",
";X c #ABA7D5",
":X c #A9A8D2",
">X c #A7B5D6",
",X c #B5B6D4",
"<X c #BAC6CE",
"1X c #BBCDD1",
"2X c #B6C5D2",
"3X c #CDD2CF",
"4X c #D9D4CB",
"5X c #D4D3CE",
"6X c #C1C6D8",
"7X c #C4D1D2",
"8X c #CCD3D0",
"9X c #C8C3CA",
"0X c #CACFE0",
/* pixels */
"t t j M Z Z Z Z x a 6 a x V j y 6 6 t i a j x a a a 6 < < < 6 a a b x x x x x M M Z Z D D K K K ",
"t t j M Z Z Z Z x a 6 a x V j y 6 6 t i a j x a a a 6 < < < 6 a a b x x x x x x M Z Z D D K K K ",
"i i j M Z M M M j a y a a x a y 6 t i j j x x j a a y 6 < 6 i j a a y y y 6 t i i j M M Z D K K ",
"a a j x M x x j a a a a a a i 6 6 i m Z M M M j a a a i 6 i j M j y r 6 < < < 6 6 i a x M Z K K ",
"j j j x z x a y a x x a a t 6 7 7 s Z D D Z M j j a a j s m M Z j y < < , * = < < 6 y a x Z K K ",
"j j j z z a y r y a a a a t i i s m Z D Z Z M m j a j j m M Z Z j a 6 < < < < < 6 t y a x M H H ",
"j j j b b y r < r y y y y a a j j M Z Z Z Z Z m j i j m Z Z Z Z m i 6 6 6 6 6 6 t y y y j M Z Z ",
"j j a b y r 8 < < 6 r t y a j x M M Z Z Z Z Z m s i s M Z Z Z Z m s i i i i i a a y y y a x M M ",
"j j a a y r 8 < < r t y a a a y t t t 6 6 6 6 6 < < 6 6 t 6 6 6 7 i i s s M x x x a a y a x M M ",
"j j a a y r r < r y t a a j y 6 < < < - = = = = * & * = - - - - < 6 i s M Z Z M M x a y a j M M ",
"j j a y y r r r r y i a j x 6 < & & & & & % % % % % % % & & & & = 6 i m Z D G K J M a y a j j j ",
"M M j a r r r < r y i j x M 6 = % & * ; ; ; ; 2 2 2 2 2 3 2 ; * - 2 i s M D Z M M x a y a a j j ",
"H H z a r 6 6 < 6 t i j M Z 6 & X & ; 3 4 4 w w @.+.+.+.+.e 3 ; 2 2 6 i M Z M x a a y y a a j j ",
"L L V a 6 < < < 6 i s m Z J < % . $ 3 5 O.@.#.#.&.%.%.%.%.#.e 3 2 2 6 i j M x a 6 6 y y a a j j ",
"V V b y < < < < 6 t i j M Z < & O 9 / *.=.=.:.:.:.>.>.>.2.-.;.P n b 6 i j x j a t t a a a a a a ",
"b b y r < < 6 r r 6 7 s M Z < & O ^ <.E.Y.T.T.T.T.Y.Y.R.R.I.1.] / ! 6 a a x a a i a j M x j a a ",
"r r 8 < < < 8 r y 6 7 i j M < & X ` L.5X3X7X1X1X1X1X1X7X7X`.K.,. ./ i a a a a a i j M H V x a b ",
"8 8 < < < < 8 r y t 7 s x M 6 = & ( ,.U._.-X1X2X&X%X2X1X8X_.G.' ( ! a y y y y a i j M H V x b b ",
"8 < < < < < r r y i i j x M a 6 - Q ` ..J.).6X,X%X@X&X<X5XU.<.T Q v a y y r t y a j M K M b y y ",
"< < < < < 8 r r y a j j x M M j s 8 9 Y ..!.6X,X@X[.$X=X4XP. .& = < a y r < 6 t a j M K M x y y ",
"< < < < < < < 8 r r y a a j t 6 - Q ) ..H.).,X:X X'.|.$X=XK.X.T Q v y r 6 < 6 6 t j Z K Z x y y ",
"< < < < < < < < < < 6 r y t < = & ( ,.K.).$X,XXX}.c.'.|.+XQ.b.' ( ! r 6 < < 6 6 6 j Z K Z x r y ",
"< < < 1 , , , , , < < < < 6 = & o ) K.9X=X,X;X X'.j.z.c.'.W.n.,. .~ < < < < < 6 6 s Z G Z x y y ",
"< < < , , , , , , , < < , = q ~ ' b.Q.$X:X:X;X Xm.h.j.j.z.i.i.w.o.W > , < 6 t i m M Z D M b y y ",
", , , , , , , , , , , , * & ~ <.L.!.^.{. XOX;X Xx.g.g.h.h.i.i.i.q.[ # > < t j M D D D Z M a y y ",
", , , , , , , , , , , & & $ ' L.4X*X|.z.'.oX;X].x.e.e.e.e.p.a.s.7.U @ : , s Z G $.G K Z x a y y ",
"< < < , , , , , , < < = & % ' L.4X*X{.k.Z.}.XX}.v.g.p.p.p.a.d.s.7.U @ : < m Z D G K Z Z x a y y ",
"8 8 < < < < , , < < 6 - * %  .P.4X*X[.d.l.S..X[.Z.k.d.a.a.a.d.s.7.U @ : 1 M M Z Z Z M M x a y y ",
"y y y r 8 < , , < 6 i < * &  .P.4X&X[.d.l.Z.[.Z.C.C.l.s.d.d.s.s.7.U @ : 8 Z M M j M M V x a y y ",
"r r 8 8 < < < , < 6 i 6 - = _ 3.U.~.^.S.S.D.D.C.C.C.N.N.f.y.y.r.4.[ # 1 y Z Z M j M M M x a y y ",
"< < < < < < < < < 6 i 6 6 6 ! ' X.H.^.>X#XD.A.A.V.V.N.N.N.y.u.8.} R , 8 a D Z M j M M M x a y y ",
", , < < < < < < 6 y a a j s v 9 Y ..).0X>XF.B.B.B.B.B.B.N.t.0.5.{ W 6 a M K H M j M M M x a r r ",
", , < < 6 < < < r y a j j j b v 0 ` b.Q.M.w.6.9.9.9.9.6.6.5.} { W T a j M Z M m j m M Z x a r r ",
", , < < r r r < r y j j m m x b v ^ ) | { E I I I I I I I R R Y T v j M M M m j j j M Z x a r r ",
"< < < r y y r 8 y a j j M Z Z Z Z < % . .                 X % & - 6 M M M m j j i j Z D M a r r ",
"< < < 8 r r r 8 r y a j j m M M M 6 * + o o o o o o % % % & * - 6 i M M M M m m j m M Z x a r r ",
"< < < < 8 8 8 < r r y a a j j j j 6 < * * & & & & * = < < 6 6 6 i j M Z Z Z Z M M M M M j a y y ",
"< < < < < < < < < r r y y a a a a y t 6 6 6 < 6 6 6 a M J Z M M M M M Z Z Z Z Z Z Z M m j a y y ",
"< < < < < < < < < < 6 6 y a a a a a a i t t 6 r r r a x H M x j j M M M M Z Z Z Z Z Z Z M a y y ",
"6 6 6 6 6 6 < < < < < 6 6 t t i i a j x j a a y y y a x M x j a a a j j m M M M Z Z Z D M j y y ",
"i i t 6 6 6 < < < < < < 6 6 6 t i j M Z M j j a a a b b x a a t t t i a j m m m m Z D G Z x a a ",
"a a a a i i t t 6 6 6 6 t t i j j M M Z M x j a a y a a a a y t i i a j M M M M m Z Z G Z M a a ",
"j j j m M M m j j j j j a a j M M M M M M x x a a y y y y y t 6 i j j M Z Z Z M m Z Z D Z M j j ",
"x x M Z D D D D Z Z Z M M j M Z H Z Z M M x x b y y y y y t 6 6 i j M Z Z G D Z m M Z Z Z M x x ",
"x x M Z Z Z D D Z M M M x j M M M M M M M x a a y y y r r r t 6 i j M M Z Z Z M s m Z Z M M x x ",
"j j M M Z Z Z Z Z M x x x x x x M M M M M j a y y y r r r r r t a j M M M Z M j i j M Z M M j j ",
"j j x M Z Z H H M x a a j x x j j x M Z M a y y y y r r r r r r a j M M M M j i i s M Z M M j j ",
"j j x M Z Z Z H V x a a j x x j j x M Z M a y y y y r r r r r r a j M M M M j i i s M Z M M j j "
};
