/* XPM */
static char *_1a72c171f0645759aa07560a854edb2[] = {
/* columns rows colors chars-per-pixel */
"48 48 167 2 ",
"   c #31231F",
".  c #3A251F",
"X  c #2F2725",
"o  c #2D2B2A",
"O  c #342622",
"+  c #3D2721",
"@  c #352925",
"#  c #3B2A24",
"$  c #352D2C",
"%  c #3B2E2B",
"&  c #37312F",
"*  c #3C312E",
"=  c #373534",
"-  c #3D3431",
";  c #3F3936",
":  c #3B3C3A",
">  c #432B24",
",  c #4C2C23",
"<  c #442E29",
"1  c #4B2E29",
"2  c #532D23",
"3  c #5B2E24",
"4  c #522E28",
"5  c #5F2C28",
"6  c #4A3027",
"7  c #44332E",
"8  c #4C342C",
"9  c #5E3025",
"0  c #53352C",
"q  c #5A342F",
"w  c #54382F",
"e  c #5B3A2E",
"r  c #433632",
"t  c #4A3732",
"y  c #453936",
"u  c #4B3A35",
"i  c #443C39",
"p  c #4B3D3A",
"a  c #503730",
"s  c #543A32",
"d  c #5C3D32",
"f  c #513E3A",
"g  c #632F25",
"h  c #673024",
"j  c #6C3224",
"k  c #633C2F",
"l  c #623E32",
"z  c #3C413F",
"x  c #43413E",
"c  c #4D413C",
"v  c #5C4136",
"b  c #53423C",
"n  c #5C443B",
"m  c #5D493F",
"M  c #654134",
"N  c #6C4234",
"B  c #644539",
"V  c #604A3F",
"C  c #6C4A3E",
"Z  c #734535",
"A  c #794636",
"S  c #7B4837",
"D  c #754738",
"F  c #76493A",
"G  c #794838",
"H  c #3D4341",
"J  c #3A4846",
"K  c #444542",
"L  c #4D4440",
"P  c #434946",
"I  c #494A45",
"U  c #434C4A",
"Y  c #484C49",
"T  c #544641",
"R  c #5A4641",
"E  c #564943",
"W  c #5B4B44",
"Q  c #5E4F49",
"!  c #45514E",
"~  c #4A504D",
"^  c #5F5047",
"/  c #5E514B",
"(  c #445552",
")  c #485654",
"_  c #425955",
"`  c #4B5955",
"'  c #465D59",
"]  c #614D43",
"[  c #6B4F43",
"{  c #604E48",
"}  c #714E41",
"|  c #635046",
" . c #6B5045",
".. c #63534B",
"X. c #6B564B",
"o. c #6C584E",
"O. c #705245",
"+. c #735548",
"@. c #785749",
"#. c #755B4E",
"$. c #795B4D",
"%. c #655750",
"&. c #665952",
"*. c #6B5A51",
"=. c #735E53",
"-. c #785E50",
";. c #4A605D",
":. c #756156",
">. c #7C6356",
",. c #73645A",
"<. c #75655B",
"1. c #76665B",
"2. c #736359",
"3. c #79665B",
"4. c #7A665A",
"5. c #7D6558",
"6. c #7E675A",
"7. c #7C675B",
"8. c #7C675C",
"9. c #73685E",
"0. c #77685D",
"q. c #7C6A5E",
"w. c #7D695C",
"e. c #7B695D",
"r. c #4C6461",
"t. c #4D6965",
"y. c #476C68",
"u. c #506B67",
"i. c #4A706C",
"p. c #4E7470",
"a. c #517874",
"s. c #7C6E62",
"d. c #7F6E62",
"f. c #7C6C61",
"g. c #834B38",
"h. c #826455",
"j. c #886758",
"k. c #82685A",
"l. c #84695A",
"z. c #846A5B",
"x. c #80695C",
"c. c #816A5C",
"v. c #836D5F",
"b. c #856D5F",
"n. c #8B6D5D",
"m. c #896C5E",
"M. c #846E61",
"N. c #857063",
"B. c #867366",
"V. c #897162",
"C. c #897365",
"Z. c #887567",
"A. c #8D7466",
"S. c #8F7566",
"D. c #8E7667",
"F. c #877568",
"G. c #867669",
"H. c #897769",
"J. c #8C7668",
"K. c #8F796A",
"L. c #8C786A",
"P. c #937767",
"I. c #997766",
"U. c #9A7B6A",
"Y. c #9B7F6E",
"T. c #57807C",
"R. c #9C8372",
/* pixels */
"l l M B B @.j.I.U.Y.R.A.c.=.] b 7 7 7 7 7 7 r 7 7 7 7 * % * 7 r b ] o.*.=.:.7.l.m.h.$.O.} F D D ",
"l l M B B @.j.I.U.Y.R.A.c.=.] b 7 7 7 7 7 7 t 7 7 7 7 * % * 7 r b ] o.*.=.:.7.l.m.h.$.O.} F D F ",
"M M C  .#.>.m.P.A.C.N.8.=.X.W b r r r r t t u t r r 7 * % * r u b E ] ....X.=.7.V.l.>.-.+.C N N ",
"v v [ #.k.b.V.J.M.3.*.&...{ T p r y y u u i p i y r r - & r y p b b T E W W &.3.C.N.v.c.#.[ M M ",
"n n X.7.K.K.H.G.0.&.W E E T b p i i p p p p p p i y y - - y p b c p i p c c ..,.G.G.G.Z.:. .s s ",
"X.X.=.q.B.d.e.,.&.W c c c c p u u u u u u u p u u r r r 7 r u f p p u p p p E %.,.<.<.<.=.o. . .",
">.>.7.q.d.,.&./ E c y y y y u t t t t t t t t t t r 7 7 7 t t a u u u u y y c W / ......*.=.>.>.",
"A.A.N.d.9.&.W p y - $ & * 7 7 7 8 8 8 8 8 8 8 8 7 8 7 8 8 8 8 8 8 t t t r r y p c c L T ..3.A.A.",
"M.M.e.,.&./ L y - & $ * 7 t a s s s s s s s s s w w w s s s s s s s s s a t u u p p c T Q o.:.:.",
"q.q.2.&./ T i & $ $ @ 7 8 d d l l l M M M l l d d s d l l l M M l l l l d d s u y p c T E Q | | ",
"2.2.&.Q T i - o @ @ # 6 e N N N N N Z Z Z Z N M M l M N Z Z Z Z Z N N N N N d a r y p T b p y y ",
"....Q T c y & X @ # # 6 e N N N N N N N N N M M M d M M N N N Z Z N N N N N l a 7 r u p p y r r ",
"b b b p p r % O O # # 0 k Z Z N N N N N M M M v d d d M M N N N N N N Z Z Z l s 7 7 r ; - r * * ",
"r r r y y * @   O # > 0 l G Z Z N N M M M d d d d d d l l M N N N N Z Z Z Z M w 6 7 % $ $ $ % % ",
"r r r r - % # . + > > 0 k D Z N N N M l M M M l d d d l l M N Z Z Z Z Z Z N M s w 7 7 % * r r r ",
"r r r - & % > , > > > 0 k D Z N N N M l M M M M l d l l M N Z D Z Z Z Z N N M l s w 7 * r u f f ",
"r r - & $ # , 2 , , > 0 k Z N N M M l l l M N M l d l l N Z Z A D D Z Z N N M M l s 8 7 u f R R ",
"y y y - & < , 2 , , > 0 l Z N N M M M M N N N N M l M M N Z Z D D Z Z N N M M M l s t 7 t f b b ",
"p p y ; = 7 6 2 , , > 0 l Z Z N N N N Z N N N N N N N N N Z Z D Z N N N M M M M M d a 7 t u f f ",
"p p i y : r 6 2 , , > 0 l Z Z N N Z Z D Z Z N N Z Z Z Z N Z Z Z Z N N M M d l M N d a 7 t u p p ",
"y y x P ! I p 8 6 > > 6 e N N Z Z Z Z Z Z Z Z Z Z Z Z Z Z Z D D Z N N M l d l l M d w 7 7 r u u ",
"- - K ) t.` I y 7 % # 6 e M N Z D Z N N N Z Z Z Z Z Z D D D A A D N N M l d l l l d w 7 7 7 r r ",
"$ $ P r.T.u.) x ; & @ 6 0 l M N D Z N M N Z D D Z Z D D A A A S D N N M l d d l l e 8 7 7 * * * ",
"& & z ( r.( K - * % O < 0 l M N D Z N N N Z D D Z Z Z D D D D A Z N N N M l l M Z l w 7 7 r r r ",
"- - : z J : - % # # O > 0 l M N D Z Z N Z Z D D Z Z Z Z D D D Z Z N N M M M N D A M w 7 7 r r r ",
"r r - $ o @ O . . O O > 0 k M N Z Z Z Z Z D D D Z N Z Z Z Z Z N N N N N N N D S g.N s 7 r t u u ",
"r r - % $ # > , > > # 6 e l M Z D Z Z Z Z D D D Z N Z Z Z Z N N N Z Z Z Z Z D A S N s 7 r t u u ",
"r r r & $ < , 3 2 , > 0 e N Z Z D D Z Z Z D D Z Z Z N N N N N N Z Z D D Z Z D D D l s 7 r t u u ",
"y y r * % 1 9 j 9 2 > 0 k Z D D F D D Z Z Z D Z Z Z N N N N N N Z D A A D D D Z N l a 7 r t u u ",
"u u r * % 1 3 h 3 2 > 0 k Z D D F D D Z Z Z Z N N N N N N N N M N D A A A D D Z N l a 7 r u p p ",
"u u r - % < 2 g 3 , > 0 l D D D G D D D Z N N N N M M M M M M M N D S A A A D Z N l a 7 t u f f ",
"p p r - $ < 4 3 2 , > 0 l D D D G A D D Z N N N M d l M M M M l N D S S G G D Z N l a 7 t u b b ",
"y y y i H y t 4 , , > 0 l D D D D D Z Z N N M M M d l M M M M l N D A A D D Z Z N l a 7 t u p p ",
"r r i U _ P i 7 < > > 0 k D D D D Z N N N M M M l l M M N N M M N Z D D D Z Z N N d w 7 r t u u ",
"% % H _ y._ H & * % > 0 k D D D D Z N M M M d l l l M M N M N N Z Z D Z Z Z N N l d w 7 7 r r r ",
"- - P ' i.' P - * % > 0 k Z Z Z Z N N M M M d l l l M N N N N N Z Z D D D Z Z Z N l w 7 r u i i ",
"y y Y ;.p.;.U y - * # 6 e N N N N N M M M l d l l l M N Z Z Z N Z Z Z D D D D Z D l s 7 t p b b ",
"p p ~ r.a.r.~ i r * # 6 e M M N N M M l l l d l l l N Z F D Z Z Z Z Z D D D D D A M s 7 u f T T ",
"y y K ! ' ~ L u 7 < # 6 e M M M M M l l l l d d d d M N N N N N M M M N N Z Z Z Z l s 7 u b R R ",
"r r ; : z i u q 1 > # 6 0 l l l l l l M l l l d d d l M N M M l l l l l M M M M M l a 7 u b W W ",
"* & % @ O > , 5 2 > + > w d d d e l l M l l l d d d d d l d d s s d d d l l l l l s a 7 f b W W ",
"r r r * % 7 8 q 0 8 7 t a s d d v v B B B d s d v n v v v v v v v v n v v d v B B v u r u b R R ",
"f f p y r t u s f b b b f u f b n m V ] m b t b n ] m b b b n m W ] ] m b f n m ] n p r u p b b ",
"R R b f p p c b E Q ..E b y c b E W Q ..E c r c E ..W E c T E ^ ......W T p T W ..E c y y p p p ",
"f f p i y y i p c b E c i r y p c b T E c i - i b E b c i c c T E E E b c i c b E c i - y y u u ",
"u u y y ; ; ; ; y i p y - & - y y p p c y r & r i c p y - y i p p p p i y y y p p y y - - r r r ",
"- - - - - - = & - - - - $ $ $ & - - r y - & $ & - y - - & - - r - - - - - - - - r - & & & * r r ",
"- - - - - - = & - - - - $ $ & & - - r y - & $ & - y - - & - - r - - - - - - - - r - & & & * r r "
};
