/* XPM */
static char *_173fe24c7a844ad88fcbe2c716d09db[] = {
/* columns rows colors chars-per-pixel */
"48 48 26 1 ",
"  c #222222",
". c #262525",
"X c #2A2827",
"o c #2B2828",
"O c #2F2A2A",
"+ c #332D2D",
"@ c #342E2D",
"# c #352F2D",
"$ c #37302F",
"% c #393230",
"& c #3B3332",
"* c #3E3533",
"= c #403535",
"- c #423735",
"; c #443837",
": c #453938",
"> c #463A38",
", c #483B3A",
"< c #483C39",
"1 c #4E403D",
"2 c #50413E",
"3 c #544441",
"4 c #584643",
"5 c #5B4944",
"6 c #67514C",
"7 c #775C55",
/* pixels */
"777775* *577777777777777775* *577777777777775*  ",
"777775* *577777777777777775* *577777777777775*  ",
"666662% %266666666666666662% %266666666666662%  ",
"44444>@ @>4444444444444444>@ @>4444444444444>@  ",
",,,,,%O O%,,,,,,,,,,,,,,,,%O O%,,,,,,,,,,,,,%O  ",
",,,,,%O O%,,,,;-%-;,,,,,,,%O O%,,,,,,,,,,;-%+X  ",
",,,,,%O O%,,,,-$O$-,,,,,,,%O O%,,,,,,,,,,-$OX.  ",
",,,,,%O O%,,,,%O O%,,,,,,,%O O%,,,,,,,,,,%O     ",
"%%%%%+X X+%%%%+X X+%%%%%%%+X X+%%%%%%%%%%+X     ",
"OOOOOX. .XOOOOX. .XOOOOOOOX. .XOOOOOOOOOOX.     ",
"                                                ",
"**@o o@****@o o@****************@o o@*******@o  ",
"55<@ @<5555<@ @<5555555555555555<@ @<5555555<@  ",
"775* *577775* *577777777777777775* *577777775*  ",
"663-O-366662% %266666666666666662% %266666662%  ",
"441>%>14444>@ @>4444444444444444>@ @>4444444>@  ",
",,,,,,,,,,,%O O%,,,,,,,,,,,,,,,,%O O%,,,,,,,%O  ",
",,,,,,,,,,,%O O%,,,,,,,,,,,,,,,,%O O%,;-%-;,%O  ",
",,,,,,,,,,,%O O%,,,,,,,,,,,,,,,,%O O%,-$O$-,%O  ",
",,,,,,,,,,,%O O%,,,,,,,,,,,,,,,,%O O%,%O O%,%O  ",
"%%%%%%%%%%%+X X+%%%%%%%%%%%%%%%%+X X+%+X X+%+X  ",
"OOOOOOOOOOOX. .XOOOOOOOOOOOOOOOOX. .XOX. .XOX.  ",
"                                                ",
"********************@o o@****************@o     ",
"55555555555555555555<@ @<5555555555555555<@     ",
"777777777777777777775* *577777777777777775*     ",
"666666666666666666662% %266666666666666662%     ",
"44444444444444444444>@ @>4444444444444444>@     ",
",,,,,,,,,,,,,,,,,,,,%O O%,,,,,,,,,,,,,,,,%O     ",
",,,,,,,,;-%-;,,,,,,,%O O%,,,,,,,,,,,,,,,,%O     ",
",,,,,,,,-$O$-,,,,,,,%O O%,,,,,,,,,,,,,,,,%O     ",
",,,,,,,,%O O%,,,,,,,%O O%,,,,,,,,,,,,,,,,%O     ",
"%%%%%%%%+X X+%%%%%%%+X X+%%%%%%%%%%%%%%%%+X     ",
"OOOOOOOOX. .XOOOOOOOX. .XOOOOOOOOOOOOOOOOX.     ",
"                                                ",
"*****@o o@*******************@o o@**********@o  ",
"55555<@ @<5555555555555555555<@ @<5555555555<@  ",
"777775* *577777777777777777775* *577777777775*  ",
"666662% %266666666666666666662% %266666666662%  ",
"44444>@ @>4444444444444444444>@ @>4444444444>@  ",
",,,,,%O O%,,,,,,,,,,,,,,,,,,,%O O%,,,,,,,,,,%O  ",
",,,,,%O O%,,,,,,,,,,;-%-;,,,,%O O%,;-%-;,,,,%O  ",
",,,,,%O O%,,,,,,,,,,-$O$-,,,,%O O%,-$O$-,,,,%O  ",
",,,,,%O O%,,,,,,,,,,%O O%,,,,%O O%,%O O%,,,,%O  ",
"%%%%%+X X+%%%%%%%%%%+X X+%%%%+X X+%+X X+%%%%+X  ",
"OOOOOX. .XOOOOOOOOOOX. .XOOOOX. .XOX. .XOOOOX.  ",
"                                                ",
"                                                "
};
